<svg xmlns="http://www.w3.org/2000/svg" viewBox="0 0 246.44 50.74" data-ember-extension="1"><defs><style>.cls-1{fill:#d1d3d4;}</style></defs><title>Asset 7ico</title><g id="Layer_2" data-name="Layer 2"><g id="Layer_1-2" data-name="Layer 1"><polygon class="cls-1" points="101.91 49.37 101.91 43.07 102.94 43.07 102.94 48.48 105.6 48.48 105.6 49.37 101.91 49.37"/><polygon class="cls-1" points="111.48 49.37 107.92 49.37 107.92 43.07 111.48 43.07 111.48 43.94 108.95 43.94 108.95 45.65 111.32 45.65 111.32 46.52 108.95 46.52 108.95 48.49 111.48 48.49 111.48 49.37"/><path class="cls-1" d="M118,49.37l-.62-1.75H115l-.62,1.75h-1.08L115.6,43h1.12l2.36,6.33Zm-.9-2.64L116.49,45c0-.12-.1-.3-.17-.55s-.13-.42-.16-.54a9.67,9.67,0,0,1-.34,1.16l-.57,1.64Z"/><path class="cls-1" d="M122.17,46.85v2.52h-1v-6.3h1.78a2.89,2.89,0,0,1,1.81.46,1.62,1.62,0,0,1,.58,1.37,1.71,1.71,0,0,1-1.22,1.68l1.78,2.79H124.7l-1.51-2.52Zm0-.85h.72a1.6,1.6,0,0,0,1-.27,1,1,0,0,0,.32-.79.84.84,0,0,0-.35-.77,2,2,0,0,0-1.05-.23h-.68Z"/><path class="cls-1" d="M133.26,49.37H132l-3.1-5h0l0,.28c0,.53.06,1,.06,1.46v3.28H128v-6.3h1.25l3.08,5h0c0-.06,0-.3,0-.72s0-.74,0-1v-3.3h.94Z"/><rect class="cls-1" x="136.16" y="43.07" width="1.03" height="6.3"/><path class="cls-1" d="M145.33,49.37h-1.26l-3.1-5h0l0,.28c0,.53.06,1,.06,1.46v3.28h-.94v-6.3h1.25l3.09,5h0c0-.06,0-.3,0-.72s0-.74,0-1v-3.3h.94Z"/><path class="cls-1" d="M150.8,46h2.32v3.16a6.93,6.93,0,0,1-1.09.27,8.06,8.06,0,0,1-1.13.07,2.86,2.86,0,0,1-2.21-.84,3.45,3.45,0,0,1-.77-2.39,3.2,3.2,0,0,1,.87-2.38A3.3,3.3,0,0,1,151.2,43a4.74,4.74,0,0,1,1.87.38l-.36.86a3.61,3.61,0,0,0-1.54-.36,2,2,0,0,0-1.59.64,2.45,2.45,0,0,0-.59,1.73,2.58,2.58,0,0,0,.53,1.75,1.92,1.92,0,0,0,1.52.6,5.23,5.23,0,0,0,1.07-.12V46.83H150.8Z"/><rect class="cls-1" x="164.27" y="41.83" width="0.4" height="8.9"/><rect class="cls-1" x="175.98" y="43.07" width="1.03" height="6.3"/><path class="cls-1" d="M185.15,49.37h-1.26l-3.1-5h0l0,.28c0,.53.06,1,.06,1.46v3.28h-.94v-6.3h1.25l3.09,5h0c0-.06,0-.3,0-.72s0-.74,0-1v-3.3h1Z"/><polygon class="cls-1" points="189.06 49.37 188.04 49.37 188.04 43.07 191.6 43.07 191.6 43.94 189.06 43.94 189.06 45.91 191.44 45.91 191.44 46.78 189.06 46.78 189.06 49.37"/><path class="cls-1" d="M199.56,46.21a3.46,3.46,0,0,1-.76,2.39,3.25,3.25,0,0,1-4.37,0,3.49,3.49,0,0,1-.77-2.41,3.4,3.4,0,0,1,.77-2.39,2.85,2.85,0,0,1,2.2-.84,2.77,2.77,0,0,1,2.17.85,3.43,3.43,0,0,1,.76,2.39m-4.8,0a2.78,2.78,0,0,0,.47,1.76A1.91,1.91,0,0,0,198,48a3.58,3.58,0,0,0,0-3.53,1.64,1.64,0,0,0-1.38-.6,1.67,1.67,0,0,0-1.4.6,2.78,2.78,0,0,0-.47,1.76"/><rect class="cls-1" x="210.56" y="41.83" width="0.4" height="8.9"/><polygon class="cls-1" points="224.44 49.37 223.41 49.37 223.41 43.95 221.55 43.95 221.55 43.07 226.29 43.07 226.29 43.95 224.44 43.95 224.44 49.37"/><polygon class="cls-1" points="232.05 49.37 228.49 49.37 228.49 43.07 232.05 43.07 232.05 43.94 229.52 43.94 229.52 45.65 231.89 45.65 231.89 46.52 229.52 46.52 229.52 48.49 232.05 48.49 232.05 49.37"/><path class="cls-1" d="M237.32,43.86a1.69,1.69,0,0,0-1.39.63,3.3,3.3,0,0,0,0,3.49,1.69,1.69,0,0,0,1.41.59,3.33,3.33,0,0,0,.78-.08c.25-.05.51-.12.78-.2v.88a4.7,4.7,0,0,1-1.68.28,2.73,2.73,0,0,1-2.13-.83,3.53,3.53,0,0,1-.74-2.4,3.86,3.86,0,0,1,.36-1.72,2.59,2.59,0,0,1,1-1.13,3.19,3.19,0,0,1,1.6-.39,3.94,3.94,0,0,1,1.78.4l-.37.86a4.44,4.44,0,0,0-.67-.26,2.36,2.36,0,0,0-.75-.12"/><polygon class="cls-1" points="246.43 49.37 245.4 49.37 245.4 46.53 242.5 46.53 242.5 49.37 241.47 49.37 241.47 43.07 242.5 43.07 242.5 45.65 245.4 45.65 245.4 43.07 246.43 43.07 246.43 49.37"/><path class="cls-1" d="M56.17,30.55H69.25a2.19,2.19,0,0,0,.94-.17,1.32,1.32,0,0,0,.5-.42,1.24,1.24,0,0,0,.21-.54,4.89,4.89,0,0,0,0-.49,1.76,1.76,0,0,0-.37-1.1A2.89,2.89,0,0,0,69.11,27l-9.23-2.77a4.73,4.73,0,0,1-3.14-2.39,9.54,9.54,0,0,1-.84-4.21,9.3,9.3,0,0,1,.3-2.43,5,5,0,0,1,1-1.89,4.5,4.5,0,0,1,1.69-1.21,6.41,6.41,0,0,1,2.51-.44H75.92v4.72H63.72a2.14,2.14,0,0,0-1.17.32,1.39,1.39,0,0,0-.48,1.23,1.74,1.74,0,0,0,.4,1.16,3.1,3.1,0,0,0,1.49.83l8.28,2.43a9.84,9.84,0,0,1,2.25.91A5,5,0,0,1,76,24.6a5.1,5.1,0,0,1,.86,1.87A10.49,10.49,0,0,1,77.13,29a10.18,10.18,0,0,1-.29,2.56,5.34,5.34,0,0,1-.91,2,4,4,0,0,1-1.65,1.28,6.31,6.31,0,0,1-2.54.45H56.17Z"/><polygon class="cls-1" points="88.29 41.03 82.96 41.03 85.72 35.23 77.5 17.4 82.89 17.4 88.19 29.94 93.61 17.4 98.94 17.4 88.29 41.03"/><path class="cls-1" d="M100.28,31.42h9.91a1.57,1.57,0,0,0,.88-.22,1.16,1.16,0,0,0,0-1.62,2.61,2.61,0,0,0-.83-.49,6.5,6.5,0,0,0-1-.31c-.36-.08-.67-.17-.94-.25l-3.64-1.12a12.42,12.42,0,0,1-2.11-.82,5,5,0,0,1-1.39-1.07,3.79,3.79,0,0,1-.8-1.43,6.92,6.92,0,0,1-.25-1.94,4.77,4.77,0,0,1,1.2-3.62A5.29,5.29,0,0,1,105,17.4h11.12v3.84h-9.57a2.93,2.93,0,0,0-1,.16c-.28.1-.42.36-.42.77a1.09,1.09,0,0,0,.67,1,12.36,12.36,0,0,0,1.52.6l4.18,1.28c.76.24,1.47.5,2.12.75a5.8,5.8,0,0,1,1.68,1,4,4,0,0,1,1.1,1.52,5.82,5.82,0,0,1,.39,2.29,5,5,0,0,1-1.06,3.45,4.52,4.52,0,0,1-3.49,1.16h-12Z"/><path class="cls-1" d="M127.68,35.26A11.11,11.11,0,0,1,125,35a5.52,5.52,0,0,1-2.11-1,4.83,4.83,0,0,1-1.38-1.84,7.18,7.18,0,0,1-.49-2.79V21.24h-2.49V17.4H121V11.67h5.26V17.4h5.06v3.84H126.3v6.18a4.18,4.18,0,0,0,1,3,4.2,4.2,0,0,0,3.12,1h1v3.84Z"/><path class="cls-1" d="M140.05,35.26a10.51,10.51,0,0,1-3.49-.48,4.26,4.26,0,0,1-2.07-1.55,6.3,6.3,0,0,1-1-2.78,29,29,0,0,1-.26-4.18,20.78,20.78,0,0,1,.42-4.62,5.31,5.31,0,0,1,1.47-2.76,5.53,5.53,0,0,1,2.79-1.33,22.61,22.61,0,0,1,4.42-.36,27.92,27.92,0,0,1,3.91.25,7.09,7.09,0,0,1,2.85,1,4.58,4.58,0,0,1,1.75,2.17,9.93,9.93,0,0,1,.59,3.74,6.67,6.67,0,0,1-.14,1.45,3.34,3.34,0,0,1-.45,1.18,2.26,2.26,0,0,1-.86.79,2.87,2.87,0,0,1-1.35.29H138.57a6.13,6.13,0,0,0,.15,1.42,2.21,2.21,0,0,0,.55,1,2.54,2.54,0,0,0,1.1.65,6.21,6.21,0,0,0,1.77.21h8.69v3.84Zm5-10.81c.48,0,.76-.13.85-.37a2,2,0,0,0,.13-.69,1.77,1.77,0,0,0-.35-1.11,2.78,2.78,0,0,0-.9-.72,4.07,4.07,0,0,0-1.19-.4,7.23,7.23,0,0,0-1.3-.12,4.56,4.56,0,0,0-2.85.73,3.28,3.28,0,0,0-.92,2.68Z"/><path class="cls-1" d="M154.61,20.77a3.31,3.31,0,0,1,.86-2.57,3.57,3.57,0,0,1,2.51-.8h15.77a10.69,10.69,0,0,1,2.88.37,5.82,5.82,0,0,1,2.21,1.15,5.08,5.08,0,0,1,1.41,2,7.53,7.53,0,0,1,.51,2.93V35.26H175.5V25.16a4.45,4.45,0,0,0-.82-3,3.63,3.63,0,0,0-2.85-.94h-1.52v14h-5.25v-14h-4a1,1,0,0,0-1.17,1.18V35.26h-5.26Z"/><path class="cls-1" d="M196.19,17.4a5.26,5.26,0,0,1,4.1,1.57,5.84,5.84,0,0,1,1.43,4.09v8.83q0,3.38-3.37,3.38h-10a3.89,3.89,0,0,1-3.42-1.41,7.26,7.26,0,0,1-1-4.19,7.25,7.25,0,0,1,1-4.05,3.8,3.8,0,0,1,3.4-1.51h8.12v-.76c0-1.4-.75-2.11-2.26-2.11h-9V17.4Zm-5.35,10.35q-1.59,0-1.59,1.95a2.42,2.42,0,0,0,.37,1.4,1.34,1.34,0,0,0,1.18.52h4.48a1,1,0,0,0,1.18-1.18V27.75Z"/><path class="cls-1" d="M213.25,35.26a11,11,0,0,1-2.66-.3,5.45,5.45,0,0,1-2.11-1,4.64,4.64,0,0,1-1.38-1.84,7,7,0,0,1-.49-2.79V21.24h-2.5V17.4h2.5V11.67h5.26V17.4h5v3.84h-5v6.18a4.18,4.18,0,0,0,1,3,4.17,4.17,0,0,0,3.11,1h1v3.84Z"/><path class="cls-1" d="M219.31,11.67h5.26v3.85h-5.26Zm0,5.73h5.26V35.26h-5.26Z"/><polygon class="cls-1" points="236.35 22.17 226.35 35.26 232.49 35.26 236.4 29.44 240.31 35.26 246.44 35.26 236.35 22.17"/><polygon class="cls-1" points="232.86 17.4 226.86 17.4 234.96 28.12 237.93 24.22 232.86 17.4"/><polygon class="cls-1" points="245.94 17.4 239.94 17.4 237.36 21.07 240.32 24.95 245.94 17.4"/><path class="cls-1" d="M23.07,41.37h0L41.37,31v3.16L23.07,44.56h0l-.13-.08v5.94a4.86,4.86,0,0,0,2.59-.64L43.67,39.36a4.91,4.91,0,0,0,2.46-4.25V21.93L23.07,35.23l0,0-.11-.06V41.3Z"/><path class="cls-1" d="M46.13,15.73a5.06,5.06,0,0,0-.62-2.36l-4.18,2.39L23.07,26.16h0l-.14-.08v6l0,0,.1-.06L46.13,18.73Z"/><path class="cls-1" d="M35.48,6.63,31.53,4.28l-8.4,4.77L15,4.33,10.84,6.71a.35.35,0,0,0-.16.29.34.34,0,0,0,.16.29l7.67,4.36L11,15.9l4,2.47a.75.75,0,0,0,.75,0l7-4L30,18.47a.79.79,0,0,0,.73,0L35.13,16l-7.5-4.35,7.85-4.46a.37.37,0,0,0,.17-.29.34.34,0,0,0-.17-.29"/><path class="cls-1" d="M23,4.62c2,0,3.6-1,3.6-2.31S25,0,23,0s-3.6,1-3.6,2.31S21,4.62,23,4.62"/><path class="cls-1" d="M0,35.05a4.9,4.9,0,0,0,2.45,4.24L20.62,49.78a4.8,4.8,0,0,0,2.31.65V44.49L0,31.38Z"/><path class="cls-1" d="M22.93,26.08,5.09,15.83l5-2.82,2.43-1.38-5-3L5,10.07,2.44,11.53A5,5,0,0,0,.68,13.3,4.83,4.83,0,0,0,0,15.77V28.18L22.93,41.3V35.19L5.09,24.91V21.7L22.93,32Z"/><path class="cls-1" d="M43.73,11.53,38.29,8.3,33.47,11l7.81,4.69,0,0,4.18-2.39a4.83,4.83,0,0,0-1.78-1.84"/></g></g></svg>