<svg xmlns="http://www.w3.org/2000/svg" viewBox="0 0 394.78 81.28" data-ember-extension="1"><defs><style>.cls-1{fill:#e64d3c;}.cls-2{fill:#03618e;}.cls-3{fill:#e84d3d;}.cls-4{fill:#00618c;}</style></defs><title>Asset 4ico</title><g id="Layer_2" data-name="Layer 2"><g id="Layer_1-2" data-name="Layer 1"><polygon class="cls-1" points="163.25 79.08 163.25 69 164.9 69 164.9 77.67 169.17 77.67 169.17 79.08 163.25 79.08"/><polygon class="cls-1" points="178.59 79.08 172.88 79.08 172.88 69 178.59 69 178.59 70.39 174.53 70.39 174.53 73.14 178.33 73.14 178.33 74.51 174.53 74.51 174.53 77.68 178.59 77.68 178.59 79.08"/><path class="cls-1" d="M189,79.08l-1-2.8h-3.86l-1,2.8h-1.74L185.19,69H187l3.78,10.13Zm-1.44-4.22-.94-2.75c-.07-.18-.17-.47-.29-.87s-.21-.68-.25-.87a16.23,16.23,0,0,1-.55,1.86l-.91,2.63Z"/><path class="cls-1" d="M195.71,75.05v4h-1.65V69h2.85a4.64,4.64,0,0,1,2.89.73,2.6,2.6,0,0,1,.94,2.2,2.76,2.76,0,0,1-2,2.69l2.85,4.46h-1.87l-2.42-4Zm0-1.36h1.15a2.65,2.65,0,0,0,1.67-.43,1.58,1.58,0,0,0,.52-1.27,1.38,1.38,0,0,0-.56-1.23,3.09,3.09,0,0,0-1.69-.37h-1.09Z"/><path class="cls-1" d="M213.48,79.08h-2l-5-8h-.05l0,.45c.07.86.1,1.64.1,2.35v5.24h-1.5V69h2l5,8h0c0-.11,0-.49-.05-1.16s0-1.18,0-1.55V69h1.52Z"/><rect class="cls-1" x="218.12" y="68.99" width="1.65" height="10.09"/><path class="cls-1" d="M232.81,79.08h-2l-5-8h-.06l0,.45c.06.86.09,1.64.09,2.35v5.24h-1.49V69h2l4.94,8h0c0-.11,0-.49,0-1.16s0-1.18,0-1.55V69h1.51Z"/><path class="cls-1" d="M241.57,73.61h3.72v5.06a10.29,10.29,0,0,1-1.75.42,11.5,11.5,0,0,1-1.81.13,4.51,4.51,0,0,1-3.53-1.36A5.44,5.44,0,0,1,237,74a5.1,5.1,0,0,1,1.4-3.81,5.27,5.27,0,0,1,3.86-1.38,7.41,7.41,0,0,1,3,.61l-.58,1.37a5.76,5.76,0,0,0-2.45-.57,3.28,3.28,0,0,0-2.55,1,3.89,3.89,0,0,0-.94,2.77,4.16,4.16,0,0,0,.84,2.81,3.08,3.08,0,0,0,2.43,1,8.23,8.23,0,0,0,1.72-.19V75h-2.1Z"/><rect class="cls-2" x="263.16" y="67.02" width="0.64" height="14.26"/><rect class="cls-1" x="281.9" y="68.99" width="1.65" height="10.09"/><path class="cls-1" d="M296.59,79.08h-2l-5-8h-.05l0,.45c.07.86.1,1.64.1,2.35v5.24h-1.5V69h2l4.95,8h0c0-.11,0-.49-.06-1.16s0-1.18,0-1.55V69h1.51Z"/><polygon class="cls-1" points="302.87 79.08 301.23 79.08 301.23 69 306.92 69 306.92 70.39 302.87 70.39 302.87 73.54 306.67 73.54 306.67 74.94 302.87 74.94 302.87 79.08"/><path class="cls-1" d="M319.69,74a5.47,5.47,0,0,1-1.24,3.83,5.16,5.16,0,0,1-7,0,6.65,6.65,0,0,1,0-7.69A4.53,4.53,0,0,1,315,68.84a4.47,4.47,0,0,1,3.48,1.35A5.53,5.53,0,0,1,319.69,74M312,74a4.53,4.53,0,0,0,.75,2.83,3.07,3.07,0,0,0,4.45,0,4.61,4.61,0,0,0,.74-2.84,4.5,4.5,0,0,0-.74-2.81,2.61,2.61,0,0,0-2.21-1,2.68,2.68,0,0,0-2.24,1A4.5,4.5,0,0,0,312,74"/><rect class="cls-2" x="337.3" y="67.02" width="0.64" height="14.26"/><polygon class="cls-1" points="359.53 79.08 357.88 79.08 357.88 70.41 354.91 70.41 354.91 69 362.49 69 362.49 70.41 359.53 70.41 359.53 79.08"/><polygon class="cls-1" points="371.72 79.08 366.02 79.08 366.02 69 371.72 69 371.72 70.39 367.67 70.39 367.67 73.13 371.47 73.13 371.47 74.51 367.67 74.51 367.67 77.68 371.72 77.68 371.72 79.08"/><path class="cls-1" d="M380.17,70.26a2.72,2.72,0,0,0-2.23,1,5.25,5.25,0,0,0,0,5.59,2.76,2.76,0,0,0,2.26,1,5.61,5.61,0,0,0,1.24-.13c.4-.08.82-.19,1.25-.32v1.41a7.51,7.51,0,0,1-2.69.45,4.32,4.32,0,0,1-3.4-1.34A5.64,5.64,0,0,1,375.39,74a6.3,6.3,0,0,1,.57-2.76,4.1,4.1,0,0,1,1.67-1.8,5,5,0,0,1,2.56-.63,6.35,6.35,0,0,1,2.85.65l-.59,1.37a8.65,8.65,0,0,0-1.08-.42,4,4,0,0,0-1.2-.19"/><polygon class="cls-1" points="394.77 79.08 393.11 79.08 393.11 74.53 388.46 74.53 388.46 79.08 386.81 79.08 386.81 69 388.46 69 388.46 73.12 393.11 73.12 393.11 69 394.77 69 394.77 79.08"/><path class="cls-2" d="M90,48.93h21a3.46,3.46,0,0,0,1.51-.27,2,2,0,0,0,.81-.67,2,2,0,0,0,.32-.87,6,6,0,0,0,.06-.78,2.79,2.79,0,0,0-.6-1.75,4.59,4.59,0,0,0-2.32-1.33L95.92,38.84a7.6,7.6,0,0,1-5-3.83,15.27,15.27,0,0,1-1.35-6.75A14.91,14.91,0,0,1,90,24.37a7.85,7.85,0,0,1,1.54-3,7.12,7.12,0,0,1,2.7-2,10.23,10.23,0,0,1,4-.7h23.33v7.56H102.07a3.32,3.32,0,0,0-1.86.51,2.19,2.19,0,0,0-.78,2,2.78,2.78,0,0,0,.65,1.86,4.9,4.9,0,0,0,2.37,1.33l13.28,3.88a16,16,0,0,1,3.59,1.46,8.12,8.12,0,0,1,2.43,2.13,8.44,8.44,0,0,1,1.38,3,17.22,17.22,0,0,1,.43,4.05,16.7,16.7,0,0,1-.46,4.1,8.68,8.68,0,0,1-1.46,3.16,6.53,6.53,0,0,1-2.64,2,10,10,0,0,1-4.08.73H90Z"/><polygon class="cls-2" points="141.43 65.72 132.9 65.72 137.32 56.44 124.15 27.88 132.79 27.88 141.27 47.96 149.96 27.88 158.49 27.88 141.43 65.72"/><path class="cls-2" d="M160.65,50.34h15.87a2.49,2.49,0,0,0,1.4-.36,1.82,1.82,0,0,0,0-2.59,4.31,4.31,0,0,0-1.32-.8A11.74,11.74,0,0,0,175,46.1a14.53,14.53,0,0,1-1.51-.41l-5.83-1.78a18.78,18.78,0,0,1-3.38-1.32,7.91,7.91,0,0,1-2.23-1.7,6,6,0,0,1-1.27-2.3,10.58,10.58,0,0,1-.41-3.1q0-4,1.92-5.81t6-1.8H186V34H170.69a4.76,4.76,0,0,0-1.6.25c-.45.16-.67.57-.67,1.23a1.75,1.75,0,0,0,1.08,1.67,20.19,20.19,0,0,0,2.43,1l6.69,2c1.23.39,2.36.8,3.41,1.21A9.71,9.71,0,0,1,184.72,43a6.46,6.46,0,0,1,1.76,2.43,9.53,9.53,0,0,1,.62,3.67,8,8,0,0,1-1.7,5.54c-1.13,1.24-3,1.86-5.59,1.86H160.65Z"/><path class="cls-2" d="M204.54,56.49a17.32,17.32,0,0,1-4.27-.49,8.67,8.67,0,0,1-3.37-1.62,7.31,7.31,0,0,1-2.21-3A11.13,11.13,0,0,1,193.9,47V34h-4V27.88h4V18.7h8.43v9.18h8.09V34h-8.09v9.89a6.72,6.72,0,0,0,1.53,4.84q1.54,1.58,5,1.57h1.57v6.16Z"/><path class="cls-2" d="M224.35,56.49a16.57,16.57,0,0,1-5.59-.78,6.83,6.83,0,0,1-3.32-2.48,10.44,10.44,0,0,1-1.59-4.46,46.83,46.83,0,0,1-.41-6.69,33.14,33.14,0,0,1,.68-7.4,8.58,8.58,0,0,1,2.35-4.43A9,9,0,0,1,221,28.12a36.47,36.47,0,0,1,7.07-.56,42.67,42.67,0,0,1,6.26.4,11.31,11.31,0,0,1,4.56,1.62,7.4,7.4,0,0,1,2.81,3.48,15.81,15.81,0,0,1,.95,6,12,12,0,0,1-.22,2.32,5.48,5.48,0,0,1-.73,1.89,3.52,3.52,0,0,1-1.38,1.27,4.47,4.47,0,0,1-2.15.46H222a9.31,9.31,0,0,0,.25,2.28,3.67,3.67,0,0,0,.89,1.69,4,4,0,0,0,1.75,1,9.71,9.71,0,0,0,2.84.35h13.92v6.15Zm8.1-17.33c.75,0,1.2-.19,1.35-.58a3.29,3.29,0,0,0,.21-1.11,2.82,2.82,0,0,0-.56-1.78A4.54,4.54,0,0,0,232,34.53a6.89,6.89,0,0,0-1.92-.64,12.35,12.35,0,0,0-2.08-.18,7.39,7.39,0,0,0-4.56,1.16c-1,.78-1.49,2.21-1.49,4.29Z"/><path class="cls-2" d="M247.67,33.28a5.37,5.37,0,0,1,1.38-4.13,5.7,5.7,0,0,1,4-1.27h25.27a16.56,16.56,0,0,1,4.61.59,9.32,9.32,0,0,1,3.54,1.84,8.33,8.33,0,0,1,2.26,3.18,12.21,12.21,0,0,1,.81,4.7v18.3h-8.42V40.31a7.14,7.14,0,0,0-1.32-4.76Q278.5,34,275.26,34h-2.43V56.49h-8.42V34H258a1.67,1.67,0,0,0-1.89,1.9V56.49h-8.42Z"/><path class="cls-2" d="M314.29,27.88a8.42,8.42,0,0,1,6.56,2.51A9.33,9.33,0,0,1,323.14,37V51.09q0,5.4-5.4,5.4h-16q-3.88,0-5.48-2.24t-1.59-6.72a11.52,11.52,0,0,1,1.62-6.48c1.08-1.62,2.89-2.43,5.45-2.43h13V37.41q0-3.37-3.62-3.38H296.64V27.88ZM305.7,44.45c-1.69,0-2.53,1-2.53,3.13a3.76,3.76,0,0,0,.59,2.24,2.16,2.16,0,0,0,1.89.84h7.18a1.67,1.67,0,0,0,1.89-1.89V44.45Z"/><path class="cls-2" d="M341.61,56.49a17.32,17.32,0,0,1-4.27-.49A8.6,8.6,0,0,1,334,54.38a7.42,7.42,0,0,1-2.22-3A11.31,11.31,0,0,1,331,47V34h-4V27.88h4V18.7h8.42v9.18h8.1V34h-8.1v9.89a6.73,6.73,0,0,0,1.54,4.84q1.54,1.58,5,1.57h1.57v6.16Z"/><path class="cls-2" d="M351.32,18.7h8.42v6.15h-8.42Zm0,9.18h8.42V56.49h-8.42Z"/><polygon class="cls-2" points="378.62 35.52 362.6 56.49 372.43 56.49 378.69 47.15 384.95 56.49 394.78 56.49 378.62 35.52"/><polygon class="cls-2" points="373.02 27.88 363.41 27.88 376.39 45.04 381.14 38.8 373.02 27.88"/><polygon class="cls-1" points="393.97 27.88 384.36 27.88 380.24 33.76 384.97 39.97 393.97 27.88"/><path class="cls-3" d="M37,66.27h0l29.31-16.6,0,5.06L37,71.39h0l-.21-.11v9.51a7.91,7.91,0,0,0,4.14-1L70,63.05a7.85,7.85,0,0,0,3.94-6.81V35.13L37,56.44l0,0-.17-.09v9.78Z"/><path class="cls-3" d="M73.89,25.2a7.83,7.83,0,0,0-1-3.78l-6.7,3.82L37,41.9h0l-.21-.12v9.55l0,0,.16-.09L73.9,30Z"/><path class="cls-3" d="M56.84,10.62,50.51,6.86,37.05,14.5,24,6.94l-6.66,3.82a.52.52,0,0,0-.27.46.54.54,0,0,0,.27.46l12.28,7-12,6.82,6.46,3.95a1.19,1.19,0,0,0,1.21,0l11.27-6.37L48,29.58a1.2,1.2,0,0,0,1.16,0l7.14-3.93-12-7,12.56-7.15a.5.5,0,0,0,.27-.45.54.54,0,0,0-.26-.47"/><path class="cls-3" d="M36.81,7.41c3.18,0,5.77-1.66,5.77-3.71S40,0,36.81,0,31,1.66,31,3.7s2.58,3.71,5.77,3.71"/><path class="cls-4" d="M0,56.14A7.87,7.87,0,0,0,3.93,63L33,79.75a8,8,0,0,0,3.71,1V71.28L0,50.26Z"/><path class="cls-4" d="M36.74,41.78,8.15,25.36l8-4.52L20,18.64l-8-4.77-4,2.26-4,2.35A7.86,7.86,0,0,0,0,25.27V45.14l36.74,21V56.37L8.15,39.9l0-5.13L36.74,51.32Z"/><path class="cls-4" d="M70.05,18.47,61.34,13.3l-7.73,4.39,12.51,7.5.08,0,6.7-3.82a7.75,7.75,0,0,0-2.85-3"/></g></g></svg>