<?xml version="1.0" standalone="no"?>
<!DOCTYPE svg PUBLIC "-//W3C//DTD SVG 20010904//EN"
 "http://www.w3.org/TR/2001/REC-SVG-20010904/DTD/svg10.dtd">
<svg version="1.0" xmlns="http://www.w3.org/2000/svg"
 width="1750.000000pt" height="1750.000000pt" viewBox="0 0 1750.000000 1750.000000"
 preserveAspectRatio="xMidYMid meet">
<metadata>
Created by potrace 1.11, written by Peter Selinger 2001-2013
</metadata>
<g transform="translate(0.000000,1750.000000) scale(0.100000,-0.100000)"
fill="#000000" stroke="none">
<path d="M8530 17494 c-38 -6 -163 -25 -185 -29 -97 -18 -229 -58 -319 -97
-280 -122 -454 -283 -534 -496 -22 -57 -25 -83 -25 -177 0 -128 21 -198 96
-313 124 -191 406 -367 695 -433 26 -6 56 -13 67 -15 179 -41 522 -51 675 -19
14 3 41 8 60 11 19 3 43 7 52 10 10 3 30 7 45 10 118 21 367 130 478 210 210
150 317 323 322 524 3 138 -28 237 -112 355 -153 215 -490 393 -830 441 -16 2
-41 6 -55 10 -28 6 -392 13 -430 8z"/>
<path d="M11660 16005 c-7 -8 -16 -15 -20 -15 -5 0 -115 -61 -247 -136 -131
-75 -254 -145 -273 -155 -19 -11 -42 -23 -50 -29 -8 -5 -62 -36 -120 -68 -98
-56 -513 -291 -590 -335 -19 -11 -53 -30 -75 -42 -22 -13 -121 -69 -220 -125
-99 -57 -205 -116 -235 -133 -30 -16 -59 -33 -65 -37 -5 -4 -31 -19 -57 -34
-96 -53 -145 -80 -216 -123 -41 -24 -75 -43 -77 -43 -2 0 -54 -29 -116 -65
-61 -36 -113 -65 -115 -65 -2 0 -25 -13 -52 -29 -26 -15 -70 -41 -98 -56 -290
-165 -275 -157 -293 -141 -13 10 -233 139 -331 193 -14 8 -38 23 -55 33 -16
11 -37 23 -45 27 -8 4 -62 34 -120 68 -58 34 -145 85 -195 114 -49 29 -97 56
-105 61 -33 20 -622 361 -725 420 -60 34 -138 80 -172 101 -34 22 -65 39 -68
39 -3 0 -22 11 -43 23 -20 13 -113 68 -207 122 -311 180 -480 278 -510 296
-16 10 -37 22 -45 26 -8 4 -49 27 -90 52 -41 24 -79 44 -85 44 -10 0 -46 -20
-355 -198 -74 -42 -155 -89 -180 -102 -25 -14 -72 -41 -105 -61 -33 -19 -74
-43 -91 -53 -18 -9 -128 -73 -245 -140 -118 -67 -225 -129 -239 -136 -163 -91
-247 -143 -264 -166 -25 -33 -26 -95 -3 -130 13 -21 158 -109 367 -225 25 -14
137 -78 250 -142 113 -65 221 -126 240 -137 19 -10 86 -48 148 -83 62 -36 130
-74 150 -86 65 -36 122 -68 387 -219 143 -81 406 -231 585 -332 179 -101 332
-188 340 -193 8 -5 61 -35 118 -67 56 -32 102 -61 102 -64 0 -3 -26 -20 -57
-38 -32 -17 -71 -39 -88 -49 -16 -9 -66 -37 -110 -62 -44 -24 -89 -50 -100
-57 -11 -7 -26 -15 -34 -19 -8 -4 -58 -32 -110 -62 -53 -30 -148 -84 -211
-119 -63 -36 -135 -77 -160 -91 -25 -14 -60 -34 -77 -44 -18 -10 -50 -28 -70
-39 -21 -12 -58 -33 -83 -47 -25 -14 -112 -63 -195 -110 -82 -47 -165 -93
-183 -104 -18 -10 -66 -37 -105 -59 -40 -23 -85 -49 -102 -59 -16 -9 -57 -32
-90 -50 -107 -59 -219 -122 -245 -139 -14 -8 -27 -16 -30 -16 -3 0 -16 -8 -30
-16 -14 -9 -104 -60 -200 -114 -234 -131 -310 -176 -310 -184 0 -3 42 -31 93
-61 51 -30 126 -75 167 -101 152 -94 706 -433 730 -446 14 -8 45 -27 70 -43
25 -16 72 -45 105 -65 33 -20 101 -61 150 -91 122 -75 149 -85 220 -83 62 2
115 25 295 129 36 20 85 48 110 62 25 14 182 103 350 198 168 95 325 184 350
198 25 14 90 51 145 82 55 31 126 71 157 89 32 17 133 74 224 126 91 52 168
95 171 95 3 0 17 8 31 19 15 10 52 32 82 48 30 16 73 40 95 53 55 31 241 136
411 231 l141 79 169 -96 c93 -53 205 -117 249 -142 44 -25 109 -61 145 -82 36
-20 88 -49 115 -65 28 -15 79 -45 115 -65 78 -46 477 -273 540 -308 25 -14
119 -67 209 -119 89 -51 165 -93 168 -93 3 0 17 -8 31 -18 15 -11 56 -35 92
-54 36 -20 81 -45 100 -56 49 -29 226 -130 280 -160 25 -13 87 -49 139 -79
154 -90 186 -102 260 -99 60 2 77 8 186 68 176 96 433 237 485 266 25 14 70
38 100 55 30 16 114 62 185 102 72 40 191 105 265 146 74 41 144 79 155 86 11
6 43 23 70 37 28 14 77 42 110 61 33 20 71 40 84 46 13 5 22 11 20 13 -8 7
-161 96 -165 96 -3 0 -28 15 -57 33 -29 18 -77 47 -107 64 -30 17 -187 107
-349 202 -162 94 -295 171 -297 171 -1 0 -39 23 -84 50 -45 28 -83 50 -85 50
-3 0 -45 25 -95 55 -50 30 -92 55 -94 55 -2 0 -91 51 -197 113 -161 95 -334
194 -417 242 -10 6 -56 33 -102 60 -47 28 -101 59 -121 70 -163 91 -419 241
-419 246 0 5 135 85 280 166 36 21 439 250 690 393 80 45 161 92 180 103 19
10 100 56 180 102 80 45 181 103 225 127 44 25 96 55 115 65 19 11 85 49 145
83 61 35 225 128 365 207 448 255 547 313 565 333 23 26 25 98 4 131 -15 22
-105 83 -219 147 -19 11 -82 48 -140 82 -58 35 -152 91 -210 125 -58 34 -188
112 -290 172 -102 61 -259 154 -349 207 -90 53 -174 104 -186 112 -20 13 -24
13 -35 -1z"/>
<path d="M13885 14544 c-117 -68 -161 -93 -274 -156 -19 -11 -132 -75 -252
-144 -120 -68 -235 -133 -256 -144 -21 -12 -45 -25 -53 -31 -22 -13 -484 -275
-560 -317 -36 -19 -82 -46 -103 -59 l-39 -24 1033 -620 c568 -340 1035 -619
1037 -619 3 0 13 -6 21 -14 9 -7 36 -25 61 -38 43 -24 562 -337 567 -342 2 -2
-771 -446 -879 -505 -16 -9 -37 -21 -46 -26 -9 -6 -57 -33 -107 -61 -49 -29
-202 -116 -340 -194 -137 -79 -270 -154 -295 -168 -25 -14 -169 -96 -320 -182
-151 -87 -297 -170 -325 -185 -27 -16 -108 -62 -180 -103 -71 -41 -150 -86
-175 -100 -25 -14 -106 -60 -180 -102 -74 -43 -153 -88 -175 -100 -43 -24
-419 -239 -447 -255 -9 -5 -35 -20 -57 -32 -22 -12 -251 -142 -508 -289 -257
-147 -481 -275 -498 -284 -16 -9 -111 -63 -210 -120 -99 -56 -200 -114 -225
-128 -25 -14 -124 -70 -220 -125 -96 -54 -206 -117 -245 -139 -38 -21 -77 -43
-85 -48 -34 -19 -347 -199 -380 -217 -147 -82 -397 -227 -407 -235 -13 -11
-70 19 -361 189 -79 45 -145 83 -148 83 -3 0 -18 8 -32 18 -15 11 -52 33 -82
49 -30 17 -143 81 -250 143 -107 62 -215 124 -240 138 -25 14 -209 120 -410
235 -201 116 -384 221 -407 234 -23 12 -92 52 -153 88 -61 36 -113 65 -116 65
-3 0 -28 15 -57 33 -29 18 -88 53 -132 78 -44 24 -88 48 -97 54 -45 27 -137
80 -168 98 -19 11 -251 143 -515 295 -264 151 -493 283 -510 292 -16 10 -118
68 -225 130 -107 62 -321 184 -475 273 -339 194 -259 148 -740 424 -220 127
-524 301 -675 388 -151 86 -300 172 -330 190 -30 18 -72 42 -93 53 l-38 20 43
25 c256 147 469 267 473 267 3 0 18 8 33 19 15 10 169 99 342 196 173 98 353
200 398 226 46 27 86 49 87 49 2 0 26 13 53 29 26 15 68 39 93 53 24 14 107
61 184 105 77 44 165 94 195 110 30 17 109 62 175 100 66 38 127 72 135 76 8
4 31 17 50 28 19 11 95 55 168 96 l134 76 -44 27 c-47 30 -621 370 -678 402
-19 11 -55 32 -80 48 -25 15 -144 86 -265 157 -121 72 -323 192 -449 266
l-230 136 -30 -18 c-17 -10 -51 -30 -76 -43 -25 -14 -94 -54 -155 -88 -109
-62 -368 -209 -455 -258 -25 -13 -189 -108 -365 -210 -176 -102 -342 -199
-370 -214 -27 -16 -57 -33 -65 -38 -8 -5 -67 -40 -130 -76 -231 -135 -323
-203 -458 -342 -260 -267 -415 -593 -471 -992 -6 -38 -10 -994 -10 -2280 l-1
-2215 866 -495 c476 -272 877 -502 892 -510 40 -22 314 -179 332 -190 17 -11
403 -230 470 -268 25 -14 117 -67 205 -117 88 -51 178 -103 200 -115 22 -12
101 -57 175 -100 75 -43 156 -89 180 -103 25 -14 112 -64 194 -111 82 -47 151
-86 152 -86 2 0 33 -18 69 -40 36 -22 67 -40 69 -40 1 0 96 -54 211 -120 115
-66 210 -120 211 -120 2 0 33 -18 69 -40 36 -22 67 -40 69 -40 3 0 85 -47 183
-104 98 -57 268 -154 378 -217 110 -63 208 -118 217 -124 9 -5 34 -19 55 -31
21 -12 146 -83 278 -159 132 -76 258 -148 280 -161 22 -12 243 -137 490 -279
248 -142 468 -268 490 -280 22 -13 180 -103 350 -200 171 -98 330 -189 355
-203 25 -14 86 -48 135 -77 50 -29 108 -63 130 -75 94 -53 125 -71 210 -120
66 -38 94 -49 105 -42 8 5 141 80 295 167 315 178 442 250 598 339 120 68 155
88 242 136 33 18 65 36 70 40 6 4 35 21 65 37 30 17 71 40 90 51 19 12 42 25
50 29 8 4 87 48 176 98 88 51 167 95 175 99 8 4 23 12 34 19 11 7 45 26 75 43
119 68 437 248 480 272 25 14 164 93 310 175 146 83 312 177 370 209 58 32
112 62 120 67 19 12 212 122 260 147 19 11 36 22 38 27 2 4 7 7 12 7 6 0 150
79 252 139 18 11 49 29 69 39 20 11 121 68 225 128 104 59 214 121 244 137 30
17 88 50 128 74 41 24 75 43 77 43 2 0 41 22 87 48 46 26 90 51 98 55 8 4 31
17 50 28 19 11 112 64 205 116 94 53 182 104 197 114 15 11 29 19 31 19 2 0
85 46 183 101 98 56 199 113 224 127 25 14 77 43 115 65 39 22 89 50 111 63
23 13 117 66 209 119 92 52 169 95 172 95 2 0 20 11 41 23 20 13 63 38 95 56
l57 32 1 -138 c0 -76 1 -321 2 -545 l2 -408 -110 -61 c-60 -34 -121 -69 -135
-77 -14 -9 -26 -14 -26 -11 -1 2 -10 -3 -20 -12 -11 -9 -44 -29 -74 -45 -30
-15 -66 -35 -80 -45 -20 -13 -374 -214 -540 -307 -30 -16 -131 -74 -383 -219
-33 -18 -61 -33 -63 -33 -2 0 -37 -20 -77 -43 -39 -24 -166 -97 -282 -162
-115 -65 -282 -159 -370 -210 -88 -50 -167 -94 -175 -98 -8 -4 -24 -13 -35
-20 -11 -7 -58 -34 -105 -61 -47 -26 -98 -56 -115 -66 -16 -9 -64 -36 -105
-59 -41 -23 -82 -46 -90 -51 -13 -8 -70 -40 -190 -107 -19 -11 -136 -78 -260
-148 -124 -70 -290 -165 -370 -210 -80 -45 -280 -159 -445 -252 -165 -94 -317
-180 -338 -192 -21 -12 -71 -40 -110 -62 -40 -23 -88 -50 -107 -61 -55 -32
-181 -103 -223 -127 -21 -12 -71 -40 -110 -63 -40 -22 -101 -57 -137 -76 -36
-19 -72 -41 -81 -48 -8 -8 -19 -14 -22 -14 -4 0 -80 -42 -170 -93 -89 -52
-234 -134 -322 -184 -88 -50 -276 -156 -417 -237 -142 -80 -264 -146 -271
-146 -7 0 -17 4 -22 9 -6 5 -27 19 -47 30 -78 43 -126 71 -638 364 -289 165
-543 310 -565 323 -22 12 -238 136 -480 274 -242 139 -458 262 -480 274 -34
19 -336 191 -400 228 -80 47 -268 155 -305 176 -25 13 -86 49 -137 78 -51 30
-94 54 -97 54 -3 0 -30 16 -60 35 -30 19 -58 35 -61 35 -4 0 -26 14 -50 30
-24 17 -46 30 -49 30 -4 0 -95 51 -204 113 -108 63 -217 125 -242 139 -25 14
-99 56 -165 95 -66 38 -127 72 -135 76 -8 4 -31 17 -50 28 -38 23 -358 207
-430 247 -25 14 -58 34 -75 44 -16 10 -37 21 -45 25 -8 4 -75 42 -149 85 -73
43 -135 78 -136 78 -2 0 -81 45 -175 100 -95 55 -174 100 -176 100 -3 0 -21
11 -42 23 -20 13 -57 35 -82 49 -25 14 -126 72 -225 128 -99 57 -196 112 -215
123 -19 11 -201 115 -405 232 -203 116 -390 223 -415 237 -25 14 -216 123
-425 243 -209 120 -396 227 -415 237 -19 11 -53 30 -75 44 -22 13 -47 27 -55
31 -14 6 -145 81 -180 103 -8 5 -32 18 -53 30 l-38 20 4 -737 c3 -406 7 -749
10 -763 6 -28 14 -69 22 -115 71 -379 311 -764 630 -1008 64 -50 278 -187 290
-187 2 0 124 -70 272 -156 147 -86 293 -170 323 -187 30 -17 134 -76 230 -132
96 -56 357 -207 580 -335 223 -128 438 -253 477 -276 40 -24 75 -44 78 -44 2
0 29 -16 59 -35 30 -19 57 -35 60 -35 3 0 38 -20 78 -44 40 -23 179 -104 308
-178 129 -75 251 -145 270 -157 19 -11 42 -24 50 -28 8 -4 78 -44 155 -89 151
-88 502 -291 574 -332 25 -14 68 -38 95 -55 28 -16 76 -43 106 -60 30 -16 62
-35 70 -41 8 -7 26 -17 40 -24 14 -7 32 -16 40 -21 29 -19 296 -173 675 -391
17 -9 104 -60 195 -112 91 -53 182 -105 202 -116 20 -12 55 -32 77 -46 22 -15
43 -26 45 -26 2 0 53 -29 113 -64 156 -91 558 -323 623 -359 30 -16 66 -38 80
-47 14 -10 57 -34 95 -55 39 -21 81 -46 95 -55 14 -9 32 -20 40 -24 8 -3 38
-20 65 -36 115 -69 349 -168 437 -185 11 -2 27 -6 36 -9 9 -3 33 -8 52 -12 19
-3 42 -7 50 -9 8 -2 40 -6 70 -10 30 -4 66 -9 80 -11 29 -5 268 -5 320 1 248
25 508 111 720 237 19 11 251 144 515 296 264 151 539 309 610 350 72 42 173
100 225 130 52 30 111 63 130 74 19 12 51 29 70 40 19 11 49 27 65 37 17 10
93 54 170 98 77 45 156 90 175 102 19 11 46 26 60 33 14 7 42 23 63 36 34 21
89 52 152 86 11 6 27 16 35 22 8 7 40 25 70 41 114 62 125 68 128 76 2 4 7 7
11 7 4 0 63 32 132 72 196 113 310 178 358 206 25 13 67 38 93 53 27 16 51 29
54 29 2 0 23 11 45 26 22 14 55 33 72 43 18 10 109 62 202 116 187 107 206
118 303 174 37 21 202 116 367 211 380 218 350 201 420 240 33 18 65 36 70 40
6 4 26 17 45 27 19 11 127 73 240 138 113 65 219 126 235 135 23 13 391 224
610 350 263 151 518 297 547 314 204 115 431 332 567 541 124 191 232 472 256
664 3 22 8 60 11 84 7 44 12 4747 5 4747 -3 0 -200 -110 -266 -149 -16 -10
-136 -79 -265 -153 -129 -74 -257 -148 -285 -165 -27 -16 -57 -32 -65 -36 -8
-5 -24 -13 -35 -20 -11 -7 -56 -33 -100 -58 -130 -74 -607 -350 -640 -370 -16
-10 -46 -26 -65 -37 -19 -10 -163 -93 -320 -184 -157 -91 -361 -209 -455 -263
-93 -54 -260 -149 -369 -212 -109 -63 -213 -123 -230 -133 -17 -10 -87 -50
-156 -90 -69 -40 -143 -83 -165 -95 -22 -13 -245 -141 -495 -285 -250 -145
-662 -382 -915 -528 -253 -146 -473 -273 -490 -282 -16 -10 -59 -34 -95 -55
-36 -21 -78 -45 -95 -55 -16 -10 -75 -43 -130 -75 -55 -31 -113 -65 -130 -75
-16 -10 -68 -40 -115 -66 -47 -27 -94 -54 -105 -61 -11 -7 -26 -15 -34 -19
-16 -8 -347 -199 -371 -214 -16 -9 -321 -186 -400 -231 -50 -29 -368 -212
-415 -239 -16 -10 -104 -60 -195 -112 -91 -52 -187 -108 -215 -125 -27 -16
-57 -32 -65 -36 -8 -4 -33 -18 -55 -32 -22 -14 -47 -28 -55 -32 -8 -4 -59 -33
-113 -65 -54 -32 -101 -58 -104 -58 -2 0 -64 34 -136 77 -73 42 -148 85 -167
96 -19 10 -91 52 -160 92 -69 40 -145 84 -170 97 -42 24 -453 261 -530 306
-19 11 -51 29 -70 40 -36 20 -604 346 -630 362 -16 10 -176 102 -225 130 -16
10 -54 31 -83 49 -29 17 -54 31 -56 31 -3 0 -81 45 -156 90 -15 9 -337 194
-414 239 -23 12 -219 126 -436 251 -217 125 -412 237 -432 249 -64 36 -101 57
-156 90 -29 17 -57 31 -62 31 -6 0 -10 5 -10 10 0 6 -4 10 -10 10 -5 0 -47 22
-94 50 -47 27 -89 50 -95 50 -6 0 -11 3 -11 8 0 4 -10 12 -23 18 -12 6 -98 55
-192 108 -93 54 -183 106 -200 116 -16 9 -88 51 -160 92 -71 42 -146 85 -165
95 -19 11 -106 61 -193 111 -88 51 -160 92 -162 92 -2 0 -32 17 -66 38 -56 34
-695 402 -789 455 -134 75 -170 100 -170 121 0 11 -2 261 -4 553 l-3 532 56
-31 c31 -17 72 -41 91 -53 19 -12 56 -34 82 -48 26 -15 143 -82 260 -150 117
-68 317 -183 443 -256 127 -73 250 -145 275 -159 123 -72 432 -250 485 -279
28 -16 52 -31 53 -35 2 -5 7 -8 12 -8 4 0 79 -42 167 -93 87 -51 165 -96 173
-100 8 -4 29 -16 46 -26 17 -10 165 -96 330 -191 164 -95 311 -181 326 -191
15 -11 30 -19 32 -19 3 0 35 -18 71 -40 36 -22 67 -40 70 -40 3 0 34 -18 70
-40 36 -22 70 -40 75 -40 6 0 10 -5 10 -10 0 -6 3 -9 8 -8 4 1 18 -5 32 -13
45 -29 202 -119 207 -119 3 0 17 -8 31 -19 15 -10 50 -31 77 -46 78 -44 149
-85 165 -95 26 -16 378 -220 605 -350 64 -37 154 -89 250 -145 55 -32 115 -66
133 -77 52 -29 91 -52 187 -108 50 -29 110 -64 135 -78 25 -14 62 -36 82 -49
21 -12 40 -23 42 -23 2 0 49 -27 103 -59 90 -53 375 -218 463 -268 19 -11 153
-89 297 -172 l262 -152 93 54 c117 69 377 218 466 268 41 24 359 207 762 439
146 85 292 169 325 187 33 19 67 38 75 43 12 8 434 251 560 322 19 11 172 99
340 196 168 96 325 186 350 200 25 14 50 28 55 32 6 5 37 23 70 40 33 18 67
39 76 46 8 8 18 14 22 14 3 0 151 84 329 186 178 103 386 223 463 267 77 44
167 96 200 115 33 19 74 42 90 52 58 33 511 294 570 328 33 19 76 43 95 54
130 75 312 180 341 197 19 12 41 24 49 28 8 4 43 24 78 45 34 21 64 38 66 38
3 0 210 117 246 140 18 11 544 314 609 351 25 14 123 70 216 124 94 54 208
120 255 147 47 26 92 53 100 58 8 6 26 16 40 22 14 7 65 36 113 65 48 29 90
53 93 53 3 0 18 8 32 19 15 10 50 30 77 45 40 23 240 137 305 176 59 35 191
110 194 110 2 0 45 25 95 55 51 30 94 55 97 55 3 0 24 13 47 29 l42 29 -1 543
c-2 495 -6 665 -18 725 -2 12 -7 39 -10 60 -24 145 -84 321 -166 480 -48 94
-130 227 -149 244 -3 3 -26 31 -50 63 -95 124 -274 277 -450 383 -78 47 -540
322 -643 383 -15 9 -85 50 -155 92 -70 42 -189 112 -263 156 -74 44 -232 138
-350 208 -118 70 -224 133 -235 139 -11 6 -39 24 -62 39 -24 15 -44 27 -47 27
-2 0 -30 16 -62 35 -32 19 -60 35 -63 35 -3 -1 -64 -35 -136 -76z"/>
</g>
</svg>
