<?xml version="1.0"?>
<svg xmlns="http://www.w3.org/2000/svg" height="512px" viewBox="0 0 480 480" width="512px" class=""><g><g fill="#9bc9ff"><path d="m8 8h464v64h-464zm0 0" data-original="#000000" class="active-path" style="fill:#70D1EF" data-old_color="#70d1ef"/><path d="m80 344h64v80h-64zm0 0" data-original="#000000" class="active-path" style="fill:#70D1EF" data-old_color="#70d1ef"/><path d="m272 424v-176h-64v176zm0 0" data-original="#000000" class="active-path" style="fill:#70D1EF" data-old_color="#70d1ef"/><path d="m336 424v-224h-64v224zm0 0" data-original="#000000" class="active-path" style="fill:#70D1EF" data-old_color="#70d1ef"/><path d="m400 424v-272h-64v272zm0 0" data-original="#000000" class="active-path" style="fill:#70D1EF" data-old_color="#70d1ef"/><path d="m208 424v-128h-64v128zm0 0" data-original="#000000" class="active-path" style="fill:#70D1EF" data-old_color="#70d1ef"/></g><path d="m472 0h-464c-4.417969 0-8 3.582031-8 8v464c0 4.417969 3.582031 8 8 8h464c4.417969 0 8-3.582031 8-8v-464c0-4.417969-3.582031-8-8-8zm-456 16h448v48h-448zm448 448h-448v-384h448zm0 0" fill="#1e81ce" data-original="#1E81CE" class="" style="fill:#005F8B" data-old_color="#005f8b"/><path d="m32 32h16v16h-16zm0 0" fill="#1e81ce" data-original="#1E81CE" class="" style="fill:#005F8B" data-old_color="#005f8b"/><path d="m64 32h16v16h-16zm0 0" fill="#1e81ce" data-original="#1E81CE" class="" style="fill:#005F8B" data-old_color="#005f8b"/><path d="m96 32h16v16h-16zm0 0" fill="#1e81ce" data-original="#1E81CE" class="" style="fill:#005F8B" data-old_color="#005f8b"/><path d="m432 432v-16h-24v-272h-80v48h-64v48h-64v48h-64v48h-64v80h-24v16zm-88-272h48v256h-48zm-64 48h48v208h-48zm-64 48h48v160h-48zm-64 48h48v112h-48zm-64 48h48v64h-48zm0 0" fill="#1e81ce" data-original="#1E81CE" class="" style="fill:#005F8B" data-old_color="#005f8b"/><path d="m85.65625 301.65625 162.34375-162.34375v28.6875h16v-56h-56v16h28.6875l-162.34375 162.34375zm0 0" fill="#1e81ce" data-original="#1E81CE" class="" style="fill:#005F8B" data-old_color="#005f8b"/></g> </svg>
