<?xml version="1.0"?>
<svg xmlns="http://www.w3.org/2000/svg" height="512px" viewBox="0 0 497 497.24" width="512px" class=""><g><g fill="#ef7385"><path d="m488.121094 288c0 8.835938-7.164063 16-16 16-8.835938 0-16-7.164062-16-16s7.164062-16 16-16c8.835937 0 16 7.164062 16 16zm0 0" data-original="#000000" class="" style="fill:#005F8B" data-old_color="#005f8b"/><path d="m488.121094 352c0 8.835938-7.164063 16-16 16-8.835938 0-16-7.164062-16-16s7.164062-16 16-16c8.835937 0 16 7.164062 16 16zm0 0" data-original="#000000" class="" style="fill:#005F8B" data-old_color="#005f8b"/><path d="m488.121094 472c0 8.835938-7.164063 16-16 16-8.835938 0-16-7.164062-16-16s7.164062-16 16-16c8.835937 0 16 7.164062 16 16zm0 0" data-original="#000000" class="" style="fill:#005F8B" data-old_color="#005f8b"/><path d="m432.121094 408c0 8.835938-7.164063 16-16 16-8.835938 0-16-7.164062-16-16s7.164062-16 16-16c8.835937 0 16 7.164062 16 16zm0 0" data-original="#000000" class="" style="fill:#005F8B" data-old_color="#005f8b"/><path d="m40.121094 288c0 8.835938-7.164063 16-16 16-8.835938 0-16-7.164062-16-16s7.164062-16 16-16c8.835937 0 16 7.164062 16 16zm0 0" data-original="#000000" class="" style="fill:#005F8B" data-old_color="#005f8b"/><path d="m96.121094 408c0 8.835938-7.164063 16-16 16-8.835938 0-16-7.164062-16-16s7.164062-16 16-16c8.835937 0 16 7.164062 16 16zm0 0" data-original="#000000" class="" style="fill:#005F8B" data-old_color="#005f8b"/><path d="m40.121094 352c0 8.835938-7.164063 16-16 16-8.835938 0-16-7.164062-16-16s7.164062-16 16-16c8.835937 0 16 7.164062 16 16zm0 0" data-original="#000000" class="" style="fill:#005F8B" data-old_color="#005f8b"/><path d="m40.121094 472c0 8.835938-7.164063 16-16 16-8.835938 0-16-7.164062-16-16s7.164062-16 16-16c8.835937 0 16 7.164062 16 16zm0 0" data-original="#000000" class="" style="fill:#005F8B" data-old_color="#005f8b"/></g><path d="m440.121094 112c0 2.71875-.160156 5.359375-.320313 8l-.082031.558594c27.359375 3.679687 48.402344 27.042968 48.402344 55.441406 0 30.960938-25.042969 56-56 56h-32.082032c.082032-2.558594.082032-5.039062.082032-7.601562v-.398438l-152-104-152 104v.398438c0 2.5625 0 5.042968.078125 7.601562h-32.078125c-30.960938 0-56-25.039062-56-56s25.039062-56 56-56c2.71875 0 5.359375.160156 7.917968.640625l.082032-.640625c0-61.839844 50.160156-112 112-112 40.398437 0 75.917968 21.441406 95.597656 53.601562l.402344-.242187c15.917968-22.558594 42.238281-37.359375 72-37.359375 48.640625 0 88 39.359375 88 88zm0 0" fill="#e6e9ed" data-original="#E6E9ED" class="active-path" style="fill:#FFFFFF" data-old_color="#ffffff"/><path d="m395.71875 275.601562c-6 35.757813-18.480469 69.917969-36.320312 100.878907-6.320313 10.960937-13.277344 21.441406-20.878907 31.519531-11.839843 15.679688-25.28125 30.320312-40.078125 43.519531-15.28125 13.679688-32.160156 26-50.320312 36.480469-18.160156-10.480469-35.042969-22.800781-50.320313-36.480469-14.800781-13.199219-28.242187-27.839843-40.082031-43.519531-13.199219-17.359375-24.398438-36.160156-33.519531-56-11.199219-24.160156-19.199219-49.761719-23.679688-76.398438-2.480469-14.242187-3.917969-28.882812-4.320312-43.601562-.078125-2.558594-.078125-5.039062-.078125-7.601562v-.398438l152-104 152 104v.398438c0 2.5625 0 5.042968-.082032 7.601562-.398437 14.71875-1.839843 29.359375-4.320312 43.601562zm0 0" fill="#fcd770" data-original="#FCD770" class="" style="fill:#FFFFFF" data-old_color="#ffffff"/><path d="m248.121094 158.800781 119.519531 81.757813c-3.039063 49.839844-19.839844 97.28125-47.28125 137.601562l-9.757813 13.359375c-17.441406 22.480469-38.402343 42.480469-62.480468 58.71875-70-47.359375-114.480469-125.199219-119.519532-209.679687l35.839844-24.480469 13.277344-9.117187zm0 0" fill="#b4dd7f" data-original="#B4DD7F" class="" style="fill:#70D1EF" data-old_color="#70d1ef"/><path d="m200.121094 328v4c0 19.847656 16.152344 36 36 36h4v16h16v-16h4c19.847656 0 36-16.152344 36-36s-16.152344-36-36-36h-24c-11.03125 0-20-8.976562-20-20s8.96875-20 20-20h24c11.03125 0 20 8.976562 20 20v4h16v-4c0-19.847656-16.152344-36-36-36h-4v-16h-16v16h-4c-19.847656 0-36 16.152344-36 36s16.152344 36 36 36h24c11.03125 0 20 8.976562 20 20s-8.96875 20-20 20h-24c-11.03125 0-20-8.976562-20-20v-4zm0 0" data-original="#000000" class="" style="fill:#005F8B" data-old_color="#005f8b"/><path d="m248.121094 149.078125-74.953125 51.289063 9.03125 13.199218 65.921875-45.101562 111.199218 76.078125c-3.59375 46.03125-19.320312 90.578125-45.609374 129.082031l13.21875 9.023438c28.773437-42.152344 45.597656-91.128907 48.671874-141.640626l.269532-4.527343zm0 0" data-original="#000000" class="" style="fill:#005F8B" data-old_color="#005f8b"/><path d="m248.121094 440.527344c-63.953125-45.246094-105.167969-117.839844-111.21875-195.96875l32.027344-21.910156-9.035157-13.199219-39.542969 27.054687.273438 4.519532c5.183594 86.570312 51.167969 167.265624 123.015625 215.855468l4.480469 3.042969 4.488281-3.035156c24.328125-16.453125 45.976563-36.816407 64.320313-60.496094l-12.640626-9.796875c-16.183593 20.871094-35.058593 39-56.167968 53.933594zm0 0" data-original="#000000" class="" style="fill:#005F8B" data-old_color="#005f8b"/><path d="m404.808594 296h44.785156c3.308594 9.289062 12.109375 16 22.527344 16 13.230468 0 24-10.769531 24-24s-10.769532-24-24-24c-10.417969 0-19.21875 6.710938-22.527344 16h-38.160156l-7.296875-7.296875c1.703125-10.78125 2.878906-21.6875 3.449219-32.703125h24.535156c35.285156 0 64-28.710938 64-64 0-29.792969-20.488282-54.816406-48.097656-61.921875.015624-.695313.097656-1.375.097656-2.078125 0-52.9375-43.066406-96-96-96-27.640625 0-53.792969 12.007812-71.90625 32.488281-22.109375-29.496093-57.292969-48.488281-96.09375-48.488281-63.480469 0-115.457032 49.574219-119.59375 112.023438-.136719-.007813-.269532-.023438-.40625-.023438-35.289063 0-64 28.710938-64 64s28.710937 64 64 64h24.519531c.558594 11.023438 1.71875 21.9375 3.421875 32.734375l-7.253906 7.265625h-38.160156c-3.3125-9.289062-12.113282-16-22.527344-16-13.234375 0-24 10.769531-24 24s10.765625 24 24 24c10.414062 0 19.214844-6.710938 22.527344-16h44.785156l4.238281-4.238281c3.984375 17.910156 9.390625 35.414062 16.382813 52.238281h-65.40625c-3.3125-9.289062-12.113282-16-22.527344-16-13.234375 0-24 10.769531-24 24s10.765625 24 24 24c10.414062 0 19.214844-6.710938 22.527344-16h72.664062c6.703125 13.878906 14.40625 27.246094 23.0625 40h-39.734375c-3.3125-9.289062-12.113281-16-22.527344-16-13.234375 0-24 10.769531-24 24s10.765625 24 24 24c10.414063 0 19.214844-6.710938 22.527344-16h51.335937c10.113282 13.046875 21.335938 25.246094 33.457032 36.609375l-7.59375 11.390625h-133.191406c-3.3125-9.289062-12.113282-16-22.527344-16-13.234375 0-24 10.769531-24 24s10.765625 24 24 24c10.414062 0 19.214844-6.710938 22.527344-16h141.75l11.097656-16.648438c13.832031 11.679688 28.671875 22.335938 44.617187 31.570313l4.007813 2.316406 4.007812-2.316406c15.941406-9.234375 30.773438-19.890625 44.613282-31.570313l11.097656 16.648438h141.753906c3.308594 9.289062 12.109375 16 22.527344 16 13.230468 0 24-10.769531 24-24s-10.769532-24-24-24c-10.417969 0-19.21875 6.710938-22.527344 16h-133.195312l-7.597657-11.390625c12.121094-11.363281 23.335938-23.5625 33.4375-36.609375h51.347657c3.308593 9.289062 12.109374 16 22.527343 16 13.230469 0 24-10.769531 24-24s-10.769531-24-24-24c-10.417969 0-19.21875 6.710938-22.527343 16h-39.753907c8.65625-12.753906 16.359375-26.113281 23.054688-40h72.699219c3.308593 9.289062 12.109374 16 22.527343 16 13.230469 0 24-10.769531 24-24s-10.769531-24-24-24c-10.417969 0-19.21875 6.710938-22.527343 16h-65.441407c6.984375-16.824219 12.390625-34.335938 16.382813-52.273438zm67.3125-16c4.414062 0 8 3.59375 8 8s-3.585938 8-8 8c-4.417969 0-8-3.59375-8-8s3.582031-8 8-8zm-448 16c-4.417969 0-8-3.59375-8-8s3.582031-8 8-8c4.414062 0 8 3.59375 8 8s-3.585938 8-8 8zm0 64c-4.417969 0-8-3.59375-8-8s3.582031-8 8-8c4.414062 0 8 3.59375 8 8s-3.585938 8-8 8zm56 56c-4.417969 0-8-3.59375-8-8s3.582031-8 8-8c4.414062 0 8 3.59375 8 8s-3.585938 8-8 8zm-56 64c-4.417969 0-8-3.59375-8-8s3.582031-8 8-8c4.414062 0 8 3.59375 8 8s-3.585938 8-8 8zm448-16c4.414062 0 8 3.59375 8 8s-3.585938 8-8 8c-4.417969 0-8-3.59375-8-8s3.582031-8 8-8zm-56-64c4.414062 0 8 3.59375 8 8s-3.585938 8-8 8c-4.417969 0-8-3.59375-8-8s3.582031-8 8-8zm56-56c4.414062 0 8 3.59375 8 8s-3.585938 8-8 8c-4.417969 0-8-3.59375-8-8s3.582031-8 8-8zm-456-168c0-26.472656 21.527344-48 48-48 13.007812 0 25.175781 5.121094 34.285156 14.40625l11.425781-11.191406c-8.222656-8.398438-18.351562-14.167969-29.417969-17.054688 3.058594-54.625 48.339844-98.160156 103.707032-98.160156 51.421875 0 95.679687 38.320312 102.941406 89.136719l15.839844-2.265625c-2.070313-14.464844-6.757813-28.039063-13.503906-40.304688 15.136718-19.152344 38.195312-30.566406 62.722656-30.566406 44.109375 0 80 35.886719 80 80-17.34375 0-33.578125 6.824219-45.714844 19.214844l11.425781 11.191406c9.113281-9.285156 21.28125-14.40625 34.289063-14.40625 26.472656 0 48 21.527344 48 48s-21.527344 48-48 48h-24v-4.214844l-160-109.480468-156.511719 107.09375-3.488281 2.746093v3.855469h-24c-26.472656 0-48-21.527344-48-48zm232 302.710938c-87.753906-52.671876-142.511719-147.816407-143.96875-250.511719l143.96875-98.503907 143.976562 98.503907c-1.335937 102.488281-56.128906 197.785156-143.976562 250.511719zm0 0" data-original="#000000" class="" style="fill:#005F8B" data-old_color="#005f8b"/></g> </svg>
