<?xml version="1.0"?>
<svg xmlns="http://www.w3.org/2000/svg" height="512px" viewBox="0 0 496.008 496" width="512px" class=""><g><g fill="#f0bc5e"><path d="m248 72.003906h96v32h-96zm0 0" data-original="#000000" class="" style="fill:#005F8B" data-old_color="#005f8b"/><path d="m224 344.003906h48v144h-48zm0 0" data-original="#000000" class="" style="fill:#005F8B" data-old_color="#005f8b"/><path d="m288 376.003906h48v112h-48zm0 0" data-original="#000000" class="" style="fill:#005F8B" data-old_color="#005f8b"/><path d="m352 256.003906h48v232h-48zm0 0" data-original="#000000" class="" style="fill:#005F8B" data-old_color="#005f8b"/><path d="m416 216.003906h48v272h-48zm0 0" data-original="#000000" class="" style="fill:#005F8B" data-old_color="#005f8b"/></g><path d="m472 160.003906c-10.414062 0-19.214844 6.710938-22.527344 16h-66.953125c-3.3125-9.289062-12.113281-16-22.527343-16-13.230469 0-24 10.769532-24 24 0 6.023438 2.3125 11.472656 5.992187 15.695313l-49.90625 88.722656c-1.324219-.234375-2.679687-.417969-4.078125-.417969-3.039062 0-5.929688.625-8.617188 1.664063l-18.664062-21.777344c2.035156-3.519531 3.28125-7.542969 3.28125-11.886719 0-13.230468-10.769531-24-24-24-6.167969 0-11.742188 2.40625-16 6.238282v-46.429688c0-17.808594-11.457031-33.199219-28.503906-38.320312l-51.496094-15.441407v-12.230469c14.488281-10.144531 24-26.878906 24-45.816406v-21.542968c4.496094-4.167969 8.304688-9.167969 11.167969-14.890626l8.121093-16.230468-19.503906-6.503906c-8.128906-2.703126-15.839844-6.480469-22.960937-11.214844-9.433594-6.296875-20.390625-9.61718775-31.703125-9.61718775-31.496094 0-57.136719 25.61718775-57.152344 57.11328175l-.015625 24.246093c-.007813 14.59375 5.664063 28.3125 15.984375 38.632813 2.496094 2.496094 5.199219 4.710937 8.0625 6.65625v11.398437l-51.496094 15.449219c-17.046875 5.113281-28.503906 20.511719-28.503906 38.320312v80.183594h212.6875l-50.34375 50.34375 11.3125 11.3125 56.0625-56.0625c3.128906 1.503906 6.585938 2.40625 10.28125 2.40625 3.039062 0 5.929688-.625 8.617188-1.664062l18.664062 21.777344c-2.035156 3.519531-3.28125 7.542968-3.28125 11.886718 0 13.230469 10.769531 24 24 24s24-10.769531 24-24c0-6.023437-2.3125-11.472656-5.992188-15.695312l49.902344-88.71875c1.335938.230468 2.691406.414062 4.089844.414062 10.414062 0 19.214844-6.710937 22.527344-16h66.953125c3.3125 9.289063 12.113281 16 22.527343 16 13.230469 0 24-10.769531 24-24 0-13.230468-10.777343-24-24.007812-24zm-360.839844 40h1.671875l6.222657 56h-14.117188zm3.070313-16h-4.46875l-5.683594-17.039062c2.449219.648437 5.074219 1.039062 7.921875 1.039062s5.472656-.390625 7.910156-1.039062zm-1.109375-168c8.152344 0 16.039062 2.390625 22.832031 6.910156 8.285156 5.539063 17.292969 9.9375 26.765625 13.089844l2 .671875c-6.085938 11.929688-18.160156 19.328125-31.558594 19.328125-7.015625 0-13.824218-2.0625-19.664062-5.953125l-16.910156-11.277343-5.84375 2.917968c-5.511719 2.761719-11.476563 4.648438-17.566407 5.601563 4.417969-17.945313 20.65625-31.289063 39.945313-31.289063zm-41.160156 47.574219c8.070312-.863281 16.015624-3.023437 23.414062-6.382813l9.242188 6.167969c13.976562 9.3125 32.414062 10.953125 47.382812 5.113281v11.527344c0 22.054688-18.046875 40-40.230469 40h-1.203125c-10.320312 0-20.015625-4.015625-27.308594-11.3125-7.289062-7.296875-11.304687-17-11.296874-27.3125zm38.597656 72.425781h1.203125c5.644531 0 11.085937-.855468 16.230469-2.398437v8.191406c-1.976563 3.0625-7.488282 10.207031-15.992188 10.207031s-14.015625-7.144531-16-10.207031v-7.800781c4.6875 1.296875 9.566406 2.007812 14.558594 2.007812zm-94.558594 55.816406c0-10.6875 6.871094-19.921874 17.105469-22.992187l49.765625-14.929687 12.984375 38.960937-7.015625 63.144531h-24.839844v-64h-16v64h-32zm192 64.183594h-32v-64h-16v64h-24.839844l-7.015625-63.144531 12.984375-38.960937 49.765625 14.929687c10.234375 3.0625 17.105469 12.304687 17.105469 22.992187zm24 0c0-4.414062 3.585938-8 8-8s8 3.585938 8 8c0 4.417969-3.585938 8-8 8s-8-3.582031-8-8zm56 64c-4.414062 0-8-3.582031-8-8 0-4.414062 3.585938-8 8-8s8 3.585938 8 8c0 4.417969-3.585938 8-8 8zm72-128c-4.414062 0-8-3.582031-8-8 0-4.414062 3.585938-8 8-8s8 3.585938 8 8c0 4.417969-3.585938 8-8 8zm112 0c-4.414062 0-8-3.582031-8-8 0-4.414062 3.585938-8 8-8s8 3.585938 8 8c0 4.417969-3.585938 8-8 8zm0 0" data-original="#000000" class="" style="fill:#005F8B" data-old_color="#005f8b"/><path d="m176 480.003906h16v16h-16zm0 0" data-original="#000000" class="" style="fill:#005F8B" data-old_color="#005f8b"/><path d="m208 480.003906h288v16h-288zm0 0" data-original="#000000" class="" style="fill:#005F8B" data-old_color="#005f8b"/><path d="m480 .00390625h-128c-8.824219 0-16 7.17578175-16 15.99999975v16h-104c-8.824219 0-16 7.175782-16 16v80c0 8.824219 7.175781 16 16 16h24v32l42.664062-32h61.335938c8.824219 0 16-7.175781 16-16v-16h24v32l42.664062-32h37.335938c8.824219 0 16-7.175781 16-16v-80c0-8.824218-7.175781-15.99999975-16-15.99999975zm-120 127.99999975h-66.664062l-21.335938 16v-16h-40l-.015625-80h128.015625zm120-32h-42.664062l-21.335938 16v-16h-40v-48c0-8.824218-7.175781-16-16-16h-8v-16h128zm0 0" data-original="#000000" class="" style="fill:#005F8B" data-old_color="#005f8b"/><path d="m408 48.003906h16v16h-16zm0 0" data-original="#000000" class="" style="fill:#005F8B" data-old_color="#005f8b"/><path d="m440 48.003906h16v16h-16zm0 0" data-original="#000000" class="" style="fill:#005F8B" data-old_color="#005f8b"/><path d="m248 64.003906h96v16h-96zm0 0" data-original="#000000" class="" style="fill:#005F8B" data-old_color="#005f8b"/><path d="m248 96.003906h96v16h-96zm0 0" data-original="#000000" class="" style="fill:#005F8B" data-old_color="#005f8b"/><path d="m126.550781 496.003906h-45.109375l-4.050781-20.191406c-4.78125-1.511719-9.414063-3.441406-13.847656-5.746094l-17.144531 11.433594-31.894532-31.894531 11.433594-17.144531c-2.304688-4.441407-4.226562-9.074219-5.746094-13.847657l-20.191406-4.058593v-45.109376l20.191406-4.050781c1.511719-4.78125 3.441406-9.414062 5.746094-13.847656l-11.433594-17.144531 31.894532-31.894532 17.144531 11.433594c4.441406-2.304687 9.074219-4.226562 13.847656-5.746094l4.058594-20.191406h45.109375l4.050781 20.191406c4.78125 1.511719 9.414063 3.441407 13.847656 5.746094l17.144531-11.433594 31.894532 31.894532-11.433594 17.144531c2.304688 4.441406 4.226562 9.074219 5.746094 13.847656l20.191406 4.058594v45.109375l-20.191406 4.050781c-1.511719 4.78125-3.441406 9.414063-5.746094 13.847657l11.433594 17.144531-31.894532 31.894531-17.144531-11.433594c-4.441406 2.304688-9.074219 4.226563-13.847656 5.746094zm0 0" fill="#f0bc5e" data-original="#F0BC5E" class="active-path" style="fill:#70D1EF" data-old_color="#70d1ef"/><path d="m149.609375 424.429688-13.035156-9.28125c4.859375-6.824219 7.425781-14.824219 7.425781-23.144532 0-22.054687-17.945312-40-40-40-8.320312 0-16.320312 2.566406-23.144531 7.425782l-9.28125-13.035157c9.554687-6.796875 20.761719-10.390625 32.425781-10.390625 30.871094 0 56 25.128906 56 56 0 11.664063-3.59375 22.871094-10.390625 32.425782zm0 0" data-original="#000000" class="" style="fill:#005F8B" data-old_color="#005f8b"/><path d="m104 448.003906c-30.871094 0-56-25.128906-56-56 0-11.664062 3.59375-22.871094 10.390625-32.425781l13.035156 9.28125c-4.859375 6.824219-7.425781 14.824219-7.425781 23.144531 0 22.054688 17.945312 40 40 40 8.320312 0 16.320312-2.566406 23.144531-7.425781l9.28125 13.035156c-9.554687 6.796875-20.761719 10.390625-32.425781 10.390625zm0 0" data-original="#000000" class="" style="fill:#005F8B" data-old_color="#005f8b"/><path d="m104 416.003906c-13.230469 0-24-10.769531-24-24 0-13.230468 10.769531-24 24-24s24 10.769532 24 24c0 13.230469-10.769531 24-24 24zm0-32c-4.414062 0-8 3.585938-8 8 0 4.417969 3.585938 8 8 8s8-3.582031 8-8c0-4.414062-3.585938-8-8-8zm0 0" data-original="#000000" class="" style="fill:#005F8B" data-old_color="#005f8b"/></g> </svg>
