<svg xmlns="http://www.w3.org/2000/svg" viewBox="0 0 138.66 57.33"><defs><style>.cls-1{fill:#4d4d4f;}.cls-2{fill:#a33639;}</style></defs><title>Asset 18ico</title><g id="Layer_2" data-name="Layer 2"><g id="Layer_1-2" data-name="Layer 1"><path class="cls-1" d="M82.09,17.89a.16.16,0,0,1,0,.09A.18.18,0,0,1,82,18l-.15,0h-.45l-.15,0a.22.22,0,0,1-.07-.06.16.16,0,0,1,0-.09V8.77h0l-4,9.17a.1.1,0,0,1,0,.06l-.08.05-.13,0h-.36l-.13,0A.19.19,0,0,1,76.3,18a.06.06,0,0,1,0-.06L72.48,8.77h0v9.12a.16.16,0,0,1,0,.09.18.18,0,0,1-.08.06l-.15,0h-.46l-.14,0a.28.28,0,0,1-.08-.06.29.29,0,0,1,0-.09V8.43A.45.45,0,0,1,71.67,8a.51.51,0,0,1,.29-.1h.52a1.18,1.18,0,0,1,.34,0,.75.75,0,0,1,.45.32,1.71,1.71,0,0,1,.14.27l3.34,8h0l3.48-8a1.91,1.91,0,0,1,.16-.32,1.23,1.23,0,0,1,.19-.2A.61.61,0,0,1,80.83,8a1,1,0,0,1,.25,0h.57a.44.44,0,0,1,.15,0,.5.5,0,0,1,.14.08.56.56,0,0,1,.1.15.6.6,0,0,1,0,.24Z"/><path class="cls-1" d="M85.94,8.44a.68.68,0,0,1-.14.5.65.65,0,0,1-.48.14A.68.68,0,0,1,84.85,9a.73.73,0,0,1-.13-.51.7.7,0,0,1,.13-.5.68.68,0,0,1,.49-.14.71.71,0,0,1,.47.13A.78.78,0,0,1,85.94,8.44Zm-.14,9.45a.16.16,0,0,1,0,.09.22.22,0,0,1-.07.06l-.14,0H85.1L85,18a.14.14,0,0,1-.07-.06.15.15,0,0,1,0-.09V10.82a.15.15,0,0,1,0-.09.14.14,0,0,1,.07-.06l.14,0h.46l.14,0a.22.22,0,0,1,.07.06.16.16,0,0,1,0,.09Z"/><path class="cls-1" d="M93.34,16.84c0,.07,0,.12,0,.17l0,.13a.3.3,0,0,1,0,.1l-.13.14a1.94,1.94,0,0,1-.34.26,2.63,2.63,0,0,1-.53.27,4,4,0,0,1-.64.19,3.36,3.36,0,0,1-.71.08,3.19,3.19,0,0,1-1.31-.25,2.37,2.37,0,0,1-.94-.72A3.44,3.44,0,0,1,88.07,16a6.08,6.08,0,0,1-.2-1.62,5.7,5.7,0,0,1,.25-1.76,3.3,3.3,0,0,1,.68-1.21,2.65,2.65,0,0,1,1-.69A3.32,3.32,0,0,1,91,10.53a2.87,2.87,0,0,1,.67.07,3.15,3.15,0,0,1,.59.17,3.57,3.57,0,0,1,.48.25,2.87,2.87,0,0,1,.31.24,1.07,1.07,0,0,1,.13.15.24.24,0,0,1,.06.11l0,.14v.18a.58.58,0,0,1-.06.31.2.2,0,0,1-.15.09.5.5,0,0,1-.27-.14,3.49,3.49,0,0,0-1-.62,2.4,2.4,0,0,0-.85-.14,1.81,1.81,0,0,0-1.57.78,4,4,0,0,0-.55,2.26,5,5,0,0,0,.15,1.3,2.51,2.51,0,0,0,.43.93,1.71,1.71,0,0,0,.67.56,2.19,2.19,0,0,0,.9.18,2.16,2.16,0,0,0,.83-.15,3.25,3.25,0,0,0,.62-.33,5.47,5.47,0,0,0,.45-.32.47.47,0,0,1,.26-.15.11.11,0,0,1,.08,0,.18.18,0,0,1,.06.08.58.58,0,0,1,0,.14A1.11,1.11,0,0,1,93.34,16.84Z"/><path class="cls-1" d="M99.12,11.18v.2a1.3,1.3,0,0,1,0,.13.16.16,0,0,1,0,.08.09.09,0,0,1-.07,0,.68.68,0,0,1-.17,0l-.21-.07-.28-.08a1.69,1.69,0,0,0-.33,0,1,1,0,0,0-.41.09,1.48,1.48,0,0,0-.43.29,4.21,4.21,0,0,0-.46.52c-.17.22-.35.49-.55.81v4.78a.29.29,0,0,1,0,.09L96,18l-.14,0h-.45l-.14,0a.18.18,0,0,1-.08-.06.29.29,0,0,1,0-.09V10.82a.29.29,0,0,1,0-.09.18.18,0,0,1,.08-.06.4.4,0,0,1,.13,0h.44a.4.4,0,0,1,.13,0l.07.06a.29.29,0,0,1,0,.09v1.12a5.51,5.51,0,0,1,.56-.72,2.64,2.64,0,0,1,.49-.43,1.4,1.4,0,0,1,.46-.2,1.74,1.74,0,0,1,.45-.06h.24a1.51,1.51,0,0,1,.28.05l.28.07a.68.68,0,0,1,.17.08l.06.06a.14.14,0,0,1,0,.07.37.37,0,0,1,0,.12Z"/><path class="cls-1" d="M106.67,14.28a5.21,5.21,0,0,1-.22,1.56,3.45,3.45,0,0,1-.65,1.23,3,3,0,0,1-1.08.82,3.73,3.73,0,0,1-1.51.29,3.83,3.83,0,0,1-1.45-.26,2.93,2.93,0,0,1-1-.75A3.07,3.07,0,0,1,100.1,16a5.9,5.9,0,0,1,0-3.12,3.53,3.53,0,0,1,.65-1.23,2.86,2.86,0,0,1,1.09-.81,3.7,3.7,0,0,1,1.51-.29,3.79,3.79,0,0,1,1.45.26,2.79,2.79,0,0,1,1,.74,3.36,3.36,0,0,1,.62,1.19A5.35,5.35,0,0,1,106.67,14.28Zm-1,.09a5.34,5.34,0,0,0-.12-1.15,2.9,2.9,0,0,0-.39-1,1.89,1.89,0,0,0-.74-.66,2.43,2.43,0,0,0-1.14-.25,2.48,2.48,0,0,0-1.1.23,1.92,1.92,0,0,0-.75.63,2.59,2.59,0,0,0-.43,1,4.43,4.43,0,0,0-.15,1.18,5.5,5.5,0,0,0,.12,1.16,2.85,2.85,0,0,0,.39,1,1.89,1.89,0,0,0,.74.66,2.45,2.45,0,0,0,1.15.24,2.34,2.34,0,0,0,1.09-.23,2,2,0,0,0,.75-.62,2.77,2.77,0,0,0,.44-.95A4.89,4.89,0,0,0,105.69,14.37Z"/><path class="cls-1" d="M112.91,16a2.21,2.21,0,0,1-.18.91,2,2,0,0,1-.54.68,2.42,2.42,0,0,1-.83.43,3.59,3.59,0,0,1-1.07.15,3.88,3.88,0,0,1-.7-.06A4.22,4.22,0,0,1,109,18a2.43,2.43,0,0,1-.45-.19l-.27-.18a.39.39,0,0,1-.12-.19,1,1,0,0,1,0-.32,1.09,1.09,0,0,1,0-.18c0-.05,0-.09,0-.13a.28.28,0,0,1,.06-.08l.09,0a.55.55,0,0,1,.25.11L109,17a5.1,5.1,0,0,0,.59.24,2.57,2.57,0,0,0,.78.11,2.71,2.71,0,0,0,.66-.08,1.34,1.34,0,0,0,.51-.24,1,1,0,0,0,.34-.4,1.26,1.26,0,0,0,.12-.57,1,1,0,0,0-.15-.56,1.53,1.53,0,0,0-.41-.39,3.49,3.49,0,0,0-.58-.3l-.66-.26-.67-.31a2.56,2.56,0,0,1-.58-.39,2,2,0,0,1-.41-.57,2,2,0,0,1,0-1.51,1.77,1.77,0,0,1,.43-.63,2.32,2.32,0,0,1,.75-.46,3.22,3.22,0,0,1,1.08-.17,4.55,4.55,0,0,1,.53,0,3.37,3.37,0,0,1,.48.12,1.79,1.79,0,0,1,.37.15l.24.14a1.11,1.11,0,0,1,.11.11.32.32,0,0,1,0,.09.36.36,0,0,1,0,.11.81.81,0,0,1,0,.16.91.91,0,0,1,0,.17l0,.13a.28.28,0,0,1-.06.08.14.14,0,0,1-.09,0,.36.36,0,0,1-.18-.09c-.09,0-.2-.12-.33-.18a3.35,3.35,0,0,0-.49-.19,2.06,2.06,0,0,0-.64-.09,2.13,2.13,0,0,0-.65.09,1.43,1.43,0,0,0-.46.24,1,1,0,0,0-.27.37,1.34,1.34,0,0,0-.08.46,1.06,1.06,0,0,0,.15.58,1.46,1.46,0,0,0,.42.4,2.89,2.89,0,0,0,.58.31l.67.26c.23.09.45.19.67.3a2.33,2.33,0,0,1,.58.38,1.65,1.65,0,0,1,.42.55A1.75,1.75,0,0,1,112.91,16Z"/><path class="cls-1" d="M121.2,14.28a5.21,5.21,0,0,1-.22,1.56,3.45,3.45,0,0,1-.65,1.23,3,3,0,0,1-1.08.82,3.73,3.73,0,0,1-1.51.29,3.83,3.83,0,0,1-1.45-.26,2.93,2.93,0,0,1-1-.75,3.21,3.21,0,0,1-.62-1.19,5.38,5.38,0,0,1-.21-1.57,5.09,5.09,0,0,1,.22-1.55,3.51,3.51,0,0,1,.64-1.23,2.86,2.86,0,0,1,1.09-.81,3.7,3.7,0,0,1,1.51-.29,3.79,3.79,0,0,1,1.45.26,2.71,2.71,0,0,1,1,.74,3.36,3.36,0,0,1,.62,1.19A5.35,5.35,0,0,1,121.2,14.28Zm-1,.09a5.34,5.34,0,0,0-.12-1.15,2.9,2.9,0,0,0-.39-1,1.94,1.94,0,0,0-.73-.66,2.48,2.48,0,0,0-1.15-.25,2.51,2.51,0,0,0-1.1.23,2.08,2.08,0,0,0-.75.63,2.59,2.59,0,0,0-.43,1,4.44,4.44,0,0,0-.14,1.18,5.5,5.5,0,0,0,.11,1.16,2.85,2.85,0,0,0,.39,1,2,2,0,0,0,.74.66,2.48,2.48,0,0,0,1.15.24,2.34,2.34,0,0,0,1.09-.23,2,2,0,0,0,.75-.62,2.77,2.77,0,0,0,.44-.95A4.89,4.89,0,0,0,120.22,14.37Z"/><path class="cls-1" d="M124.54,11.44v6.45a.29.29,0,0,1,0,.09l-.08.06-.14,0h-.45l-.15,0a.22.22,0,0,1-.07-.06.29.29,0,0,1,0-.09V11.44h-1.06a.19.19,0,0,1-.17-.09.61.61,0,0,1-.06-.3.47.47,0,0,1,0-.17.5.5,0,0,1,0-.13.16.16,0,0,1,.07-.07.16.16,0,0,1,.1,0h1.06V9.85a5.08,5.08,0,0,1,.13-1.26,2.21,2.21,0,0,1,.4-.86,1.55,1.55,0,0,1,.68-.47,2.75,2.75,0,0,1,1-.15,2.48,2.48,0,0,1,.54.06,1.69,1.69,0,0,1,.37.11.49.49,0,0,1,.15.09.3.3,0,0,1,.07.11.57.57,0,0,1,0,.14,1.09,1.09,0,0,1,0,.18.87.87,0,0,1,0,.18l0,.11a.12.12,0,0,1,0,.05l-.06,0a.48.48,0,0,1-.15,0L126.43,8l-.3-.09a2.54,2.54,0,0,0-.41,0,1.34,1.34,0,0,0-.56.1.79.79,0,0,0-.36.34,1.7,1.7,0,0,0-.2.59,5.52,5.52,0,0,0-.06.88v.84H128V8.92a.11.11,0,0,1,0-.08.16.16,0,0,1,.07-.07.39.39,0,0,1,.14,0h.45a.39.39,0,0,1,.14,0,.19.19,0,0,1,.08.07.19.19,0,0,1,0,.08v1.74h2a.16.16,0,0,1,.1,0,.18.18,0,0,1,.08.07.5.5,0,0,1,0,.13.88.88,0,0,1,0,.17.61.61,0,0,1-.06.3.21.21,0,0,1-.18.09h-2v4.28a2.64,2.64,0,0,0,.23,1.22.87.87,0,0,0,.84.43,1.67,1.67,0,0,0,.34,0l.27-.09.2-.08a.34.34,0,0,1,.15,0H131s0,0,0,.06l0,.11s0,.1,0,.17a.88.88,0,0,1,0,.26.48.48,0,0,1-.08.16.56.56,0,0,1-.17.11,1,1,0,0,1-.26.09l-.31.05a1.77,1.77,0,0,1-.32,0A2.36,2.36,0,0,1,129,18a1.31,1.31,0,0,1-.6-.42,1.71,1.71,0,0,1-.34-.73,4.39,4.39,0,0,1-.11-1v-4.4Z"/><path class="cls-1" d="M138.66,10.06a2.84,2.84,0,0,1-.23,1.17,2.92,2.92,0,0,1-.63.95,3.1,3.1,0,0,1-.94.63,3,3,0,0,1-1.17.23,3.22,3.22,0,0,1-1.18-.22,2.86,2.86,0,0,1-.93-.62,2.7,2.7,0,0,1-.6-.94,3.06,3.06,0,0,1-.22-1.18A2.84,2.84,0,0,1,133,8.91a2.92,2.92,0,0,1,1.57-1.57,3.18,3.18,0,0,1,2.35,0,2.86,2.86,0,0,1,.93.62,2.69,2.69,0,0,1,.61.93A3.25,3.25,0,0,1,138.66,10.06Zm-.57,0a2.73,2.73,0,0,0-.18-1,2.27,2.27,0,0,0-.5-.79,2.17,2.17,0,0,0-.75-.51,2.6,2.6,0,0,0-.93-.17,2.38,2.38,0,0,0-1,.19,2.31,2.31,0,0,0-.76.53,2.27,2.27,0,0,0-.48.77,2.4,2.4,0,0,0-.17.93,2.61,2.61,0,0,0,.18,1,2.35,2.35,0,0,0,.49.79,2,2,0,0,0,.75.5,2.58,2.58,0,0,0,1.92,0,2.31,2.31,0,0,0,.76-.53,2.44,2.44,0,0,0,.48-.77A2.6,2.6,0,0,0,138.09,10.11Zm-1,1.46a.43.43,0,0,1,0,0,.07.07,0,0,1-.05,0l-.11,0h-.39l-.12,0a.16.16,0,0,1-.08-.05.19.19,0,0,1,0-.09l-.17-.55a1,1,0,0,0-.25-.44.71.71,0,0,0-.45-.12h-.22v1.15a.13.13,0,0,1,0,.11.75.75,0,0,1-.27,0,.81.81,0,0,1-.28,0,.11.11,0,0,1-.06-.11V8.67a.36.36,0,0,1,.07-.24.29.29,0,0,1,.23-.09h.84a1.93,1.93,0,0,1,.57.07,1.08,1.08,0,0,1,.39.18.76.76,0,0,1,.23.3,1,1,0,0,1,.07.39.78.78,0,0,1-.2.59,1.08,1.08,0,0,1-.55.29,1.2,1.2,0,0,1,.35.22,1.3,1.3,0,0,1,.29.46l.2.53A.86.86,0,0,1,137.09,11.57Zm-.87-2.21a.57.57,0,0,0,0-.18.33.33,0,0,0-.1-.14.43.43,0,0,0-.19-.1,1.3,1.3,0,0,0-.31,0h-.39v.95h.38a.71.71,0,0,0,.5-.14A.49.49,0,0,0,136.22,9.36Z"/><path class="cls-1" d="M82.36,40.67a5.54,5.54,0,0,1,.16.59.34.34,0,0,1-.09.32.63.63,0,0,1-.4.13c-.19,0-.45,0-.79,0l-.81,0a2.13,2.13,0,0,1-.45-.06.36.36,0,0,1-.21-.13.68.68,0,0,1-.11-.21l-.89-2.67h-5L73,41.25a.88.88,0,0,1-.11.24.49.49,0,0,1-.21.15,1.37,1.37,0,0,1-.43.08l-.71,0a7.12,7.12,0,0,1-.74,0,.58.58,0,0,1-.37-.15.43.43,0,0,1-.07-.33,2.73,2.73,0,0,1,.16-.58l4.09-11.77a1,1,0,0,1,.14-.28.56.56,0,0,1,.26-.17,2.59,2.59,0,0,1,.5-.07h1.81a3.11,3.11,0,0,1,.55.07.57.57,0,0,1,.29.17,1,1,0,0,1,.15.31Zm-6.09-9.73h0l-1.88,5.64h3.77Z"/><path class="cls-1" d="M91,39.87c0,.18,0,.33,0,.45a2,2,0,0,1,0,.3,1.67,1.67,0,0,1-.06.2,1.05,1.05,0,0,1-.16.2,2,2,0,0,1-.42.28,3.88,3.88,0,0,1-.68.31,4.91,4.91,0,0,1-.82.21,4.7,4.7,0,0,1-.92.08A5.12,5.12,0,0,1,86,41.58a3.56,3.56,0,0,1-1.37-1A4.3,4.3,0,0,1,83.79,39a7.14,7.14,0,0,1-.28-2.11,7.24,7.24,0,0,1,.34-2.37,4.57,4.57,0,0,1,1-1.66,3.78,3.78,0,0,1,1.46-1,5,5,0,0,1,1.84-.32,4.28,4.28,0,0,1,.81.07,4.22,4.22,0,0,1,.74.2,3.85,3.85,0,0,1,.61.27,1.82,1.82,0,0,1,.39.27,1.15,1.15,0,0,1,.16.19.77.77,0,0,1,.07.2c0,.08,0,.18,0,.3s0,.27,0,.44a2.33,2.33,0,0,1-.1.83q-.11.24-.27.24a.59.59,0,0,1-.36-.14c-.13-.1-.29-.2-.47-.32a4.09,4.09,0,0,0-.63-.32,2.58,2.58,0,0,0-.88-.14,1.76,1.76,0,0,0-1.54.77,4,4,0,0,0-.53,2.28,5.66,5.66,0,0,0,.13,1.3,2.89,2.89,0,0,0,.39.94,1.8,1.8,0,0,0,.66.57,2,2,0,0,0,.92.19,2.36,2.36,0,0,0,.92-.16,3.51,3.51,0,0,0,.67-.35,6,6,0,0,0,.48-.36.62.62,0,0,1,.33-.16.2.2,0,0,1,.15.06.36.36,0,0,1,.1.19c0,.09,0,.21.06.35S91,39.65,91,39.87Z"/><path class="cls-1" d="M99.77,39.87c0,.18,0,.33,0,.45s0,.22,0,.3a.77.77,0,0,1-.07.2.68.68,0,0,1-.15.2,2.46,2.46,0,0,1-.43.28,3.47,3.47,0,0,1-.67.31,5,5,0,0,1-.83.21,4.57,4.57,0,0,1-.92.08,5.2,5.2,0,0,1-1.87-.32,3.64,3.64,0,0,1-1.37-1A4.44,4.44,0,0,1,92.58,39a7.14,7.14,0,0,1-.28-2.11,7.24,7.24,0,0,1,.34-2.37,4.57,4.57,0,0,1,1-1.66,3.71,3.71,0,0,1,1.46-1,5,5,0,0,1,1.84-.32,4.43,4.43,0,0,1,.81.07,3.89,3.89,0,0,1,.73.2,4,4,0,0,1,.62.27,1.5,1.5,0,0,1,.38.27.8.8,0,0,1,.16.19.76.76,0,0,1,.08.2c0,.08,0,.18,0,.3s0,.27,0,.44a2.33,2.33,0,0,1-.1.83q-.1.24-.27.24a.61.61,0,0,1-.37-.14l-.46-.32a4.61,4.61,0,0,0-.63-.32A2.6,2.6,0,0,0,97,33.7a1.74,1.74,0,0,0-1.53.77,4,4,0,0,0-.54,2.28,5.63,5.63,0,0,0,.14,1.3,2.69,2.69,0,0,0,.39.94,1.65,1.65,0,0,0,.66.57,2,2,0,0,0,.92.19,2.28,2.28,0,0,0,.91-.16,3.23,3.23,0,0,0,.67-.35,4.84,4.84,0,0,0,.49-.36.59.59,0,0,1,.32-.16.21.21,0,0,1,.16.06.36.36,0,0,1,.1.19,2.43,2.43,0,0,1,0,.35A4.36,4.36,0,0,1,99.77,39.87Z"/><path class="cls-1" d="M110.09,36.49a1,1,0,0,1-.21.7.76.76,0,0,1-.58.22h-5.57a3.83,3.83,0,0,0,.14,1.06,2,2,0,0,0,.44.81,1.77,1.77,0,0,0,.78.51,3.25,3.25,0,0,0,1.14.18,6.87,6.87,0,0,0,1.19-.1,8.91,8.91,0,0,0,.89-.22l.62-.21a1.05,1.05,0,0,1,.4-.1.24.24,0,0,1,.15,0,.2.2,0,0,1,.1.12.83.83,0,0,1,.06.27c0,.11,0,.25,0,.42s0,.28,0,.39l0,.27a.84.84,0,0,1-.07.19.65.65,0,0,1-.1.15,1.63,1.63,0,0,1-.37.19,6.34,6.34,0,0,1-.76.24,8.72,8.72,0,0,1-2.32.29,6.87,6.87,0,0,1-2.14-.3,3.88,3.88,0,0,1-1.54-.94,3.78,3.78,0,0,1-.91-1.58,7.41,7.41,0,0,1-.31-2.23,7.17,7.17,0,0,1,.32-2.2,4.48,4.48,0,0,1,.93-1.66,3.86,3.86,0,0,1,1.47-1,5.63,5.63,0,0,1,3.91,0,3.35,3.35,0,0,1,1.34.94,3.62,3.62,0,0,1,.77,1.42,5.94,5.94,0,0,1,.25,1.78Zm-2.5-.74a2.69,2.69,0,0,0-.44-1.71,1.69,1.69,0,0,0-1.44-.62,1.94,1.94,0,0,0-.86.19,1.71,1.71,0,0,0-.6.5,2.09,2.09,0,0,0-.37.73,3.4,3.4,0,0,0-.15.91Z"/><path class="cls-1" d="M118.65,38.75a3.17,3.17,0,0,1-.29,1.37,2.66,2.66,0,0,1-.83,1,3.51,3.51,0,0,1-1.26.6,5.65,5.65,0,0,1-1.58.2,6.19,6.19,0,0,1-1-.07,5.33,5.33,0,0,1-.83-.2,5.07,5.07,0,0,1-.62-.24,1.73,1.73,0,0,1-.36-.23.72.72,0,0,1-.17-.34,2.86,2.86,0,0,1-.06-.68,3.25,3.25,0,0,1,0-.48.9.9,0,0,1,.06-.28.3.3,0,0,1,.1-.15.35.35,0,0,1,.16,0,.74.74,0,0,1,.33.13l.55.28a5.08,5.08,0,0,0,.76.28,3.33,3.33,0,0,0,1,.14,2.86,2.86,0,0,0,.62-.07,1.56,1.56,0,0,0,.47-.21.84.84,0,0,0,.31-.34,1.12,1.12,0,0,0,.1-.47.84.84,0,0,0-.19-.53,2,2,0,0,0-.5-.38,6.85,6.85,0,0,0-.71-.31c-.27-.1-.54-.2-.81-.32a6.09,6.09,0,0,1-.81-.4,2.94,2.94,0,0,1-.71-.55,2.37,2.37,0,0,1-.5-.79,2.87,2.87,0,0,1-.19-1.11,2.77,2.77,0,0,1,.25-1.2,2.6,2.6,0,0,1,.74-.94,3.65,3.65,0,0,1,1.18-.61,5.33,5.33,0,0,1,1.55-.21,5.73,5.73,0,0,1,.84.06,6.24,6.24,0,0,1,.73.15,4.74,4.74,0,0,1,.55.2l.33.19a.44.44,0,0,1,.13.15.84.84,0,0,1,.07.19c0,.07,0,.16,0,.26s0,.24,0,.4,0,.33,0,.45a1.43,1.43,0,0,1-.05.28.25.25,0,0,1-.24.17.76.76,0,0,1-.29-.11c-.13-.07-.29-.15-.48-.23a6,6,0,0,0-.68-.23,3.36,3.36,0,0,0-.88-.11,2.13,2.13,0,0,0-.6.08,1,1,0,0,0-.42.2.82.82,0,0,0-.25.31,1,1,0,0,0-.08.39.75.75,0,0,0,.19.53,1.8,1.8,0,0,0,.52.38,6.21,6.21,0,0,0,.72.31c.27.09.54.2.82.31a6.89,6.89,0,0,1,.82.4,3,3,0,0,1,.72.55,2.87,2.87,0,0,1,.52.78A3,3,0,0,1,118.65,38.75Z"/><path class="cls-1" d="M127,38.75a3,3,0,0,1-.3,1.37,2.63,2.63,0,0,1-.82,1,3.68,3.68,0,0,1-1.26.6,5.7,5.7,0,0,1-1.58.2,6.19,6.19,0,0,1-1-.07,5.77,5.77,0,0,1-.84-.2,4.86,4.86,0,0,1-.61-.24,1.32,1.32,0,0,1-.36-.23.64.64,0,0,1-.17-.34,2.35,2.35,0,0,1-.07-.68c0-.2,0-.36,0-.48a1.26,1.26,0,0,1,.07-.28.25.25,0,0,1,.1-.15.33.33,0,0,1,.15,0,.73.73,0,0,1,.34.13l.54.28a5.23,5.23,0,0,0,.77.28,3.33,3.33,0,0,0,1,.14,2.86,2.86,0,0,0,.62-.07,1.56,1.56,0,0,0,.47-.21.89.89,0,0,0,.3-.34,1,1,0,0,0,.1-.47.78.78,0,0,0-.19-.53,1.69,1.69,0,0,0-.5-.38,6,6,0,0,0-.71-.31c-.26-.1-.53-.2-.8-.32a6.89,6.89,0,0,1-.82-.4,3.09,3.09,0,0,1-.7-.55,2.56,2.56,0,0,1-.51-.79,3.07,3.07,0,0,1-.18-1.11,2.77,2.77,0,0,1,.25-1.2,2.6,2.6,0,0,1,.74-.94,3.6,3.6,0,0,1,1.17-.61,5.35,5.35,0,0,1,1.56-.21,5.69,5.69,0,0,1,.83.06,6.43,6.43,0,0,1,.74.15,5.54,5.54,0,0,1,.55.2,2.21,2.21,0,0,1,.32.19.48.48,0,0,1,.14.15.53.53,0,0,1,.06.19,1.59,1.59,0,0,1,0,.26c0,.11,0,.24,0,.4s0,.33,0,.45a1.43,1.43,0,0,1,0,.28.28.28,0,0,1-.1.13.23.23,0,0,1-.14,0,.71.71,0,0,1-.29-.11,4.68,4.68,0,0,0-.49-.23,5.77,5.77,0,0,0-.67-.23,3.36,3.36,0,0,0-.88-.11,2.2,2.2,0,0,0-.61.08,1,1,0,0,0-.42.2.79.79,0,0,0-.24.31.85.85,0,0,0-.08.39.75.75,0,0,0,.19.53,1.88,1.88,0,0,0,.51.38,6.41,6.41,0,0,0,.73.31c.27.09.54.2.82.31a7.72,7.72,0,0,1,.82.4,3,3,0,0,1,.72.55,2.63,2.63,0,0,1,.51.78A2.79,2.79,0,0,1,127,38.75Z"/><path class="cls-2" d="M58.64,12.62C58.86,9.85,56.33,8,54,7.24,47.82,5.05,41.09,5,34.65,5.81V0h-4C20.45,1.82,10.22,3.56,0,5.35V52c10.17,1.79,20.35,3.48,30.5,5.34h4.15V50.15a42.33,42.33,0,0,0,19.27-1.39c2.35-.78,4.95-2.58,4.72-5.39q0-15.37,0-30.75M20.22,39.28q-.62-2.51-1.28-5c-2.05,0-4.09-.06-6.13-.17l-1.2,4.73c-1.31-.1-2.61-.2-3.91-.28,2-7,4-14,5.91-21l4.66-.34c2.23,7.46,4.35,15,6.55,22.44-1.54-.1-3.07-.21-4.6-.35M34.65,7.84a42.11,42.11,0,0,1,17.94,1c1.59.6,3.73,1.31,4.09,3.21-.27,1.55-1.89,2.25-3.17,2.81a40.3,40.3,0,0,1-18.86,1.29Zm0,21.07a53.61,53.61,0,0,0,13.69,0c2.93-.43,6-1.07,8.33-3-.13,2.86.21,5.74-.19,8.58-1.16,1.43-3.06,1.93-4.76,2.42a47.79,47.79,0,0,1-17.07.64ZM56.47,45.17c-1.89,2-4.88,2.43-7.48,3a49.08,49.08,0,0,1-14.37,0c.05-2.87,0-5.74,0-8.61a53,53,0,0,0,13.67,0c2.93-.43,6-1.07,8.35-3-.14,2.86.22,5.76-.2,8.6m0-21.33c-1.19,1.43-3.09,1.93-4.79,2.42a48,48,0,0,1-17,.62V18.24a53.76,53.76,0,0,0,13.65,0c2.94-.43,6-1.06,8.37-3-.15,2.87.23,5.77-.2,8.6"/><path class="cls-2" d="M13.64,30.51c.67-3.12,1.67-6.17,2.12-9.33.6,3.16,1.53,6.24,2.29,9.36l-4.41,0"/></g></g></svg>