<svg xmlns="http://www.w3.org/2000/svg" viewBox="0 0 138.66 57.33"><defs><style>.cls-1{fill:#4d4d4f;}.cls-2,.cls-3{fill:#20744a;}.cls-2{fill-rule:evenodd;}</style></defs><title>Asset 17ico</title><g id="Layer_2" data-name="Layer 2"><g id="Layer_1-2" data-name="Layer 1"><path class="cls-1" d="M82.08,17.89a.15.15,0,0,1,0,.09A.18.18,0,0,1,82,18l-.15,0h-.45l-.15,0L81.15,18a.29.29,0,0,1,0-.09V8.77h0l-4,9.17s0,0,0,.06l-.08.05-.13,0h-.37l-.12,0A.19.19,0,0,1,76.3,18a.13.13,0,0,1,0-.06L72.48,8.77h0v9.12a.16.16,0,0,1,0,.09.18.18,0,0,1-.08.06l-.15,0h-.46l-.14,0a.18.18,0,0,1-.08-.06.29.29,0,0,1,0-.09V8.43A.45.45,0,0,1,71.67,8a.51.51,0,0,1,.29-.1h.52a1.22,1.22,0,0,1,.34,0,1,1,0,0,1,.26.12.89.89,0,0,1,.19.2,1.71,1.71,0,0,1,.14.27l3.34,8h0l3.47-8a3.1,3.1,0,0,1,.17-.32.91.91,0,0,1,.19-.2A.53.53,0,0,1,80.83,8a1,1,0,0,1,.25,0h.57a.44.44,0,0,1,.15,0,.5.5,0,0,1,.14.08.56.56,0,0,1,.1.15.57.57,0,0,1,0,.24Z"/><path class="cls-1" d="M85.94,8.44a.68.68,0,0,1-.14.5.9.9,0,0,1-1,0,.73.73,0,0,1-.13-.51.7.7,0,0,1,.13-.5.67.67,0,0,1,.48-.14.73.73,0,0,1,.48.13A.78.78,0,0,1,85.94,8.44Zm-.14,9.45a.16.16,0,0,1,0,.09.22.22,0,0,1-.07.06l-.14,0H85.1L85,18a.14.14,0,0,1-.07-.06.15.15,0,0,1,0-.09V10.82a.15.15,0,0,1,0-.09.14.14,0,0,1,.07-.06l.14,0h.46l.14,0a.22.22,0,0,1,.07.06.16.16,0,0,1,0,.09Z"/><path class="cls-1" d="M93.33,16.84V17l0,.13a.3.3,0,0,1,0,.1l-.13.14a1.94,1.94,0,0,1-.34.26,3.76,3.76,0,0,1-.53.27,4.32,4.32,0,0,1-.64.19,3.38,3.38,0,0,1-.72.08,3.14,3.14,0,0,1-1.3-.25,2.48,2.48,0,0,1-.95-.72A3.61,3.61,0,0,1,88.07,16a6.08,6.08,0,0,1-.2-1.62,5.7,5.7,0,0,1,.25-1.76,3.3,3.3,0,0,1,.68-1.21,2.65,2.65,0,0,1,1-.69A3.32,3.32,0,0,1,91,10.53a2.93,2.93,0,0,1,.67.07,3.39,3.39,0,0,1,.59.17,3.57,3.57,0,0,1,.48.25,2.87,2.87,0,0,1,.31.24,1.07,1.07,0,0,1,.13.15.39.39,0,0,1,.06.11l0,.14v.17a.6.6,0,0,1-.06.32.2.2,0,0,1-.15.09.5.5,0,0,1-.27-.14,3.33,3.33,0,0,0-.41-.31,3.7,3.7,0,0,0-.6-.31,2.4,2.4,0,0,0-.85-.14,1.81,1.81,0,0,0-1.57.78,4,4,0,0,0-.55,2.26,5,5,0,0,0,.15,1.3,2.59,2.59,0,0,0,.43.93,1.8,1.8,0,0,0,.67.56,2.19,2.19,0,0,0,.9.18,2.16,2.16,0,0,0,.83-.15,3.25,3.25,0,0,0,.62-.33l.45-.32a.47.47,0,0,1,.26-.15l.08,0,.06.09,0,.14A1.15,1.15,0,0,1,93.33,16.84Z"/><path class="cls-1" d="M99.12,11.18v.2a1.3,1.3,0,0,1,0,.13.56.56,0,0,1,0,.08.09.09,0,0,1-.07,0,.68.68,0,0,1-.17,0l-.22-.07-.27-.08a1.69,1.69,0,0,0-.33,0,1,1,0,0,0-.41.09,1.48,1.48,0,0,0-.43.29,3.58,3.58,0,0,0-.47.52q-.24.33-.54.81v4.78a.29.29,0,0,1,0,.09L96,18l-.14,0h-.45l-.15,0a.22.22,0,0,1-.07-.06.29.29,0,0,1,0-.09V10.82a.29.29,0,0,1,0-.09.22.22,0,0,1,.07-.06l.14,0h.44a.4.4,0,0,1,.13,0l.06.06a.15.15,0,0,1,0,.09v1.12a5.48,5.48,0,0,1,.57-.72,2.64,2.64,0,0,1,.49-.43,1.57,1.57,0,0,1,.46-.21,2.22,2.22,0,0,1,.45-.05h.24l.28,0,.28.08a.46.46,0,0,1,.16.08.22.22,0,0,1,.07.06.14.14,0,0,1,0,.07.37.37,0,0,1,0,.12Z"/><path class="cls-1" d="M106.67,14.28a5.09,5.09,0,0,1-.22,1.55,3.42,3.42,0,0,1-.65,1.24,3,3,0,0,1-1.08.82,3.73,3.73,0,0,1-1.51.29,3.79,3.79,0,0,1-1.45-.26,2.93,2.93,0,0,1-1-.75A3.07,3.07,0,0,1,100.1,16a5.9,5.9,0,0,1,0-3.12,3.44,3.44,0,0,1,.65-1.23,2.91,2.91,0,0,1,1.08-.81,4.15,4.15,0,0,1,3,0,2.67,2.67,0,0,1,1,.74,3.23,3.23,0,0,1,.63,1.19A5.35,5.35,0,0,1,106.67,14.28Zm-1,.09a5.34,5.34,0,0,0-.12-1.15,2.9,2.9,0,0,0-.39-1,1.89,1.89,0,0,0-.74-.66,2.32,2.32,0,0,0-1.14-.25,2.48,2.48,0,0,0-1.1.23,1.92,1.92,0,0,0-.75.63,2.77,2.77,0,0,0-.44,1,4.89,4.89,0,0,0-.14,1.18,5.5,5.5,0,0,0,.12,1.16,2.85,2.85,0,0,0,.39,1,1.89,1.89,0,0,0,.74.66,2.44,2.44,0,0,0,1.14.24,2.35,2.35,0,0,0,1.1-.23,2,2,0,0,0,.75-.62,2.77,2.77,0,0,0,.44-.95A4.89,4.89,0,0,0,105.69,14.37Z"/><path class="cls-1" d="M112.91,16a2.21,2.21,0,0,1-.18.91,2,2,0,0,1-.54.68,2.42,2.42,0,0,1-.83.43,3.64,3.64,0,0,1-1.07.15,3.88,3.88,0,0,1-.7-.06A4.22,4.22,0,0,1,109,18a2.43,2.43,0,0,1-.45-.19l-.27-.18a.5.5,0,0,1-.13-.19,1.39,1.39,0,0,1,0-.32,1.09,1.09,0,0,1,0-.18.5.5,0,0,1,0-.13.28.28,0,0,1,.06-.08l.09,0a.55.55,0,0,1,.25.11L109,17a5.7,5.7,0,0,0,.58.24,2.83,2.83,0,0,0,1.45,0,1.41,1.41,0,0,0,.51-.24,1,1,0,0,0,.34-.4,1.26,1.26,0,0,0,.12-.57,1,1,0,0,0-.15-.56,1.53,1.53,0,0,0-.41-.39,3.94,3.94,0,0,0-.58-.3l-.67-.26-.66-.31a2.36,2.36,0,0,1-.58-.39,2,2,0,0,1-.41-.57,1.89,1.89,0,0,1-.15-.79,1.84,1.84,0,0,1,.14-.72,1.58,1.58,0,0,1,.43-.63,2.32,2.32,0,0,1,.75-.46,3.52,3.52,0,0,1,1.61-.13,3.37,3.37,0,0,1,.48.12,1.79,1.79,0,0,1,.37.15l.24.14s.09.08.1.11a.18.18,0,0,1,0,.09.36.36,0,0,1,0,.11.81.81,0,0,1,0,.16.91.91,0,0,1,0,.17.5.5,0,0,1,0,.13.16.16,0,0,1-.05.08.16.16,0,0,1-.09,0,.36.36,0,0,1-.18-.09l-.33-.19a3.4,3.4,0,0,0-.49-.18,2.06,2.06,0,0,0-.64-.09,2.13,2.13,0,0,0-.65.09,1.26,1.26,0,0,0-.46.24,1,1,0,0,0-.27.37,1.14,1.14,0,0,0-.09.46,1.07,1.07,0,0,0,.16.58,1.42,1.42,0,0,0,.41.4,3.29,3.29,0,0,0,.59.31l.67.26c.22.09.45.19.67.3a2.33,2.33,0,0,1,.58.38,1.87,1.87,0,0,1,.42.54A1.82,1.82,0,0,1,112.91,16Z"/><path class="cls-1" d="M121.2,14.28a5.09,5.09,0,0,1-.22,1.55,3.42,3.42,0,0,1-.65,1.24,3,3,0,0,1-1.08.82,3.73,3.73,0,0,1-1.51.29,3.83,3.83,0,0,1-1.45-.26,2.93,2.93,0,0,1-1-.75,3.21,3.21,0,0,1-.62-1.19,5.38,5.38,0,0,1-.21-1.57,5.09,5.09,0,0,1,.22-1.55,3.28,3.28,0,0,1,.64-1.23,2.86,2.86,0,0,1,1.09-.81,3.7,3.7,0,0,1,1.51-.29,3.79,3.79,0,0,1,1.45.26,2.79,2.79,0,0,1,1,.74,3.36,3.36,0,0,1,.62,1.19A5.35,5.35,0,0,1,121.2,14.28Zm-1,.09a5.34,5.34,0,0,0-.12-1.15,2.9,2.9,0,0,0-.39-1,1.94,1.94,0,0,0-.73-.66,2.38,2.38,0,0,0-1.15-.25,2.48,2.48,0,0,0-1.1.23,2,2,0,0,0-.75.63,2.59,2.59,0,0,0-.43,1,4.43,4.43,0,0,0-.15,1.18,5.5,5.5,0,0,0,.12,1.16,2.85,2.85,0,0,0,.39,1,1.89,1.89,0,0,0,.74.66,2.45,2.45,0,0,0,1.15.24,2.34,2.34,0,0,0,1.09-.23,2,2,0,0,0,.75-.62,2.77,2.77,0,0,0,.44-.95A4.89,4.89,0,0,0,120.22,14.37Z"/><path class="cls-1" d="M124.54,11.44v6.45a.16.16,0,0,1,0,.09.22.22,0,0,1-.07.06l-.14,0h-.45l-.15,0a.14.14,0,0,1-.07-.06.15.15,0,0,1,0-.09V11.44h-1.06a.19.19,0,0,1-.17-.09.61.61,0,0,1-.06-.3.91.91,0,0,1,0-.17.5.5,0,0,1,0-.13.16.16,0,0,1,.07-.07.16.16,0,0,1,.1,0h1.06V9.85a5.22,5.22,0,0,1,.13-1.27,2.24,2.24,0,0,1,.4-.85,1.55,1.55,0,0,1,.68-.47,2.69,2.69,0,0,1,.94-.15,2.51,2.51,0,0,1,.55.06,1.89,1.89,0,0,1,.37.11.49.49,0,0,1,.15.09.3.3,0,0,1,.07.11.57.57,0,0,1,0,.14,1,1,0,0,1,0,.18.87.87,0,0,1,0,.18.62.62,0,0,1,0,.1.1.1,0,0,1,0,.06l-.06,0a.42.42,0,0,1-.15,0L126.43,8l-.3-.09a2.54,2.54,0,0,0-.41,0,1.34,1.34,0,0,0-.56.1.79.79,0,0,0-.36.34,1.7,1.7,0,0,0-.2.59,5.52,5.52,0,0,0-.06.88v.84H128V8.92a.29.29,0,0,1,0-.09l.08-.06a.39.39,0,0,1,.14,0h.45a.39.39,0,0,1,.14,0,.28.28,0,0,1,.08.06.29.29,0,0,1,0,.09v1.74h2a.16.16,0,0,1,.1,0s.05,0,.08.07a.5.5,0,0,1,0,.13.88.88,0,0,1,0,.17.61.61,0,0,1-.06.3.21.21,0,0,1-.18.09h-2v4.28a2.64,2.64,0,0,0,.23,1.22.85.85,0,0,0,.84.43,1.67,1.67,0,0,0,.34,0l.27-.09.2-.08a.34.34,0,0,1,.15,0H131a.09.09,0,0,1,0,.06.36.36,0,0,1,0,.11s0,.1,0,.17a.88.88,0,0,1,0,.26.35.35,0,0,1-.09.16.41.41,0,0,1-.16.11,1,1,0,0,1-.26.09l-.31.05a1.77,1.77,0,0,1-.32,0A2.36,2.36,0,0,1,129,18a1.31,1.31,0,0,1-.6-.42,1.71,1.71,0,0,1-.34-.73,4.39,4.39,0,0,1-.11-1v-4.4Z"/><path class="cls-1" d="M138.66,10.06a2.84,2.84,0,0,1-.23,1.17,2.78,2.78,0,0,1-.63.94,3,3,0,0,1-.94.64,3,3,0,0,1-1.17.23,3.22,3.22,0,0,1-1.18-.22,2.86,2.86,0,0,1-.93-.62,2.7,2.7,0,0,1-.6-.94,3.06,3.06,0,0,1-.22-1.18A2.84,2.84,0,0,1,133,8.91a2.78,2.78,0,0,1,.63-.94,2.68,2.68,0,0,1,.94-.63,3.18,3.18,0,0,1,2.35,0,2.79,2.79,0,0,1,1.54,1.55A3.22,3.22,0,0,1,138.66,10.06Zm-.58,0a2.82,2.82,0,0,0-.18-1,2.3,2.3,0,0,0-.49-.78,2.17,2.17,0,0,0-.75-.51,2.4,2.4,0,0,0-.93-.17,2.46,2.46,0,0,0-1,.19,2.37,2.37,0,0,0-.75.53,2.27,2.27,0,0,0-.48.77,2.41,2.41,0,0,0-.18.93,2.8,2.8,0,0,0,.18,1,2.37,2.37,0,0,0,.5.79,2,2,0,0,0,.75.5,2.34,2.34,0,0,0,.93.18,2.25,2.25,0,0,0,1-.2,2.28,2.28,0,0,0,.76-.52,2.63,2.63,0,0,0,.48-.77A2.6,2.6,0,0,0,138.08,10.11Zm-1,1.46v0a.07.07,0,0,1-.05,0l-.11,0h-.39l-.13,0a.18.18,0,0,1-.07-.05.19.19,0,0,1,0-.09l-.17-.55a1.11,1.11,0,0,0-.25-.44.71.71,0,0,0-.45-.12h-.22v1.15a.14.14,0,0,1,0,.11.75.75,0,0,1-.27,0,.81.81,0,0,1-.28,0,.13.13,0,0,1-.06-.11V8.67a.36.36,0,0,1,.07-.24.29.29,0,0,1,.23-.09h.84a1.82,1.82,0,0,1,.56.07,1.13,1.13,0,0,1,.4.18.76.76,0,0,1,.23.3.94.94,0,0,1,.07.39.83.83,0,0,1-.2.59,1.12,1.12,0,0,1-.55.29,1,1,0,0,1,.35.22,1.35,1.35,0,0,1,.29.45l.2.54A.66.66,0,0,1,137.08,11.57Zm-.86-2.21a.57.57,0,0,0,0-.18.33.33,0,0,0-.1-.14.43.43,0,0,0-.19-.1,1.3,1.3,0,0,0-.31,0h-.39v.95h.38a.71.71,0,0,0,.5-.14A.49.49,0,0,0,136.22,9.36Z"/><path class="cls-1" d="M79.36,40.62a3.43,3.43,0,0,1,0,.5,1.14,1.14,0,0,1-.08.32.41.41,0,0,1-.12.18.29.29,0,0,1-.17.06H72.29a.88.88,0,0,1-.57-.2.84.84,0,0,1-.23-.65V29.26a.83.83,0,0,1,.23-.65.88.88,0,0,1,.57-.2h6.62a.31.31,0,0,1,.17.05.32.32,0,0,1,.12.18,1.23,1.23,0,0,1,.08.33,3.71,3.71,0,0,1,0,.51,3.4,3.4,0,0,1,0,.48,1.23,1.23,0,0,1-.08.33.32.32,0,0,1-.12.17.25.25,0,0,1-.17.06H74.18v3.24h4a.27.27,0,0,1,.17.06.37.37,0,0,1,.12.17,1.14,1.14,0,0,1,.08.32,3.38,3.38,0,0,1,0,.49,3.28,3.28,0,0,1,0,.49,1.07,1.07,0,0,1-.08.31.32.32,0,0,1-.12.17.26.26,0,0,1-.17,0h-4v3.75H79a.28.28,0,0,1,.17,0,.41.41,0,0,1,.12.18,1.14,1.14,0,0,1,.08.32A3.53,3.53,0,0,1,79.36,40.62Z"/><path class="cls-1" d="M89.53,41.14a.63.63,0,0,1,.07.29.22.22,0,0,1-.14.19,1.4,1.4,0,0,1-.44.09c-.2,0-.47,0-.79,0l-.75,0a2.12,2.12,0,0,1-.44-.06.61.61,0,0,1-.23-.11.3.3,0,0,1-.12-.17L85,38.13l-1.7,3.25a.34.34,0,0,1-.11.17.64.64,0,0,1-.22.11,1.89,1.89,0,0,1-.41.06l-.7,0a6.83,6.83,0,0,1-.72,0,1,1,0,0,1-.39-.09.25.25,0,0,1-.13-.19.71.71,0,0,1,.09-.29l2.53-4.5L80.9,32.42a.74.74,0,0,1-.09-.31.2.2,0,0,1,.12-.2,1.2,1.2,0,0,1,.43-.11c.2,0,.46,0,.8,0l.72,0a3.32,3.32,0,0,1,.42,0,.49.49,0,0,1,.23.1.52.52,0,0,1,.12.17l1.63,3.06L86.9,32.1A.33.33,0,0,1,87,32a.48.48,0,0,1,.19-.11l.36-.06.63,0,.73,0a1,1,0,0,1,.39.1.2.2,0,0,1,.11.19.73.73,0,0,1-.12.34L87,36.57Z"/><path class="cls-1" d="M97.67,39.87c0,.18,0,.33,0,.45a2,2,0,0,1,0,.3,1.67,1.67,0,0,1-.06.2.76.76,0,0,1-.16.2,2,2,0,0,1-.42.28,3.57,3.57,0,0,1-.68.31,5.76,5.76,0,0,1-.82.21,4.63,4.63,0,0,1-.92.08,5.16,5.16,0,0,1-1.87-.32,3.64,3.64,0,0,1-1.37-1A4.14,4.14,0,0,1,90.48,39a7.13,7.13,0,0,1-.29-2.11,7.22,7.22,0,0,1,.35-2.37,4.57,4.57,0,0,1,1-1.66,3.75,3.75,0,0,1,1.45-1,5,5,0,0,1,1.85-.32,4.25,4.25,0,0,1,.8.07,5,5,0,0,1,.74.19,6,6,0,0,1,.62.28,1.5,1.5,0,0,1,.38.27.8.8,0,0,1,.16.19.77.77,0,0,1,.07.2,2,2,0,0,1,0,.3c0,.12,0,.27,0,.44a2.28,2.28,0,0,1-.11.83c-.06.16-.15.24-.26.24a.59.59,0,0,1-.37-.14l-.46-.32a4.23,4.23,0,0,0-.64-.32,2.54,2.54,0,0,0-.88-.14,1.77,1.77,0,0,0-1.54.77,4.09,4.09,0,0,0-.53,2.28,5.66,5.66,0,0,0,.13,1.3,2.7,2.7,0,0,0,.4.94,1.69,1.69,0,0,0,.65.57,2.07,2.07,0,0,0,.92.19,2.33,2.33,0,0,0,.92-.16,3.23,3.23,0,0,0,.67-.35,6,6,0,0,0,.48-.36.62.62,0,0,1,.33-.16.2.2,0,0,1,.15.06.26.26,0,0,1,.1.19,2.28,2.28,0,0,1,.06.35C97.66,39.46,97.67,39.65,97.67,39.87Z"/><path class="cls-1" d="M108,36.49a1,1,0,0,1-.21.7.75.75,0,0,1-.58.22h-5.56a3.49,3.49,0,0,0,.14,1.06A1.91,1.91,0,0,0,103,39.79a3.27,3.27,0,0,0,1.15.18,6.87,6.87,0,0,0,1.19-.1,8,8,0,0,0,.88-.22l.63-.21a1,1,0,0,1,.4-.1.24.24,0,0,1,.15,0,.25.25,0,0,1,.1.12.83.83,0,0,1,.06.27c0,.11,0,.25,0,.42s0,.28,0,.39a1.12,1.12,0,0,1,0,.27.53.53,0,0,1-.06.19.72.72,0,0,1-.11.15,1.29,1.29,0,0,1-.36.19,6.34,6.34,0,0,1-.76.24,10.46,10.46,0,0,1-1.06.21,10.06,10.06,0,0,1-1.27.08,7,7,0,0,1-2.14-.3,3.84,3.84,0,0,1-1.53-.94,3.91,3.91,0,0,1-.92-1.58,7.43,7.43,0,0,1-.3-2.23,7.12,7.12,0,0,1,.32-2.2,4.61,4.61,0,0,1,.92-1.66,4,4,0,0,1,1.47-1,5.07,5.07,0,0,1,2-.36,5,5,0,0,1,2,.34,3.51,3.51,0,0,1,1.34.93,3.91,3.91,0,0,1,.77,1.42,6.4,6.4,0,0,1,.24,1.79Zm-2.5-.74a2.69,2.69,0,0,0-.43-1.71,1.72,1.72,0,0,0-1.44-.62,1.79,1.79,0,0,0-.86.19,1.75,1.75,0,0,0-.61.5,2.28,2.28,0,0,0-.37.73,3.84,3.84,0,0,0-.14.91Z"/><path class="cls-1" d="M112.69,41.33a.28.28,0,0,1-.06.18.51.51,0,0,1-.21.13,1.71,1.71,0,0,1-.4.07,5.22,5.22,0,0,1-.62,0,5.53,5.53,0,0,1-.63,0,1.71,1.71,0,0,1-.39-.07.51.51,0,0,1-.21-.13.28.28,0,0,1-.06-.18V27.85a.33.33,0,0,1,.06-.19.51.51,0,0,1,.21-.14,2.28,2.28,0,0,1,.39-.09,5.53,5.53,0,0,1,.63,0,5.22,5.22,0,0,1,.62,0,2.2,2.2,0,0,1,.4.09.51.51,0,0,1,.21.14.33.33,0,0,1,.06.19Z"/><path class="cls-2" d="M54.9,4.89H34.14V0L0,5.27V51.45l34.14,5.88V50.08H54.9a2.39,2.39,0,0,0,2.5-2.25V7.14a2.39,2.39,0,0,0-2.5-2.25M23.74,38.54l-4.65-.31L16,30l-3.14,7.94-4.28-.38,5-9.56L8.91,17.74l4.4-.25,2.77,7.61,3.26-7.92,4.4-.25L18.4,27.72ZM55.23,48.2H34.07l0-3.87h5.1V39.82H34l0-2.67h5.16V32.64h-5.2l0-2.66h5.23V25.47H33.89V22.8h5.24V18.29H33.89V15.63h5.24V11.11H33.89V7H55.23Z"/><rect class="cls-3" x="42" y="11.11" width="8.86" height="4.51"/><rect class="cls-3" x="42" y="18.29" width="8.86" height="4.51"/><rect class="cls-3" x="42" y="25.47" width="8.86" height="4.51"/><rect class="cls-3" x="42" y="32.64" width="8.86" height="4.51"/><rect class="cls-3" x="42" y="39.82" width="8.86" height="4.51"/></g></g></svg>