<svg xmlns="http://www.w3.org/2000/svg" viewBox="0 0 171.38 57.5"><defs><style>.cls-1{fill:#4d4d4f;}.cls-2{fill:#d24b2b;}</style></defs><title>Asset 20ico</title><g id="Layer_2" data-name="Layer 2"><g id="Layer_1-2" data-name="Layer 1"><path class="cls-1" d="M82.27,18.23a.15.15,0,0,1,0,.09.18.18,0,0,1-.08.06l-.15,0h-.45l-.15,0-.08-.06a.29.29,0,0,1,0-.09V9.11h0l-4,9.17,0,.06-.08.05-.13,0H76.7l-.12,0a.19.19,0,0,1-.09-.05l0-.06L72.67,9.11h0v9.12a.15.15,0,0,1,0,.09.18.18,0,0,1-.08.06l-.15,0H72l-.14,0a.18.18,0,0,1-.08-.06.29.29,0,0,1,0-.09V8.77a.45.45,0,0,1,.15-.39.51.51,0,0,1,.29-.1h.51a1.25,1.25,0,0,1,.35,0,1,1,0,0,1,.26.12.89.89,0,0,1,.19.2,1.71,1.71,0,0,1,.14.27l3.34,8h0l3.47-8a3.1,3.1,0,0,1,.17-.32.91.91,0,0,1,.19-.2A.53.53,0,0,1,81,8.31a1,1,0,0,1,.25,0h.57a.44.44,0,0,1,.15,0,.5.5,0,0,1,.14.08.56.56,0,0,1,.1.15.57.57,0,0,1,0,.24Z"/><path class="cls-1" d="M86.13,8.78a.68.68,0,0,1-.14.5.9.9,0,0,1-.95,0,.73.73,0,0,1-.13-.51.7.7,0,0,1,.13-.5.67.67,0,0,1,.48-.14.73.73,0,0,1,.48.13A.78.78,0,0,1,86.13,8.78ZM86,18.23a.16.16,0,0,1,0,.09.22.22,0,0,1-.07.06l-.14,0h-.46l-.14,0a.14.14,0,0,1-.07-.06.15.15,0,0,1,0-.09V11.16a.15.15,0,0,1,0-.09.14.14,0,0,1,.07-.06l.14,0h.46l.14,0a.22.22,0,0,1,.07.06.16.16,0,0,1,0,.09Z"/><path class="cls-1" d="M93.52,17.18v.17l0,.13a.3.3,0,0,1,0,.1l-.13.14A2.6,2.6,0,0,1,93,18a3.76,3.76,0,0,1-.53.27,4.32,4.32,0,0,1-.64.19,3.38,3.38,0,0,1-.72.08,3.14,3.14,0,0,1-1.3-.25,2.48,2.48,0,0,1-1-.72,3.61,3.61,0,0,1-.58-1.18,6.08,6.08,0,0,1-.2-1.62A5.7,5.7,0,0,1,88.31,13,3.3,3.3,0,0,1,89,11.78a2.65,2.65,0,0,1,1-.69,3.32,3.32,0,0,1,1.23-.22,2.93,2.93,0,0,1,.67.07,3.39,3.39,0,0,1,.59.17,3.57,3.57,0,0,1,.48.25,2,2,0,0,1,.31.24.7.7,0,0,1,.13.15.39.39,0,0,1,.06.11l0,.14v.17a.6.6,0,0,1-.06.32.2.2,0,0,1-.15.09.5.5,0,0,1-.27-.14,3.33,3.33,0,0,0-.41-.31,3.7,3.7,0,0,0-.6-.31,2.4,2.4,0,0,0-.85-.14,1.81,1.81,0,0,0-1.57.78A4,4,0,0,0,89,14.72a5,5,0,0,0,.15,1.3,2.67,2.67,0,0,0,.43.93,1.8,1.8,0,0,0,.67.56,2.19,2.19,0,0,0,.9.18,2.16,2.16,0,0,0,.83-.15,3.25,3.25,0,0,0,.62-.33l.45-.32a.47.47,0,0,1,.26-.15l.08,0,.06.09,0,.14A1.15,1.15,0,0,1,93.52,17.18Z"/><path class="cls-1" d="M99.31,11.52v.2a1.3,1.3,0,0,1,0,.13.56.56,0,0,1,0,.08.09.09,0,0,1-.07,0,.68.68,0,0,1-.17,0l-.22-.07-.27-.08a1.69,1.69,0,0,0-.33,0,1,1,0,0,0-.41.09,1.48,1.48,0,0,0-.43.29,3.58,3.58,0,0,0-.47.52q-.24.33-.54.81v4.78a.29.29,0,0,1,0,.09.28.28,0,0,1-.08.06l-.14,0h-.45l-.15,0a.22.22,0,0,1-.07-.06.29.29,0,0,1,0-.09V11.16a.29.29,0,0,1,0-.09.22.22,0,0,1,.07-.06l.14,0h.44a.4.4,0,0,1,.13,0l.06.06a.15.15,0,0,1,0,.09v1.12a5.48,5.48,0,0,1,.57-.72,2.32,2.32,0,0,1,.49-.43,1.57,1.57,0,0,1,.46-.21,2.22,2.22,0,0,1,.45-.05h.24l.28,0L99,11a.46.46,0,0,1,.16.08.22.22,0,0,1,.07.06.14.14,0,0,1,0,.07.37.37,0,0,1,0,.12Z"/><path class="cls-1" d="M106.86,14.62a5.09,5.09,0,0,1-.22,1.55,3.42,3.42,0,0,1-.65,1.24,3,3,0,0,1-1.08.82,3.73,3.73,0,0,1-1.51.29,3.79,3.79,0,0,1-1.45-.26,2.93,2.93,0,0,1-1-.75,3.07,3.07,0,0,1-.62-1.19,5.9,5.9,0,0,1,0-3.12,3.44,3.44,0,0,1,.65-1.23,2.91,2.91,0,0,1,1.08-.81,4.15,4.15,0,0,1,3,0,2.67,2.67,0,0,1,1,.74,3.23,3.23,0,0,1,.63,1.19A5.35,5.35,0,0,1,106.86,14.62Zm-1,.09a5.27,5.27,0,0,0-.12-1.15,2.9,2.9,0,0,0-.39-1,1.89,1.89,0,0,0-.74-.66,2.32,2.32,0,0,0-1.14-.25,2.48,2.48,0,0,0-1.1.23,1.92,1.92,0,0,0-.75.63,2.77,2.77,0,0,0-.44,1,4.83,4.83,0,0,0-.14,1.18,5.5,5.5,0,0,0,.12,1.16,2.85,2.85,0,0,0,.39,1,1.89,1.89,0,0,0,.74.66,2.44,2.44,0,0,0,1.14.24,2.35,2.35,0,0,0,1.1-.23,2,2,0,0,0,.75-.62,2.77,2.77,0,0,0,.44-.95A4.89,4.89,0,0,0,105.88,14.71Z"/><path class="cls-1" d="M113.1,16.35a2.06,2.06,0,0,1-.19.91,1.85,1.85,0,0,1-.53.68,2.42,2.42,0,0,1-.83.43,3.64,3.64,0,0,1-1.07.15,3.88,3.88,0,0,1-.7-.06,4.22,4.22,0,0,1-.59-.15,2.43,2.43,0,0,1-.45-.19l-.27-.18a.46.46,0,0,1-.13-.2,1.24,1.24,0,0,1,0-.31,1,1,0,0,1,0-.18.5.5,0,0,1,0-.13.28.28,0,0,1,.06-.08.16.16,0,0,1,.09,0,.55.55,0,0,1,.25.11l.41.24a5.7,5.7,0,0,0,.58.24,2.83,2.83,0,0,0,1.45,0,1.41,1.41,0,0,0,.51-.24,1,1,0,0,0,.34-.4,1.26,1.26,0,0,0,.12-.57,1,1,0,0,0-.15-.56,1.53,1.53,0,0,0-.41-.39,3.94,3.94,0,0,0-.58-.3l-.67-.26-.66-.31a2.68,2.68,0,0,1-.58-.39,2,2,0,0,1-.41-.57,1.89,1.89,0,0,1-.15-.79,1.84,1.84,0,0,1,.14-.72,1.68,1.68,0,0,1,.43-.64,2.49,2.49,0,0,1,.75-.45,3.52,3.52,0,0,1,1.61-.13A3.37,3.37,0,0,1,112,11a1.79,1.79,0,0,1,.37.15l.24.14s.09.08.1.11a.18.18,0,0,1,0,.09.36.36,0,0,1,0,.11.81.81,0,0,1,0,.16.91.91,0,0,1,0,.17.5.5,0,0,1,0,.13.22.22,0,0,1,0,.08l-.09,0a.36.36,0,0,1-.18-.09l-.33-.19a3.4,3.4,0,0,0-.49-.18,2.08,2.08,0,0,0-.65-.09,2.11,2.11,0,0,0-.64.09,1.12,1.12,0,0,0-.46.24,1,1,0,0,0-.27.37,1.14,1.14,0,0,0-.09.46,1.07,1.07,0,0,0,.16.58,1.42,1.42,0,0,0,.41.4,3.29,3.29,0,0,0,.59.31l.67.26c.22.09.45.19.67.3a2.53,2.53,0,0,1,.58.38,1.87,1.87,0,0,1,.42.54A1.82,1.82,0,0,1,113.1,16.35Z"/><path class="cls-1" d="M121.39,14.62a5.09,5.09,0,0,1-.22,1.55,3.42,3.42,0,0,1-.65,1.24,3,3,0,0,1-1.08.82,3.73,3.73,0,0,1-1.51.29,3.83,3.83,0,0,1-1.45-.26,2.93,2.93,0,0,1-1-.75,3.21,3.21,0,0,1-.62-1.19,5.38,5.38,0,0,1-.21-1.57,5.09,5.09,0,0,1,.22-1.55,3.28,3.28,0,0,1,.64-1.23,2.86,2.86,0,0,1,1.09-.81,3.7,3.7,0,0,1,1.51-.29,3.79,3.79,0,0,1,1.45.26,2.79,2.79,0,0,1,1,.74,3.36,3.36,0,0,1,.62,1.19A5.35,5.35,0,0,1,121.39,14.62Zm-1,.09a5.27,5.27,0,0,0-.12-1.15,2.9,2.9,0,0,0-.39-1,1.89,1.89,0,0,0-.74-.66,2.32,2.32,0,0,0-1.14-.25,2.48,2.48,0,0,0-1.1.23,2,2,0,0,0-.75.63,2.59,2.59,0,0,0-.43,1,4.38,4.38,0,0,0-.15,1.18,5.5,5.5,0,0,0,.12,1.16,2.85,2.85,0,0,0,.39,1,1.89,1.89,0,0,0,.74.66,2.45,2.45,0,0,0,1.15.24,2.34,2.34,0,0,0,1.09-.23,2,2,0,0,0,.75-.62,2.77,2.77,0,0,0,.44-.95A4.89,4.89,0,0,0,120.41,14.71Z"/><path class="cls-1" d="M124.73,11.78v6.45a.16.16,0,0,1,0,.09.22.22,0,0,1-.07.06l-.14,0H124l-.15,0a.14.14,0,0,1-.07-.06.15.15,0,0,1,0-.09V11.78h-1.06a.19.19,0,0,1-.17-.09.61.61,0,0,1-.06-.3.91.91,0,0,1,0-.17.5.5,0,0,1,0-.13.16.16,0,0,1,.07-.07.17.17,0,0,1,.1,0h1.06v-.8a5.22,5.22,0,0,1,.13-1.27,2.24,2.24,0,0,1,.4-.85A1.55,1.55,0,0,1,125,7.6a2.69,2.69,0,0,1,.94-.15,2.51,2.51,0,0,1,.55.06,1.89,1.89,0,0,1,.37.11.49.49,0,0,1,.15.09.3.3,0,0,1,.07.11.57.57,0,0,1,0,.14,1,1,0,0,1,0,.18.87.87,0,0,1,0,.18.62.62,0,0,1,0,.1.1.1,0,0,1,0,.06H127l-.15,0-.22-.09-.3-.09a2.48,2.48,0,0,0-.41,0,1.33,1.33,0,0,0-.56.11.79.79,0,0,0-.36.34,1.7,1.7,0,0,0-.2.59,5.52,5.52,0,0,0-.06.88V11h3.45V9.26a.29.29,0,0,1,0-.09l.08-.06a.39.39,0,0,1,.14,0h.45a.39.39,0,0,1,.14,0,.28.28,0,0,1,.08.06.29.29,0,0,1,0,.09V11h1.95a.17.17,0,0,1,.1,0s.05,0,.08.07a.5.5,0,0,1,0,.13.88.88,0,0,1,0,.17.61.61,0,0,1-.06.3.21.21,0,0,1-.18.09h-1.95v4.28a2.64,2.64,0,0,0,.23,1.22.85.85,0,0,0,.84.43,1.67,1.67,0,0,0,.34,0l.27-.09.2-.09.15,0h.07a.09.09,0,0,1,0,.06.36.36,0,0,1,0,.11s0,.1,0,.17a.88.88,0,0,1,0,.26.35.35,0,0,1-.09.16.41.41,0,0,1-.16.11,1,1,0,0,1-.26.09l-.31.05a1.77,1.77,0,0,1-.32,0,2.36,2.36,0,0,1-.9-.14,1.31,1.31,0,0,1-.6-.42,1.71,1.71,0,0,1-.34-.73,4.39,4.39,0,0,1-.11-1v-4.4Z"/><path class="cls-1" d="M138.85,10.4a2.84,2.84,0,0,1-.23,1.17,2.78,2.78,0,0,1-.63.94,3,3,0,0,1-.94.64,3,3,0,0,1-1.17.23,3.22,3.22,0,0,1-1.18-.22,2.77,2.77,0,0,1-1.54-1.56,3.25,3.25,0,0,1-.21-1.18,2.84,2.84,0,0,1,.23-1.17,2.78,2.78,0,0,1,.63-.94,2.68,2.68,0,0,1,.94-.63,3,3,0,0,1,1.16-.23,3,3,0,0,1,1.19.22,2.79,2.79,0,0,1,1.54,1.55A3.22,3.22,0,0,1,138.85,10.4Zm-.58,0a2.82,2.82,0,0,0-.18-1,2.3,2.3,0,0,0-.49-.78,2.17,2.17,0,0,0-.75-.51,2.42,2.42,0,0,0-.94-.17,2.45,2.45,0,0,0-1,.19,2.37,2.37,0,0,0-.75.53,2.27,2.27,0,0,0-.48.77,2.41,2.41,0,0,0-.18.93,2.8,2.8,0,0,0,.18,1,2.37,2.37,0,0,0,.5.79,2,2,0,0,0,.75.5,2.34,2.34,0,0,0,.93.18,2.4,2.4,0,0,0,1-.2,2.28,2.28,0,0,0,.76-.52,2.63,2.63,0,0,0,.48-.77A2.6,2.6,0,0,0,138.27,10.45Zm-1,1.46V12a.07.07,0,0,1-.05,0l-.11,0h-.39l-.13,0a.18.18,0,0,1-.07-.05.19.19,0,0,1,0-.09l-.17-.55a1.11,1.11,0,0,0-.25-.44.71.71,0,0,0-.45-.12h-.22v1.15a.11.11,0,0,1,0,.1.53.53,0,0,1-.27,0,.58.58,0,0,1-.28,0,.1.1,0,0,1-.06-.1V9a.36.36,0,0,1,.07-.24.29.29,0,0,1,.23-.09h.84a2.23,2.23,0,0,1,.56.06,1.35,1.35,0,0,1,.4.19.76.76,0,0,1,.23.3.94.94,0,0,1,.07.39.84.84,0,0,1-.2.59,1.12,1.12,0,0,1-.55.29,1,1,0,0,1,.35.22,1.35,1.35,0,0,1,.29.45l.2.54A.66.66,0,0,1,137.27,11.91Zm-.86-2.21a.57.57,0,0,0,0-.18.33.33,0,0,0-.1-.14.43.43,0,0,0-.19-.1,1.23,1.23,0,0,0-.31,0h-.39v1h.38a.71.71,0,0,0,.5-.14A.49.49,0,0,0,136.41,9.7Z"/><path class="cls-1" d="M80.77,32.78a5.34,5.34,0,0,1-.35,2,3.86,3.86,0,0,1-1,1.45,4.59,4.59,0,0,1-1.63.9,7.78,7.78,0,0,1-2.28.3H74.38v4.24a.24.24,0,0,1-.07.18.47.47,0,0,1-.22.14,2.47,2.47,0,0,1-.41.08,7.17,7.17,0,0,1-1.31,0A2.47,2.47,0,0,1,72,42a.47.47,0,0,1-.22-.14.28.28,0,0,1-.06-.18V29.71a.94.94,0,0,1,.25-.72.92.92,0,0,1,.66-.24h3.13c.32,0,.61,0,.9,0s.62.08,1,.16a4.45,4.45,0,0,1,1.2.43,3.51,3.51,0,0,1,1,.81,3.22,3.22,0,0,1,.66,1.14A4.43,4.43,0,0,1,80.77,32.78ZM78,33a2.4,2.4,0,0,0-.25-1.14,1.65,1.65,0,0,0-.6-.67,2,2,0,0,0-.76-.27,5.32,5.32,0,0,0-.81-.06H74.38v4.5h1.21a3.06,3.06,0,0,0,1.08-.17,1.84,1.84,0,0,0,.71-.49,2,2,0,0,0,.42-.75A2.87,2.87,0,0,0,78,33Z"/><path class="cls-1" d="M91.62,37a7.23,7.23,0,0,1-.31,2.14,4.73,4.73,0,0,1-.93,1.66,4.18,4.18,0,0,1-1.57,1.07,5.78,5.78,0,0,1-2.21.38,5.93,5.93,0,0,1-2.12-.34,3.8,3.8,0,0,1-1.5-1,4.1,4.1,0,0,1-.88-1.59,7.46,7.46,0,0,1-.29-2.15,6.91,6.91,0,0,1,.32-2.14,4.44,4.44,0,0,1,.94-1.66,4.06,4.06,0,0,1,1.56-1.07,5.69,5.69,0,0,1,2.2-.38,6.19,6.19,0,0,1,2.13.33,3.7,3.7,0,0,1,1.49,1,4,4,0,0,1,.88,1.59A7.48,7.48,0,0,1,91.62,37ZM89,37.11a6.06,6.06,0,0,0-.11-1.25,2.91,2.91,0,0,0-.36-1,1.87,1.87,0,0,0-.68-.66,2.57,2.57,0,0,0-2.08,0,1.81,1.81,0,0,0-.71.61,3,3,0,0,0-.41,1,5.63,5.63,0,0,0-.14,1.3,6.81,6.81,0,0,0,.11,1.24,3.14,3.14,0,0,0,.37,1,1.64,1.64,0,0,0,.68.65,2.17,2.17,0,0,0,1.07.23,2.31,2.31,0,0,0,1-.21,1.81,1.81,0,0,0,.71-.61,2.87,2.87,0,0,0,.41-1A5.63,5.63,0,0,0,89,37.11Z"/><path class="cls-1" d="M107.63,32.5a1.58,1.58,0,0,1,0,.28c0,.11-.06.26-.11.47l-2.44,8.28a1.22,1.22,0,0,1-.13.28.56.56,0,0,1-.26.17,2.14,2.14,0,0,1-.48.08l-.81,0c-.34,0-.61,0-.82,0a1.85,1.85,0,0,1-.5-.08.51.51,0,0,1-.26-.17.75.75,0,0,1-.13-.27L100.13,36l0-.1,0,.1-1.42,5.56a.91.91,0,0,1-.12.28.51.51,0,0,1-.26.17,2.48,2.48,0,0,1-.5.08l-.82,0c-.34,0-.62,0-.83,0a1.84,1.84,0,0,1-.49-.08.51.51,0,0,1-.26-.17.61.61,0,0,1-.12-.27l-2.42-8.28a4.06,4.06,0,0,1-.12-.47,1.58,1.58,0,0,1,0-.28.28.28,0,0,1,.06-.18.43.43,0,0,1,.2-.12,2.7,2.7,0,0,1,.4-.07l.64,0,.66,0a2.28,2.28,0,0,1,.4.07.4.4,0,0,1,.2.14.67.67,0,0,1,.09.21l1.81,6.72,0,.12,0-.12,1.71-6.72a.67.67,0,0,1,.09-.21.6.6,0,0,1,.2-.14,2.18,2.18,0,0,1,.38-.07l.62,0a4.93,4.93,0,0,1,.61,0,2.18,2.18,0,0,1,.38.07.35.35,0,0,1,.19.12.51.51,0,0,1,.09.18l1.83,6.77,0,.11,0-.12,1.74-6.72a.49.49,0,0,1,.08-.21.43.43,0,0,1,.21-.14,2.14,2.14,0,0,1,.39-.07l.62,0,.62,0a2.18,2.18,0,0,1,.38.07.35.35,0,0,1,.19.12A.27.27,0,0,1,107.63,32.5Z"/><path class="cls-1" d="M117.59,36.83a1,1,0,0,1-.21.7.76.76,0,0,1-.58.22h-5.57a3.53,3.53,0,0,0,.14,1.06,2,2,0,0,0,.44.81,1.86,1.86,0,0,0,.78.51,3.22,3.22,0,0,0,1.14.17,7,7,0,0,0,1.19-.09,8.91,8.91,0,0,0,.89-.22l.62-.21a1,1,0,0,1,.4-.1.24.24,0,0,1,.15,0,.2.2,0,0,1,.1.12.83.83,0,0,1,.06.27c0,.11,0,.25,0,.42a3.79,3.79,0,0,1,0,.38,1.14,1.14,0,0,1,0,.28.53.53,0,0,1-.06.19.48.48,0,0,1-.11.15,1.29,1.29,0,0,1-.36.19,6.34,6.34,0,0,1-.76.24q-.46.12-1,.21a10.22,10.22,0,0,1-1.28.08,6.84,6.84,0,0,1-2.13-.3,3.66,3.66,0,0,1-2.45-2.52,7.94,7.94,0,0,1,0-4.43,4.61,4.61,0,0,1,.92-1.66,4,4,0,0,1,1.48-1,5.63,5.63,0,0,1,3.91,0,3.43,3.43,0,0,1,1.34.93,3.76,3.76,0,0,1,.77,1.42,6.4,6.4,0,0,1,.25,1.79Zm-2.51-.74a2.69,2.69,0,0,0-.43-1.71,1.69,1.69,0,0,0-1.44-.62,1.79,1.79,0,0,0-.86.19,1.71,1.71,0,0,0-.6.5,2.09,2.09,0,0,0-.37.73,3.4,3.4,0,0,0-.15.91Z"/><path class="cls-1" d="M125.58,33.37a5.35,5.35,0,0,1,0,.61,1.49,1.49,0,0,1-.06.37.31.31,0,0,1-.11.18.22.22,0,0,1-.16,0l-.19,0-.23-.08-.28-.08a1.79,1.79,0,0,0-.34,0,1.11,1.11,0,0,0-.43.09,1.57,1.57,0,0,0-.45.27,3.21,3.21,0,0,0-.48.49,6.93,6.93,0,0,0-.54.76v5.7a.28.28,0,0,1-.06.18A.51.51,0,0,1,122,42a1.71,1.71,0,0,1-.39.07,6.63,6.63,0,0,1-1.26,0A1.71,1.71,0,0,1,120,42a.51.51,0,0,1-.21-.13.28.28,0,0,1-.06-.18V32.52a.35.35,0,0,1,.05-.18.44.44,0,0,1,.18-.13,2.15,2.15,0,0,1,.35-.07,3.79,3.79,0,0,1,.53,0,4.06,4.06,0,0,1,.54,0,1.68,1.68,0,0,1,.33.07.4.4,0,0,1,.17.13.27.27,0,0,1,0,.18v1.14a8.68,8.68,0,0,1,.68-.85,3.82,3.82,0,0,1,.6-.52,2.36,2.36,0,0,1,.58-.28,2.22,2.22,0,0,1,.57-.07h.29L125,32l.29.09a.52.52,0,0,1,.17.09.47.47,0,0,1,.09.12,1.08,1.08,0,0,1,0,.17,1.27,1.27,0,0,1,0,.32C125.58,32.93,125.58,33.13,125.58,33.37Z"/><path class="cls-1" d="M136.38,37a8.68,8.68,0,0,1-.26,2.2,5,5,0,0,1-.76,1.67,3.35,3.35,0,0,1-1.26,1.05,3.71,3.71,0,0,1-1.71.37,3.35,3.35,0,0,1-.73-.07,3.19,3.19,0,0,1-.65-.24,5.29,5.29,0,0,1-.62-.39c-.2-.16-.41-.35-.63-.56V45.3a.28.28,0,0,1-.06.18.55.55,0,0,1-.21.14,1.7,1.7,0,0,1-.4.09,5.22,5.22,0,0,1-.62,0,5.29,5.29,0,0,1-.63,0,1.7,1.7,0,0,1-.4-.09.55.55,0,0,1-.21-.14.28.28,0,0,1-.06-.18V32.52a.35.35,0,0,1,0-.18.52.52,0,0,1,.18-.13,2,2,0,0,1,.34-.07,3.89,3.89,0,0,1,.53,0,3.74,3.74,0,0,1,.52,0,2,2,0,0,1,.34.07.52.52,0,0,1,.18.13.35.35,0,0,1,.05.18V33.6a8.41,8.41,0,0,1,.78-.72,4.74,4.74,0,0,1,.79-.53,3.54,3.54,0,0,1,.82-.31,3.85,3.85,0,0,1,.91-.1,3.49,3.49,0,0,1,1.71.39,3.31,3.31,0,0,1,1.15,1.08,5,5,0,0,1,.66,1.6A9.34,9.34,0,0,1,136.38,37Zm-2.69.19a6.91,6.91,0,0,0-.08-1.13,3.31,3.31,0,0,0-.3-1,1.78,1.78,0,0,0-.55-.68,1.48,1.48,0,0,0-.86-.25,1.81,1.81,0,0,0-.51.08,1.85,1.85,0,0,0-.51.25,4.94,4.94,0,0,0-.54.45,7.47,7.47,0,0,0-.58.69v3a5.5,5.5,0,0,0,1,1.06,1.68,1.68,0,0,0,1,.38,1.41,1.41,0,0,0,.85-.26,1.89,1.89,0,0,0,.58-.67,3.38,3.38,0,0,0,.34-.94A5.24,5.24,0,0,0,133.69,37.15Z"/><path class="cls-1" d="M147.69,37a6.92,6.92,0,0,1-.31,2.14,4.44,4.44,0,0,1-.93,1.66,4.18,4.18,0,0,1-1.57,1.07,5.73,5.73,0,0,1-2.2.38,6,6,0,0,1-2.13-.34,3.7,3.7,0,0,1-1.49-1,4,4,0,0,1-.88-1.59,7.13,7.13,0,0,1-.29-2.15,6.92,6.92,0,0,1,.31-2.14,4.44,4.44,0,0,1,.94-1.66,4.22,4.22,0,0,1,1.56-1.07,5.73,5.73,0,0,1,2.2-.38,6.29,6.29,0,0,1,2.14.33,3.77,3.77,0,0,1,1.49,1,4.08,4.08,0,0,1,.87,1.59A7.15,7.15,0,0,1,147.69,37Zm-2.65.11a6.84,6.84,0,0,0-.11-1.25,2.91,2.91,0,0,0-.37-1,1.87,1.87,0,0,0-.68-.66,2.26,2.26,0,0,0-1.07-.23,2.23,2.23,0,0,0-1,.21,1.75,1.75,0,0,0-.71.61,2.82,2.82,0,0,0-.42,1,5.63,5.63,0,0,0-.14,1.3,6,6,0,0,0,.12,1.24,2.91,2.91,0,0,0,.36,1,1.77,1.77,0,0,0,.68.65,2.2,2.2,0,0,0,1.07.23,2.25,2.25,0,0,0,1-.21,1.75,1.75,0,0,0,.71-.61,2.68,2.68,0,0,0,.41-1A5.6,5.6,0,0,0,145,37.11Z"/><path class="cls-1" d="M152.51,29.43a1.44,1.44,0,0,1-.32,1.07,2.49,2.49,0,0,1-2.35,0,1.39,1.39,0,0,1-.3-1,1.47,1.47,0,0,1,.31-1.08,1.67,1.67,0,0,1,1.18-.31,1.74,1.74,0,0,1,1.17.29A1.42,1.42,0,0,1,152.51,29.43Zm-.19,12.24a.29.29,0,0,1-.07.18A.51.51,0,0,1,152,42a1.71,1.71,0,0,1-.39.07,5.41,5.41,0,0,1-.63,0,5.22,5.22,0,0,1-.62,0A1.71,1.71,0,0,1,150,42a.51.51,0,0,1-.21-.13.28.28,0,0,1-.06-.18V32.54a.28.28,0,0,1,.06-.18.51.51,0,0,1,.21-.13,1.59,1.59,0,0,1,.4-.09,5.22,5.22,0,0,1,.62,0,5.41,5.41,0,0,1,.63,0,1.61,1.61,0,0,1,.39.09.51.51,0,0,1,.21.13.29.29,0,0,1,.07.18Z"/><path class="cls-1" d="M163.63,41.67a.29.29,0,0,1-.07.18.53.53,0,0,1-.2.13,1.71,1.71,0,0,1-.4.07,5.22,5.22,0,0,1-.62,0,5.53,5.53,0,0,1-.63,0,1.61,1.61,0,0,1-.39-.07.51.51,0,0,1-.21-.13.28.28,0,0,1-.06-.18V36.45a4.23,4.23,0,0,0-.1-1.05,1.83,1.83,0,0,0-.28-.65,1.27,1.27,0,0,0-.47-.42,1.52,1.52,0,0,0-.69-.15,1.7,1.7,0,0,0-1,.36,5.45,5.45,0,0,0-1.05,1.05v6.08a.28.28,0,0,1-.06.18.51.51,0,0,1-.21.13,1.71,1.71,0,0,1-.39.07,5.53,5.53,0,0,1-.63,0,5.22,5.22,0,0,1-.62,0,1.71,1.71,0,0,1-.4-.07.51.51,0,0,1-.21-.13.28.28,0,0,1-.06-.18V32.52a.35.35,0,0,1,.05-.18.44.44,0,0,1,.18-.13,2.15,2.15,0,0,1,.35-.07,3.79,3.79,0,0,1,.53,0,4,4,0,0,1,.54,0,1.68,1.68,0,0,1,.33.07.4.4,0,0,1,.17.13.27.27,0,0,1,.05.18v1.06a5.65,5.65,0,0,1,1.55-1.23,3.52,3.52,0,0,1,1.63-.41,3.59,3.59,0,0,1,1.58.31,2.73,2.73,0,0,1,1,.83,3.53,3.53,0,0,1,.57,1.24,7,7,0,0,1,.18,1.7Z"/><path class="cls-1" d="M171.38,40.77a3.9,3.9,0,0,1,0,.69.59.59,0,0,1-.42.51,2.08,2.08,0,0,1-.42.13,3.89,3.89,0,0,1-.53.09,5.3,5.3,0,0,1-.57,0,4.1,4.1,0,0,1-1.33-.19,2.14,2.14,0,0,1-.93-.6,2.5,2.5,0,0,1-.55-1,5.68,5.68,0,0,1-.17-1.46V34.27h-1.1c-.13,0-.23-.08-.29-.25a2.13,2.13,0,0,1-.11-.8,3.43,3.43,0,0,1,0-.5,1.14,1.14,0,0,1,.08-.33.43.43,0,0,1,.12-.17.35.35,0,0,1,.18,0h1.09v-2a.3.3,0,0,1,.06-.18.36.36,0,0,1,.2-.14,1.28,1.28,0,0,1,.4-.08,5.46,5.46,0,0,1,.62,0,5.53,5.53,0,0,1,.63,0,1.28,1.28,0,0,1,.4.08.45.45,0,0,1,.2.14.3.3,0,0,1,.06.18v2h2a.35.35,0,0,1,.18,0,.45.45,0,0,1,.13.17,1.59,1.59,0,0,1,.08.33c0,.13,0,.3,0,.5a2.17,2.17,0,0,1-.1.8c-.07.17-.17.25-.3.25h-2v4.29a2.07,2.07,0,0,0,.24,1.12.92.92,0,0,0,.84.38,1.4,1.4,0,0,0,.37,0,1.71,1.71,0,0,0,.29-.08l.22-.08a.34.34,0,0,1,.16,0,.15.15,0,0,1,.11,0,.21.21,0,0,1,.09.14,2.84,2.84,0,0,1,.06.29C171.37,40.42,171.38,40.58,171.38,40.77Z"/><path class="cls-2" d="M60.67,9.78c0-2.88-.6-3.49-3.43-3.5q-10.1,0-20.18,0H34.55V0L0,6.15V51.46c3.91.72,7.75,1.43,11.6,2.12s7.58,1.35,11.37,2,7.61,1.54,11.68,1.92V50.27H56.86c3.08,0,3.81-.71,3.81-3.69V9.78M22.54,27.65c-.83,2.65-2.85,3.84-5.47,4.15a21.52,21.52,0,0,1-2.29,0v6.53H11.49V19c2.46,0,4.74.05,7,0a4.33,4.33,0,0,1,4.11,3.32,10.13,10.13,0,0,1-.09,5.38M58.29,47.83c-1.92.3-19,.4-23.65.12V43.28c3-.12,6.06,0,9.11-.05s6.16,0,9.18,0c.85-.82.61-1.62.29-2.65H34.69V37.21a36.56,36.56,0,0,1,6-.17c2.06,0,4.12,0,6.17,0H53a2.89,2.89,0,0,0,.12-2.69H34.67v-6.1C41.24,33.34,48,30.9,49.15,22.8h-8c-.49-2.86,0-5.55-.33-8.35a9,9,0,0,0-6.05,2.74V8.36H58.13c.41,1.72.55,35.8.16,39.47"/><path class="cls-2" d="M42.32,13.19v8.17h8.26c-.36-4.87-3.47-7.91-8.26-8.17"/><path class="cls-2" d="M14.84,22.56v5.66a3.07,3.07,0,0,0,3.75-1.07,4.22,4.22,0,0,0-.15-4c-1.07-1.16-2.33-.89-3.6-.58"/></g></g></svg>