<svg xmlns="http://www.w3.org/2000/svg" viewBox="0 0 152.12 57.3"><defs><style>.cls-1{fill:#4d4d4f;}.cls-2{fill:#077467;}</style></defs><title>Asset 22ico</title><g id="Layer_2" data-name="Layer 2"><g id="Layer_1-2" data-name="Layer 1"><path class="cls-1" d="M82.74,17.39a.13.13,0,0,1,0,.09.12.12,0,0,1-.08.06l-.15,0-.23,0-.22,0-.15,0a.16.16,0,0,1-.08-.06.24.24,0,0,1,0-.09V8.28h0l-4,9.17,0,.06a.2.2,0,0,1-.08,0l-.13,0h-.37l-.13,0-.08,0,0-.06L73.14,8.28h0v9.11a.13.13,0,0,1,0,.09.1.1,0,0,1-.08.06l-.15,0-.24,0-.22,0-.15,0a.11.11,0,0,1-.07-.06.24.24,0,0,1,0-.09V7.93a.44.44,0,0,1,.15-.38.5.5,0,0,1,.29-.11h.51a1.78,1.78,0,0,1,.35,0,.79.79,0,0,1,.26.13.61.61,0,0,1,.19.2,2.15,2.15,0,0,1,.14.26l3.34,8h0l3.47-8a2.16,2.16,0,0,1,.17-.31.78.78,0,0,1,.19-.21.53.53,0,0,1,.21-.11,1,1,0,0,1,.25,0h.57l.14,0a.46.46,0,0,1,.15.09.56.56,0,0,1,.1.15.53.53,0,0,1,0,.23Z"/><path class="cls-1" d="M86.6,7.94a.72.72,0,0,1-.14.51.67.67,0,0,1-.48.13.63.63,0,0,1-.47-.13.68.68,0,0,1-.13-.5.73.73,0,0,1,.13-.51,1,1,0,0,1,1,0A.73.73,0,0,1,86.6,7.94Zm-.15,9.45a.13.13,0,0,1,0,.09.11.11,0,0,1-.07.06l-.14,0-.23,0-.23,0a.39.39,0,0,1-.14,0,.12.12,0,0,1-.08-.06.24.24,0,0,1,0-.09V10.32a.19.19,0,0,1,0-.08.19.19,0,0,1,.08-.07.39.39,0,0,1,.14,0h.46l.14,0a.16.16,0,0,1,.07.07.11.11,0,0,1,0,.08Z"/><path class="cls-1" d="M94,16.35v.17s0,.09,0,.12a.3.3,0,0,1,0,.1,1.07,1.07,0,0,1-.13.15,2.74,2.74,0,0,1-.34.25,3,3,0,0,1-.53.28,4.11,4.11,0,0,1-.65.19,3.23,3.23,0,0,1-.71.07,3.31,3.31,0,0,1-1.3-.24,2.61,2.61,0,0,1-1-.73,3.34,3.34,0,0,1-.58-1.18,6,6,0,0,1-.2-1.61,5.43,5.43,0,0,1,.25-1.77,3.3,3.3,0,0,1,.67-1.2,2.76,2.76,0,0,1,1-.69A3.32,3.32,0,0,1,91.69,10a3.62,3.62,0,0,1,.67.07,3.39,3.39,0,0,1,.59.18,2.17,2.17,0,0,1,.48.25,1.87,1.87,0,0,1,.31.24.72.72,0,0,1,.13.14.45.45,0,0,1,.06.12.51.51,0,0,1,0,.13,1,1,0,0,1,0,.18.62.62,0,0,1-.06.32.2.2,0,0,1-.15.09.46.46,0,0,1-.27-.15,3.38,3.38,0,0,0-.41-.3,2.81,2.81,0,0,0-.6-.31,2.2,2.2,0,0,0-.85-.14,1.81,1.81,0,0,0-1.57.78,4,4,0,0,0-.55,2.26,5.1,5.1,0,0,0,.15,1.3,2.67,2.67,0,0,0,.43.93,1.77,1.77,0,0,0,.67.55,2.19,2.19,0,0,0,.9.18,2.16,2.16,0,0,0,.83-.14,3.25,3.25,0,0,0,.62-.33,3.85,3.85,0,0,0,.44-.33.53.53,0,0,1,.27-.15.13.13,0,0,1,.08,0A.35.35,0,0,1,94,16a1.06,1.06,0,0,1,0,.14A1,1,0,0,1,94,16.35Z"/><path class="cls-1" d="M99.78,10.68a1.15,1.15,0,0,1,0,.2.52.52,0,0,1,0,.14l0,.07a.09.09,0,0,1-.07,0l-.17,0L99.24,11,99,10.94a1.15,1.15,0,0,0-.33,0,1,1,0,0,0-.41.09,1.71,1.71,0,0,0-.43.29,3.72,3.72,0,0,0-.47.53c-.16.22-.34.49-.54.8v4.78a.24.24,0,0,1,0,.09.12.12,0,0,1-.08.06.39.39,0,0,1-.14,0l-.23,0-.22,0-.15,0a.11.11,0,0,1-.07-.06.24.24,0,0,1,0-.09V10.32a.19.19,0,0,1,0-.08.16.16,0,0,1,.07-.07l.14,0h.43a.39.39,0,0,1,.14,0,.13.13,0,0,1,.06.07.11.11,0,0,1,0,.08v1.12a5.48,5.48,0,0,1,.57-.72,2.56,2.56,0,0,1,.49-.42,1.35,1.35,0,0,1,.46-.21,1.68,1.68,0,0,1,.45-.06l.24,0a1.45,1.45,0,0,1,.28,0l.28.07.16.08.07.06a.19.19,0,0,1,0,.07.37.37,0,0,1,0,.12Z"/><path class="cls-1" d="M107.33,13.78a5.11,5.11,0,0,1-.22,1.56,3.37,3.37,0,0,1-.65,1.23,3,3,0,0,1-1.08.82,4.12,4.12,0,0,1-3,0,2.7,2.7,0,0,1-1-.75,3,3,0,0,1-.62-1.18,5.94,5.94,0,0,1,0-3.13,3.62,3.62,0,0,1,.65-1.23,3.14,3.14,0,0,1,1.08-.81A3.78,3.78,0,0,1,104,10a3.83,3.83,0,0,1,1.45.26,2.59,2.59,0,0,1,1,.75,3.18,3.18,0,0,1,.63,1.18A5.45,5.45,0,0,1,107.33,13.78Zm-1,.09a5.4,5.4,0,0,0-.12-1.15,2.94,2.94,0,0,0-.39-1,2.08,2.08,0,0,0-.74-.67,2.84,2.84,0,0,0-2.24,0,2,2,0,0,0-.75.63,2.86,2.86,0,0,0-.44,1,5,5,0,0,0-.14,1.18,5.43,5.43,0,0,0,.12,1.16,2.9,2.9,0,0,0,.39,1,2,2,0,0,0,.73.65,2.51,2.51,0,0,0,1.15.24,2.48,2.48,0,0,0,1.1-.22,2,2,0,0,0,.75-.63,2.54,2.54,0,0,0,.43-.94A4.51,4.51,0,0,0,106.35,13.87Z"/><path class="cls-1" d="M113.57,15.51a2.06,2.06,0,0,1-.19.91,1.77,1.77,0,0,1-.53.68,2.26,2.26,0,0,1-.83.43,3.64,3.64,0,0,1-1.07.15,3.88,3.88,0,0,1-.7-.06,3,3,0,0,1-.59-.14,2.4,2.4,0,0,1-.45-.2,1,1,0,0,1-.27-.18.43.43,0,0,1-.13-.19,1.23,1.23,0,0,1,0-.31.9.9,0,0,1,0-.18.57.57,0,0,1,0-.14l.06-.08a.15.15,0,0,1,.09,0,.51.51,0,0,1,.25.1,2.47,2.47,0,0,0,.41.24,3.17,3.17,0,0,0,.58.24,2.83,2.83,0,0,0,1.45,0,1.59,1.59,0,0,0,.51-.23,1.09,1.09,0,0,0,.34-.4,1.34,1.34,0,0,0,.12-.58,1,1,0,0,0-.15-.55,1.73,1.73,0,0,0-.41-.4,3.14,3.14,0,0,0-.58-.29l-.67-.27q-.33-.13-.66-.3a2.39,2.39,0,0,1-.58-.4,1.93,1.93,0,0,1-.41-.56A1.88,1.88,0,0,1,109,12a1.79,1.79,0,0,1,.15-.72,1.68,1.68,0,0,1,.43-.64,2,2,0,0,1,.75-.45,2.91,2.91,0,0,1,1.08-.18,3.17,3.17,0,0,1,.53.05,3.38,3.38,0,0,1,.48.11l.37.15.23.15c.06,0,.1.07.11.1a.18.18,0,0,1,0,.09.37.37,0,0,1,0,.12.71.71,0,0,1,0,.16.81.81,0,0,1,0,.16.4.4,0,0,1,0,.13.15.15,0,0,1-.06.09l-.08,0a.42.42,0,0,1-.18-.08l-.33-.19a3.35,3.35,0,0,0-.49-.19,2.1,2.1,0,0,0-.65-.08,2.08,2.08,0,0,0-.64.08,1.43,1.43,0,0,0-.46.24,1.07,1.07,0,0,0-.27.37,1.18,1.18,0,0,0-.09.46,1.07,1.07,0,0,0,.16.58,1.45,1.45,0,0,0,.41.41,4.06,4.06,0,0,0,.59.3l.67.27c.22.09.45.18.67.29a2.94,2.94,0,0,1,.58.39,1.87,1.87,0,0,1,.42.54A1.75,1.75,0,0,1,113.57,15.51Z"/><path class="cls-1" d="M121.86,13.78a5.11,5.11,0,0,1-.22,1.56,3.37,3.37,0,0,1-.65,1.23,3,3,0,0,1-1.08.82,3.57,3.57,0,0,1-1.51.29,3.61,3.61,0,0,1-1.45-.26,2.7,2.7,0,0,1-1-.75,3,3,0,0,1-.62-1.18,5.94,5.94,0,0,1,0-3.13,3.62,3.62,0,0,1,.65-1.23,3.14,3.14,0,0,1,1.08-.81,4.15,4.15,0,0,1,3,0,2.59,2.59,0,0,1,1,.75,3.18,3.18,0,0,1,.63,1.18A5.45,5.45,0,0,1,121.86,13.78Zm-1,.09a5.4,5.4,0,0,0-.12-1.15,2.94,2.94,0,0,0-.39-1,2,2,0,0,0-.74-.67,2.44,2.44,0,0,0-1.14-.24,2.48,2.48,0,0,0-1.1.22,2,2,0,0,0-.75.63,2.86,2.86,0,0,0-.44,1,5,5,0,0,0-.14,1.18,5.43,5.43,0,0,0,.12,1.16,2.9,2.9,0,0,0,.39,1,2,2,0,0,0,.74.65,2.44,2.44,0,0,0,1.14.24,2.48,2.48,0,0,0,1.1-.22,1.92,1.92,0,0,0,.75-.63,2.72,2.72,0,0,0,.44-.94A5,5,0,0,0,120.88,13.87Z"/><path class="cls-1" d="M125.2,11v6.44a.14.14,0,0,1,0,.09.11.11,0,0,1-.07.06.39.39,0,0,1-.15,0l-.22,0-.22,0-.15,0a.09.09,0,0,1-.07-.06.13.13,0,0,1,0-.09V11H123.2a.17.17,0,0,1-.16-.1.55.55,0,0,1-.06-.29,1,1,0,0,1,0-.18.33.33,0,0,1,.05-.12.19.19,0,0,1,.07-.08l.09,0h1.07V9.35a5.14,5.14,0,0,1,.13-1.26,2.17,2.17,0,0,1,.4-.85,1.57,1.57,0,0,1,.68-.48,2.69,2.69,0,0,1,.94-.15,2.51,2.51,0,0,1,.55.06,3,3,0,0,1,.37.11.83.83,0,0,1,.15.09.41.41,0,0,1,.07.11.57.57,0,0,1,0,.14,1.15,1.15,0,0,1,0,.19.69.69,0,0,1,0,.28.08.08,0,0,1,0,0l-.07,0a.27.27,0,0,1-.14,0l-.22-.09-.3-.08a1.73,1.73,0,0,0-.41,0,1.19,1.19,0,0,0-.56.11.82.82,0,0,0-.36.33,1.7,1.7,0,0,0-.2.59,5.61,5.61,0,0,0-.06.88v.84h3.45V8.43a.24.24,0,0,1,0-.09.19.19,0,0,1,.08-.07.39.39,0,0,1,.14,0h.45a.39.39,0,0,1,.14,0,.19.19,0,0,1,.08.07.24.24,0,0,1,0,.09v1.73h1.95l.1,0a.19.19,0,0,1,.07.08.22.22,0,0,1,.05.12.9.9,0,0,1,0,.18.46.46,0,0,1-.07.29.18.18,0,0,1-.17.1h-1.95v4.27a2.66,2.66,0,0,0,.23,1.23.87.87,0,0,0,.84.42,1.22,1.22,0,0,0,.34,0l.27-.08.2-.09a.34.34,0,0,1,.15,0l.07,0a.1.1,0,0,1,0,.05.36.36,0,0,1,0,.11c0,.05,0,.1,0,.17a1,1,0,0,1,0,.27.35.35,0,0,1-.09.16.74.74,0,0,1-.16.11,1.6,1.6,0,0,1-.26.08,1.7,1.7,0,0,1-.31.06l-.32,0a2.58,2.58,0,0,1-.9-.14,1.41,1.41,0,0,1-.6-.43,1.72,1.72,0,0,1-.34-.72,4.45,4.45,0,0,1-.11-1V11Z"/><path class="cls-1" d="M139.32,9.57a3,3,0,0,1-.23,1.16,2.82,2.82,0,0,1-.63.95,2.78,2.78,0,0,1-.94.63,2.84,2.84,0,0,1-1.17.23,3,3,0,0,1-1.18-.22,2.71,2.71,0,0,1-.93-.62,2.84,2.84,0,0,1-.61-.93,3.31,3.31,0,0,1-.21-1.19,2.87,2.87,0,0,1,.23-1.17,3,3,0,0,1,.62-.94,3.15,3.15,0,0,1,.95-.63,3,3,0,0,1,1.16-.23,3,3,0,0,1,1.19.23,2.69,2.69,0,0,1,.93.61,3,3,0,0,1,.61.94A3.22,3.22,0,0,1,139.32,9.57Zm-.58,0a2.8,2.8,0,0,0-.18-1,2.35,2.35,0,0,0-.49-.79,2,2,0,0,0-.75-.5,2.52,2.52,0,0,0-1.92,0,2.34,2.34,0,0,0-.75.52,2.27,2.27,0,0,0-.48.77,2.41,2.41,0,0,0-.18.93,2.82,2.82,0,0,0,.18,1,2.32,2.32,0,0,0,.5.78,2.17,2.17,0,0,0,.75.51,2.33,2.33,0,0,0,.93.17,2.4,2.4,0,0,0,1-.19,2.31,2.31,0,0,0,.76-.53,2.63,2.63,0,0,0,.48-.77A2.6,2.6,0,0,0,138.74,9.61Zm-1,1.46v.06a.06.06,0,0,1-.05,0l-.11,0h-.39l-.13,0a.2.2,0,0,1-.07-.06.15.15,0,0,1,0-.08l-.18-.56a.87.87,0,0,0-.25-.43.61.61,0,0,0-.44-.13h-.22v1.16a.12.12,0,0,1-.05.1.75.75,0,0,1-.27,0,.81.81,0,0,1-.28,0,.11.11,0,0,1-.06-.1V8.18a.36.36,0,0,1,.07-.24.29.29,0,0,1,.23-.09h.84a2.29,2.29,0,0,1,.56.06,1.13,1.13,0,0,1,.4.18.76.76,0,0,1,.23.3,1,1,0,0,1,.07.39.81.81,0,0,1-.2.59,1.22,1.22,0,0,1-.55.3,1,1,0,0,1,.35.21,1.4,1.4,0,0,1,.29.46l.2.53A.73.73,0,0,1,137.74,11.07Zm-.86-2.21a.47.47,0,0,0,0-.17.31.31,0,0,0-.1-.15.67.67,0,0,0-.19-.1,1.3,1.3,0,0,0-.31,0h-.39v.95h.38a.71.71,0,0,0,.5-.13A.51.51,0,0,0,136.88,8.86Z"/><path class="cls-1" d="M81.24,31.94a5.26,5.26,0,0,1-.35,2,3.78,3.78,0,0,1-1,1.45,4.44,4.44,0,0,1-1.63.9,7.46,7.46,0,0,1-2.29.31h-1.1v4.23a.34.34,0,0,1-.07.19.46.46,0,0,1-.22.13,1.74,1.74,0,0,1-.41.08,7.17,7.17,0,0,1-1.31,0,1.74,1.74,0,0,1-.41-.08.41.41,0,0,1-.22-.13.33.33,0,0,1-.06-.19V28.88a1,1,0,0,1,.25-.73.92.92,0,0,1,.66-.24h3.13c.31,0,.61,0,.9,0a8.39,8.39,0,0,1,1,.15,4.61,4.61,0,0,1,1.2.44,3.48,3.48,0,0,1,1,.8A3.41,3.41,0,0,1,81,30.48,4.47,4.47,0,0,1,81.24,31.94Zm-2.82.2A2.42,2.42,0,0,0,78.17,31a1.74,1.74,0,0,0-.61-.67,2.12,2.12,0,0,0-.75-.27A5.32,5.32,0,0,0,76,30H74.85V34.5h1.21a2.83,2.83,0,0,0,1.08-.18,1.82,1.82,0,0,0,.71-.48,2,2,0,0,0,.42-.75A2.91,2.91,0,0,0,78.42,32.14Z"/><path class="cls-1" d="M91.85,40.83a.35.35,0,0,1,0,.18.42.42,0,0,1-.18.13,1.31,1.31,0,0,1-.34.08l-.53,0-.55,0a1.14,1.14,0,0,1-.33-.08.42.42,0,0,1-.18-.13.35.35,0,0,1,0-.18v-1A6,6,0,0,1,88.1,41a3.48,3.48,0,0,1-1.62.41,3.75,3.75,0,0,1-1.59-.31,2.67,2.67,0,0,1-1-.84A3.28,3.28,0,0,1,83.29,39a7.69,7.69,0,0,1-.17-1.74v-5.6a.28.28,0,0,1,.06-.18.39.39,0,0,1,.2-.13,2.55,2.55,0,0,1,.4-.08l.62,0,.63,0a2.39,2.39,0,0,1,.39.08.42.42,0,0,1,.21.13.24.24,0,0,1,.07.18v5.16a5.06,5.06,0,0,0,.09,1.1,1.75,1.75,0,0,0,.28.65,1.38,1.38,0,0,0,.48.42,1.48,1.48,0,0,0,.68.15,1.68,1.68,0,0,0,1-.36,5.39,5.39,0,0,0,1.06-1V31.69a.28.28,0,0,1,.06-.18.42.42,0,0,1,.21-.13,2.39,2.39,0,0,1,.39-.08l.63,0,.62,0a2,2,0,0,1,.39.08.42.42,0,0,1,.21.13.28.28,0,0,1,.06.18Z"/><path class="cls-1" d="M103.65,36.14a8.21,8.21,0,0,1-.27,2.19,4.8,4.8,0,0,1-.77,1.66,3.38,3.38,0,0,1-1.23,1.06,3.63,3.63,0,0,1-1.67.37,3.91,3.91,0,0,1-.86-.09,2.89,2.89,0,0,1-.76-.28,4,4,0,0,1-.72-.49,6.11,6.11,0,0,1-.72-.72v1a.29.29,0,0,1-.06.19.42.42,0,0,1-.18.13,1,1,0,0,1-.35.07,4,4,0,0,1-.52,0,4.11,4.11,0,0,1-.53,0,1,1,0,0,1-.34-.07.42.42,0,0,1-.18-.13.36.36,0,0,1,0-.19V27.35a.33.33,0,0,1,.06-.19.42.42,0,0,1,.21-.13,1.59,1.59,0,0,1,.4-.09,5.22,5.22,0,0,1,.62,0,5.41,5.41,0,0,1,.63,0,1.61,1.61,0,0,1,.39.09.42.42,0,0,1,.21.13.28.28,0,0,1,.07.19v5a5.17,5.17,0,0,1,.69-.59,5.76,5.76,0,0,1,.7-.41,3.56,3.56,0,0,1,.72-.23,4.71,4.71,0,0,1,.78-.07,3.42,3.42,0,0,1,1.72.41,3.25,3.25,0,0,1,1.15,1.09,4.68,4.68,0,0,1,.65,1.6A8.74,8.74,0,0,1,103.65,36.14Zm-2.68.18a8.35,8.35,0,0,0-.08-1.13,3.09,3.09,0,0,0-.31-1,1.85,1.85,0,0,0-.56-.67,1.37,1.37,0,0,0-.86-.25,1.68,1.68,0,0,0-.5.07,1.72,1.72,0,0,0-.51.25,2.68,2.68,0,0,0-.54.45,6.14,6.14,0,0,0-.58.68v3a5.25,5.25,0,0,0,1,1.06,1.73,1.73,0,0,0,1,.36A1.4,1.4,0,0,0,100,39a2.23,2.23,0,0,0,.58-.67,3.19,3.19,0,0,0,.33-.93A5.33,5.33,0,0,0,101,36.32Z"/><path class="cls-1" d="M108.3,40.83a.29.29,0,0,1-.07.18.42.42,0,0,1-.21.13,1.66,1.66,0,0,1-.39.08l-.63,0-.62,0a1.65,1.65,0,0,1-.4-.08.42.42,0,0,1-.21-.13.28.28,0,0,1-.06-.18V27.35a.33.33,0,0,1,.06-.19A.42.42,0,0,1,106,27a1.59,1.59,0,0,1,.4-.09,5.22,5.22,0,0,1,.62,0,5.41,5.41,0,0,1,.63,0A1.61,1.61,0,0,1,108,27a.42.42,0,0,1,.21.13.34.34,0,0,1,.07.19Z"/><path class="cls-1" d="M113.65,28.59a1.47,1.47,0,0,1-.32,1.08,2.56,2.56,0,0,1-2.35,0,1.42,1.42,0,0,1-.3-1,1.47,1.47,0,0,1,.31-1.08,1.73,1.73,0,0,1,1.18-.3,1.69,1.69,0,0,1,1.17.29A1.38,1.38,0,0,1,113.65,28.59Zm-.2,12.24a.28.28,0,0,1-.06.18.42.42,0,0,1-.21.13,1.66,1.66,0,0,1-.39.08l-.63,0-.62,0a1.65,1.65,0,0,1-.4-.08.42.42,0,0,1-.21-.13.28.28,0,0,1-.06-.18V31.71a.28.28,0,0,1,.06-.18.42.42,0,0,1,.21-.13,1.59,1.59,0,0,1,.4-.09,5.22,5.22,0,0,1,.62,0,5.53,5.53,0,0,1,.63,0,1.61,1.61,0,0,1,.39.09.42.42,0,0,1,.21.13.28.28,0,0,1,.06.18Z"/><path class="cls-1" d="M122.47,38.25a3,3,0,0,1-.3,1.37,2.74,2.74,0,0,1-.82,1,3.87,3.87,0,0,1-1.26.6,6.1,6.1,0,0,1-1.58.2,6.17,6.17,0,0,1-1-.08,5.81,5.81,0,0,1-.84-.19,3.64,3.64,0,0,1-.61-.25,1.12,1.12,0,0,1-.36-.23.64.64,0,0,1-.17-.33,2.42,2.42,0,0,1-.07-.69c0-.19,0-.35,0-.47a1.37,1.37,0,0,1,.07-.29.22.22,0,0,1,.1-.14.24.24,0,0,1,.15,0,.67.67,0,0,1,.33.13c.15.08.33.18.55.28a6.62,6.62,0,0,0,.77.29,3.35,3.35,0,0,0,1,.13,2.35,2.35,0,0,0,.62-.07,1.56,1.56,0,0,0,.47-.21.86.86,0,0,0,.3-.33,1.06,1.06,0,0,0,.1-.48.74.74,0,0,0-.19-.52,1.55,1.55,0,0,0-.5-.39,6,6,0,0,0-.71-.31l-.81-.31c-.27-.12-.54-.25-.81-.4a3.13,3.13,0,0,1-.7-.56,2.56,2.56,0,0,1-.51-.79,3,3,0,0,1-.19-1.1,2.86,2.86,0,0,1,.26-1.21,2.69,2.69,0,0,1,.74-.94,3.4,3.4,0,0,1,1.17-.6,5,5,0,0,1,1.56-.22,5.69,5.69,0,0,1,.83.06c.27.05.52.1.74.16a3.81,3.81,0,0,1,.55.2,1.63,1.63,0,0,1,.32.18.5.5,0,0,1,.14.16.48.48,0,0,1,.06.18,1.56,1.56,0,0,1,0,.27c0,.1,0,.24,0,.39s0,.34,0,.45a1.43,1.43,0,0,1,0,.28.32.32,0,0,1-.1.14.32.32,0,0,1-.14,0,.66.66,0,0,1-.29-.1,4.68,4.68,0,0,0-.49-.23,4.14,4.14,0,0,0-.68-.23,2.87,2.87,0,0,0-.87-.11,2.22,2.22,0,0,0-.61.07,1.37,1.37,0,0,0-.42.2.82.82,0,0,0-.24.32.84.84,0,0,0-.08.38.79.79,0,0,0,.19.54,1.68,1.68,0,0,0,.51.37,5,5,0,0,0,.73.31c.27.1.54.2.82.32a7.61,7.61,0,0,1,.82.39,3,3,0,0,1,.72.55,2.56,2.56,0,0,1,.51.79A2.7,2.7,0,0,1,122.47,38.25Z"/><path class="cls-1" d="M133.14,40.83a.28.28,0,0,1-.06.18.42.42,0,0,1-.21.13,1.46,1.46,0,0,1-.39.08l-.62,0-.63,0a1.65,1.65,0,0,1-.4-.08.44.44,0,0,1-.2-.13.28.28,0,0,1-.06-.18V35.61a4.6,4.6,0,0,0-.1-1,2.28,2.28,0,0,0-.28-.65,1.22,1.22,0,0,0-.48-.42,1.45,1.45,0,0,0-.68-.15,1.73,1.73,0,0,0-1,.36,5.65,5.65,0,0,0-1,1v6.08a.28.28,0,0,1-.06.18.42.42,0,0,1-.21.13,1.65,1.65,0,0,1-.4.08l-.62,0-.63,0a1.66,1.66,0,0,1-.39-.08.42.42,0,0,1-.21-.13.29.29,0,0,1-.07-.18V27.35a.34.34,0,0,1,.07-.19.42.42,0,0,1,.21-.13,1.61,1.61,0,0,1,.39-.09,5.41,5.41,0,0,1,.63,0,5.22,5.22,0,0,1,.62,0,1.59,1.59,0,0,1,.4.09.42.42,0,0,1,.21.13.33.33,0,0,1,.06.19v5a4.9,4.9,0,0,1,1.36-1,3.3,3.3,0,0,1,1.44-.33,3.66,3.66,0,0,1,1.57.31,2.88,2.88,0,0,1,1,.84A3.58,3.58,0,0,1,133,33.5a7.72,7.72,0,0,1,.17,1.73Z"/><path class="cls-1" d="M144.12,36a1,1,0,0,1-.21.7.75.75,0,0,1-.58.23h-5.56A3.9,3.9,0,0,0,137.9,38a1.9,1.9,0,0,0,1.22,1.32,3.53,3.53,0,0,0,1.15.17,6.08,6.08,0,0,0,1.19-.1,6.74,6.74,0,0,0,.88-.21c.25-.08.46-.15.62-.22a1.35,1.35,0,0,1,.4-.1.34.34,0,0,1,.16,0,.28.28,0,0,1,.1.13.77.77,0,0,1,.06.26c0,.11,0,.25,0,.43s0,.27,0,.38,0,.2,0,.27a.47.47,0,0,1-.06.19.72.72,0,0,1-.11.15,1.22,1.22,0,0,1-.36.2,6.34,6.34,0,0,1-.76.24c-.31.07-.66.14-1.06.2a8.43,8.43,0,0,1-1.27.09,6.94,6.94,0,0,1-2.14-.31,3.68,3.68,0,0,1-2.45-2.51,7.5,7.5,0,0,1-.3-2.24,7.21,7.21,0,0,1,.32-2.2,4.69,4.69,0,0,1,.92-1.66,4,4,0,0,1,1.47-1,5.07,5.07,0,0,1,2-.36,5.21,5.21,0,0,1,2,.34,3.64,3.64,0,0,1,1.34.94,3.83,3.83,0,0,1,.77,1.42,6.33,6.33,0,0,1,.24,1.78Zm-2.5-.73a2.65,2.65,0,0,0-.43-1.71,1.7,1.7,0,0,0-1.45-.62,1.9,1.9,0,0,0-.85.18,1.75,1.75,0,0,0-.61.5,2.33,2.33,0,0,0-.37.74,3.69,3.69,0,0,0-.14.91Z"/><path class="cls-1" d="M152.12,32.54c0,.24,0,.45,0,.6a1.49,1.49,0,0,1-.06.37.38.38,0,0,1-.11.19.29.29,0,0,1-.17,0,.45.45,0,0,1-.18,0l-.23-.07a2,2,0,0,0-.29-.08,1.22,1.22,0,0,0-.77,0,1.94,1.94,0,0,0-.44.27,2.8,2.8,0,0,0-.48.49,8.06,8.06,0,0,0-.54.76v5.7a.28.28,0,0,1-.06.18.42.42,0,0,1-.21.13,1.65,1.65,0,0,1-.4.08l-.62,0-.63,0a1.66,1.66,0,0,1-.39-.08.42.42,0,0,1-.21-.13.29.29,0,0,1-.07-.18V31.69a.28.28,0,0,1,.06-.18.33.33,0,0,1,.18-.13,1.9,1.9,0,0,1,.34-.08l.53,0,.55,0a1.59,1.59,0,0,1,.33.08.39.39,0,0,1,.17.13.35.35,0,0,1,0,.18v1.13a6.47,6.47,0,0,1,.68-.84,3.93,3.93,0,0,1,.6-.53,1.79,1.79,0,0,1,.58-.27,2.24,2.24,0,0,1,.57-.08l.29,0,.31.05a1.71,1.71,0,0,1,.29.08.5.5,0,0,1,.18.1.21.21,0,0,1,.08.11.58.58,0,0,1,.05.17c0,.07,0,.18,0,.32S152.12,32.29,152.12,32.54Z"/><path class="cls-2" d="M59.3,8.66a9.78,9.78,0,0,0-.35-3c-1.24-1.41-3.34-.86-5-1-4.17.18-8.38-.26-12.52.22-3,1-1.92,4.75-2.11,7.13H34.64V0h-4Q15.35,2.7,0,5.34V52c10.17,1.79,20.35,3.48,30.51,5.33h4.13V50.64c4.67,0,9.33,0,14,0,1.36,0,3.21,0,3.77-1.52.48-3,.12-6.1.22-9.14,2.08-.06,4.25.27,6.27-.39A11.92,11.92,0,0,0,59.31,36q-.06-13.66,0-27.31M19.54,30.86a9.65,9.65,0,0,1-4.88.61c0,2.61,0,5.22,0,7.84l-4-.41c.07-7.09,0-14.18,0-21.26,3.63.11,8-1.47,11.06,1.26,2.85,3.49,2.09,9.88-2.17,12M50,48.64H34.64c0-1.34,0-2.67,0-4H46V42H34.64c0-1.11,0-2.21,0-3.33H46V36H34.64q0-1.66,0-3.33H46V30H34.64q0-1.66,0-3.33H46V17.32H34.64q0-1.66,0-3.33H50Zm7.33-11.33H52.63c0-8,0-16,0-24-3.13-2.48-7.33-3.51-10.06-6.43,4.9-.43,9.83-.09,14.74-.2Z"/><path class="cls-2" d="M14.65,21.21c1.32-.07,3-.31,3.85,1a4.93,4.93,0,0,1,.06,4.35c-.77,1.36-2.48,1.23-3.81,1.38-.13-2.22-.11-4.45-.1-6.69"/></g></g></svg>