<svg xmlns="http://www.w3.org/2000/svg" viewBox="0 0 141.77 58.67"><defs><style>.cls-1{fill:#4d4d4f;}.cls-2{fill:#3652a0;}</style></defs><title>Asset 21ico</title><g id="Layer_2" data-name="Layer 2"><g id="Layer_1-2" data-name="Layer 1"><path class="cls-1" d="M85.2,19a.11.11,0,0,1,0,.08s0,0-.08.07l-.15,0-.23,0-.22,0-.15,0a.16.16,0,0,1-.07-.07.11.11,0,0,1,0-.08V9.83h0l-4,9.17,0,.06-.08.05-.13,0h-.36l-.13,0-.08-.05a.07.07,0,0,1,0-.06L75.59,9.83h0V19a.11.11,0,0,1,0,.08s0,0-.08.07l-.15,0-.24,0-.22,0-.14,0a.19.19,0,0,1-.08-.07.19.19,0,0,1,0-.08V9.49a.45.45,0,0,1,.15-.39A.53.53,0,0,1,75.07,9h.52a1.16,1.16,0,0,1,.34,0,.69.69,0,0,1,.26.12.72.72,0,0,1,.19.2,1.15,1.15,0,0,1,.14.27l3.34,8h0l3.48-8a1.59,1.59,0,0,1,.16-.32,2,2,0,0,1,.19-.21A1.06,1.06,0,0,1,83.94,9a1,1,0,0,1,.25,0h.57l.15,0a.29.29,0,0,1,.14.08.56.56,0,0,1,.1.15.54.54,0,0,1,0,.24Z"/><path class="cls-1" d="M89.05,9.49a.78.78,0,0,1-.13.51,1,1,0,0,1-1,0,.73.73,0,0,1-.13-.51A.73.73,0,0,1,88,9a.69.69,0,0,1,.49-.13.64.64,0,0,1,.47.13A.75.75,0,0,1,89.05,9.49ZM88.91,19a.11.11,0,0,1,0,.08.16.16,0,0,1-.07.07l-.14,0-.23,0-.22,0-.15,0A.16.16,0,0,1,88,19,.11.11,0,0,1,88,19V11.88a.15.15,0,0,1,0-.09.16.16,0,0,1,.07-.07.57.57,0,0,1,.15,0l.22,0,.23,0a.42.42,0,0,1,.14,0,.16.16,0,0,1,.07.07.16.16,0,0,1,0,.09Z"/><path class="cls-1" d="M96.45,17.9c0,.06,0,.12,0,.17s0,.09,0,.13a.73.73,0,0,1,0,.09,1.07,1.07,0,0,1-.13.15,2,2,0,0,1-.34.26,3.28,3.28,0,0,1-.53.27,4,4,0,0,1-.64.19,3.36,3.36,0,0,1-.71.08,3.28,3.28,0,0,1-1.3-.25,2.36,2.36,0,0,1-1-.73,3.35,3.35,0,0,1-.59-1.18A6,6,0,0,1,91,15.47a5.74,5.74,0,0,1,.24-1.77,3.4,3.4,0,0,1,.68-1.2,2.65,2.65,0,0,1,1-.69,3.32,3.32,0,0,1,1.23-.22,3.55,3.55,0,0,1,.67.06,4.12,4.12,0,0,1,.59.18,2.7,2.7,0,0,1,.48.25,1.52,1.52,0,0,1,.31.24.88.88,0,0,1,.14.15.37.37,0,0,1,0,.11l0,.14s0,.1,0,.17a.6.6,0,0,1-.07.32.19.19,0,0,1-.15.09.5.5,0,0,1-.27-.14,2.56,2.56,0,0,0-.41-.31,2.79,2.79,0,0,0-.6-.31,2.4,2.4,0,0,0-.85-.14,1.81,1.81,0,0,0-1.57.78A4,4,0,0,0,92,15.44a5,5,0,0,0,.15,1.3,2.67,2.67,0,0,0,.43.93,1.68,1.68,0,0,0,.67.55,2,2,0,0,0,.9.19,2.12,2.12,0,0,0,.83-.15,3.7,3.7,0,0,0,.63-.33L96,17.6a.47.47,0,0,1,.26-.15.11.11,0,0,1,.08,0l.06.09a.29.29,0,0,1,0,.14A1,1,0,0,1,96.45,17.9Z"/><path class="cls-1" d="M102.24,12.24c0,.07,0,.14,0,.2l0,.13a.22.22,0,0,1,0,.08l-.07,0-.16,0-.22-.08-.28-.07a1.66,1.66,0,0,0-.33,0,1,1,0,0,0-.41.09,1.71,1.71,0,0,0-.43.29,4.38,4.38,0,0,0-.46.53c-.17.22-.35.49-.55.81V19a.11.11,0,0,1,0,.08.23.23,0,0,1-.07.07l-.15,0-.23,0-.22,0-.14,0a.19.19,0,0,1-.08-.07.19.19,0,0,1,0-.08V11.88a.29.29,0,0,1,0-.09.19.19,0,0,1,.08-.07.42.42,0,0,1,.13,0l.22,0,.22,0a.35.35,0,0,1,.13,0l.07.07a.29.29,0,0,1,0,.09V13a7.31,7.31,0,0,1,.56-.72,2.56,2.56,0,0,1,.49-.42,1.7,1.7,0,0,1,.46-.21,2.31,2.31,0,0,1,.46-.05h.23l.28,0a1.58,1.58,0,0,1,.28.08.73.73,0,0,1,.17.07l.06.07,0,.07s0,.06,0,.11S102.24,12.16,102.24,12.24Z"/><path class="cls-1" d="M109.78,15.34a5.09,5.09,0,0,1-.22,1.55,3.42,3.42,0,0,1-.65,1.24,2.91,2.91,0,0,1-1.08.81,3.57,3.57,0,0,1-1.51.3,3.64,3.64,0,0,1-1.45-.27,2.7,2.7,0,0,1-1-.75,3.16,3.16,0,0,1-.62-1.18,5.42,5.42,0,0,1-.21-1.57,5.09,5.09,0,0,1,.22-1.55,3.43,3.43,0,0,1,.64-1.23,2.86,2.86,0,0,1,1.09-.81,3.54,3.54,0,0,1,1.51-.29,3.61,3.61,0,0,1,1.45.26,2.71,2.71,0,0,1,1,.74,3.4,3.4,0,0,1,.62,1.18A5.47,5.47,0,0,1,109.78,15.34Zm-1,.08a5.4,5.4,0,0,0-.12-1.15,2.94,2.94,0,0,0-.39-1,1.94,1.94,0,0,0-.73-.66,2.36,2.36,0,0,0-1.15-.25,2.51,2.51,0,0,0-1.1.23,2,2,0,0,0-.75.63,2.54,2.54,0,0,0-.43.94,4.49,4.49,0,0,0-.14,1.18,5.38,5.38,0,0,0,.11,1.16,2.9,2.9,0,0,0,.39,1,2.05,2.05,0,0,0,.74.66,2.79,2.79,0,0,0,2.24,0,2,2,0,0,0,.75-.62,2.77,2.77,0,0,0,.44-.95A4.92,4.92,0,0,0,108.8,15.42Z"/><path class="cls-1" d="M116,17.06a2.17,2.17,0,0,1-.18.91,2,2,0,0,1-.54.69,2.42,2.42,0,0,1-.83.43,3.59,3.59,0,0,1-1.07.15,3.88,3.88,0,0,1-.7-.06,4.61,4.61,0,0,1-.59-.15,3.39,3.39,0,0,1-.45-.19l-.27-.18a.37.37,0,0,1-.12-.2.9.9,0,0,1,0-.31,1,1,0,0,1,0-.18,1,1,0,0,1,0-.13.18.18,0,0,1,.06-.08.16.16,0,0,1,.09,0,.46.46,0,0,1,.25.11l.41.24a3.83,3.83,0,0,0,.59.23,2.33,2.33,0,0,0,.78.11,2.73,2.73,0,0,0,.66-.07,1.51,1.51,0,0,0,.51-.24,1,1,0,0,0,.34-.4,1.34,1.34,0,0,0,.12-.58,1,1,0,0,0-.15-.55,1.53,1.53,0,0,0-.41-.39,2.44,2.44,0,0,0-.58-.3l-.66-.27c-.23-.09-.45-.19-.67-.3a2.6,2.6,0,0,1-.58-.4,2,2,0,0,1-.41-.56,1.89,1.89,0,0,1-.15-.79,1.84,1.84,0,0,1,.14-.72,1.81,1.81,0,0,1,.43-.64,2.14,2.14,0,0,1,.75-.45,3,3,0,0,1,1.08-.17,3.08,3.08,0,0,1,.53,0,4.91,4.91,0,0,1,.48.11,2.57,2.57,0,0,1,.37.16l.24.14a.56.56,0,0,1,.11.11.19.19,0,0,1,0,.09.52.52,0,0,0,0,.11v.16a.91.91,0,0,1,0,.17l0,.13-.06.08a.13.13,0,0,1-.08,0,.35.35,0,0,1-.19-.09,2.94,2.94,0,0,0-.33-.19,3.69,3.69,0,0,0-.48-.19,2.57,2.57,0,0,0-.65-.08,2.51,2.51,0,0,0-.65.08,1.22,1.22,0,0,0-.45.25,1,1,0,0,0-.27.36,1.18,1.18,0,0,0-.09.46,1,1,0,0,0,.15.58,1.49,1.49,0,0,0,.42.41,2.87,2.87,0,0,0,.58.3l.67.27.67.29a2.68,2.68,0,0,1,.58.39,1.71,1.71,0,0,1,.42.54A1.78,1.78,0,0,1,116,17.06Z"/><path class="cls-1" d="M124.31,15.34a5.09,5.09,0,0,1-.22,1.55,3.42,3.42,0,0,1-.65,1.24,2.91,2.91,0,0,1-1.08.81,3.54,3.54,0,0,1-1.51.3A3.64,3.64,0,0,1,119.4,19a2.7,2.7,0,0,1-1-.75,3.32,3.32,0,0,1-.62-1.18,5.42,5.42,0,0,1-.21-1.57,5.09,5.09,0,0,1,.22-1.55,3.29,3.29,0,0,1,.65-1.23,2.75,2.75,0,0,1,1.08-.81,3.57,3.57,0,0,1,1.51-.29,3.61,3.61,0,0,1,1.45.26,2.71,2.71,0,0,1,1,.74,3.4,3.4,0,0,1,.62,1.18A5.47,5.47,0,0,1,124.31,15.34Zm-1,.08a5.4,5.4,0,0,0-.12-1.15,2.94,2.94,0,0,0-.39-1,1.94,1.94,0,0,0-.73-.66,2.36,2.36,0,0,0-1.15-.25,2.51,2.51,0,0,0-1.1.23,2.08,2.08,0,0,0-.75.63,2.71,2.71,0,0,0-.43.94,4.49,4.49,0,0,0-.14,1.18,6.09,6.09,0,0,0,.11,1.16,2.9,2.9,0,0,0,.39,1,2.05,2.05,0,0,0,.74.66,2.79,2.79,0,0,0,2.24,0,2,2,0,0,0,.75-.62,2.77,2.77,0,0,0,.44-.95A4.92,4.92,0,0,0,123.33,15.42Z"/><path class="cls-1" d="M127.65,12.5V19a.19.19,0,0,1,0,.08.19.19,0,0,1-.08.07l-.14,0-.23,0-.22,0-.15,0a.16.16,0,0,1-.07-.07.19.19,0,0,1,0-.08V12.5h-1.06a.18.18,0,0,1-.17-.1.55.55,0,0,1-.06-.29.72.72,0,0,1,0-.17.4.4,0,0,1,0-.13.16.16,0,0,1,.07-.07.17.17,0,0,1,.1,0h1.06v-.8a5.17,5.17,0,0,1,.13-1.27,2.32,2.32,0,0,1,.4-.85,1.57,1.57,0,0,1,.68-.48,3,3,0,0,1,.95-.14,3.29,3.29,0,0,1,.54.05,2.53,2.53,0,0,1,.37.11l.15.1a.36.36,0,0,1,.07.1.54.54,0,0,1,0,.15,1.63,1.63,0,0,1,0,.36.62.62,0,0,1,0,.1.1.1,0,0,1-.05.06h-.06a.34.34,0,0,1-.15,0l-.22-.08-.3-.09a2.37,2.37,0,0,0-.41,0,1.36,1.36,0,0,0-.56.11.82.82,0,0,0-.36.33,1.84,1.84,0,0,0-.2.6,5.44,5.44,0,0,0-.06.88v.83h3.45V10a.16.16,0,0,1,0-.09.14.14,0,0,1,.07-.06.26.26,0,0,1,.14,0l.23,0,.22,0a.26.26,0,0,1,.14,0,.17.17,0,0,1,.08.06.29.29,0,0,1,0,.09v1.73h2l.09,0a.18.18,0,0,1,.08.07.4.4,0,0,1,0,.13.72.72,0,0,1,0,.17.55.55,0,0,1-.06.29.19.19,0,0,1-.17.1h-2v4.27a2.66,2.66,0,0,0,.23,1.23.89.89,0,0,0,.84.42,1.18,1.18,0,0,0,.34,0l.27-.08.21-.09a.43.43,0,0,1,.14,0l.07,0s0,0,.05.06a.81.81,0,0,1,0,.11.76.76,0,0,1,0,.16,1,1,0,0,1,0,.27.34.34,0,0,1-.08.16.56.56,0,0,1-.17.11l-.26.09-.31.05-.32,0a2.58,2.58,0,0,1-.9-.14,1.33,1.33,0,0,1-.6-.43,1.72,1.72,0,0,1-.34-.72,4.39,4.39,0,0,1-.11-1V12.5Z"/><path class="cls-1" d="M141.77,11.12a2.87,2.87,0,0,1-.23,1.17,3,3,0,0,1-.62.94,3.06,3.06,0,0,1-2.11.87,3,3,0,0,1-1.19-.23,2.84,2.84,0,0,1-.93-.61,2.8,2.8,0,0,1-.6-.94,3.07,3.07,0,0,1-.22-1.19A3,3,0,0,1,136.1,10a2.82,2.82,0,0,1,.63-1,2.9,2.9,0,0,1,.94-.62,2.84,2.84,0,0,1,1.17-.23,3,3,0,0,1,1.18.22,2.79,2.79,0,0,1,1.54,1.55A3.22,3.22,0,0,1,141.77,11.12Zm-.57.05a2.82,2.82,0,0,0-.18-1,2.37,2.37,0,0,0-.5-.79,2.15,2.15,0,0,0-.75-.5,2.41,2.41,0,0,0-.93-.18,2.38,2.38,0,0,0-1,.2,2.28,2.28,0,0,0-1.24,1.3,2.4,2.4,0,0,0-.17.93,2.8,2.8,0,0,0,.18,1,2.35,2.35,0,0,0,.49.79,2.15,2.15,0,0,0,.75.5,2.52,2.52,0,0,0,1.92,0,2.17,2.17,0,0,0,.76-.53,2.23,2.23,0,0,0,.48-.76A2.69,2.69,0,0,0,141.2,11.17Zm-1,1.46a.43.43,0,0,1,0,0,.07.07,0,0,1-.05,0l-.11,0h-.39l-.12,0-.08-.05a.19.19,0,0,1,0-.09l-.17-.55a.94.94,0,0,0-.25-.44.71.71,0,0,0-.45-.13h-.22v1.16a.11.11,0,0,1-.05.1.75.75,0,0,1-.27,0,.81.81,0,0,1-.28,0,.1.1,0,0,1-.06-.1V9.73a.36.36,0,0,1,.07-.24A.29.29,0,0,1,138,9.4h.84a2.37,2.37,0,0,1,.57.06.89.89,0,0,1,.39.19.71.71,0,0,1,.23.29,1,1,0,0,1,.08.4.8.8,0,0,1-.21.59,1.26,1.26,0,0,1-.55.29.89.89,0,0,1,.35.22,1.21,1.21,0,0,1,.29.45l.2.53A.88.88,0,0,1,140.2,12.63Zm-.87-2.21a.48.48,0,0,0,0-.18.33.33,0,0,0-.1-.14A.35.35,0,0,0,139,10a.9.9,0,0,0-.31,0h-.39v1h.38a.71.71,0,0,0,.5-.14A.49.49,0,0,0,139.33,10.42Z"/><path class="cls-1" d="M81.21,42.26a1,1,0,0,1-.14.29.51.51,0,0,1-.26.16,2.08,2.08,0,0,1-.51.07l-.83,0h-.7l-.5,0a2.09,2.09,0,0,1-.33-.07.59.59,0,0,1-.21-.1.4.4,0,0,1-.14-.15,1.65,1.65,0,0,1-.09-.22L73.56,30.47a3.56,3.56,0,0,1-.15-.58.36.36,0,0,1,.1-.33.85.85,0,0,1,.44-.13c.2,0,.49,0,.86,0a7.12,7.12,0,0,1,.74,0,1.38,1.38,0,0,1,.41.07.35.35,0,0,1,.2.15,2.39,2.39,0,0,1,.1.26l3.23,10.23h0L82.67,30a.82.82,0,0,1,.11-.28.37.37,0,0,1,.21-.17,1.3,1.3,0,0,1,.42-.08,7.56,7.56,0,0,1,.76,0,4.65,4.65,0,0,1,.73,0,.55.55,0,0,1,.36.14.38.38,0,0,1,.06.34,3.49,3.49,0,0,1-.15.57Z"/><path class="cls-1" d="M89.64,30.14a1.47,1.47,0,0,1-.31,1.08,1.75,1.75,0,0,1-1.18.3A1.79,1.79,0,0,1,87,31.23a1.42,1.42,0,0,1-.3-1A1.53,1.53,0,0,1,87,29.11a1.76,1.76,0,0,1,1.19-.3,1.78,1.78,0,0,1,1.17.29A1.44,1.44,0,0,1,89.64,30.14Zm-.19,12.25a.32.32,0,0,1-.06.18.42.42,0,0,1-.21.12,1.65,1.65,0,0,1-.4.08,5.22,5.22,0,0,1-.62,0,5.53,5.53,0,0,1-.63,0,1.66,1.66,0,0,1-.39-.08.42.42,0,0,1-.21-.12.32.32,0,0,1-.06-.18V33.26a.28.28,0,0,1,.06-.18.42.42,0,0,1,.21-.13,1.61,1.61,0,0,1,.39-.09,5.53,5.53,0,0,1,.63,0,5.22,5.22,0,0,1,.62,0,1.59,1.59,0,0,1,.4.09.42.42,0,0,1,.21.13.28.28,0,0,1,.06.18Z"/><path class="cls-1" d="M98.46,39.8a3,3,0,0,1-.29,1.38,2.79,2.79,0,0,1-.82,1,3.64,3.64,0,0,1-1.27.6,6.18,6.18,0,0,1-2.55.12,5.81,5.81,0,0,1-.84-.19,4.86,4.86,0,0,1-.61-.24,1.32,1.32,0,0,1-.36-.23.68.68,0,0,1-.18-.34,2.92,2.92,0,0,1-.06-.68c0-.2,0-.36,0-.48a1.62,1.62,0,0,1,.06-.29.27.27,0,0,1,.11-.14.33.33,0,0,1,.15,0,.84.84,0,0,1,.33.13,5.53,5.53,0,0,0,.55.28,5,5,0,0,0,.76.29,3.46,3.46,0,0,0,1,.13,2.4,2.4,0,0,0,.62-.07,1.42,1.42,0,0,0,.47-.2.89.89,0,0,0,.3-.34A1,1,0,0,0,96,40a.77.77,0,0,0-.19-.53,1.55,1.55,0,0,0-.5-.39,6.07,6.07,0,0,0-.71-.3l-.81-.32a8.69,8.69,0,0,1-.81-.4,3.46,3.46,0,0,1-.71-.55,2.88,2.88,0,0,1-.5-.79,3.06,3.06,0,0,1-.19-1.11,2.86,2.86,0,0,1,.26-1.21,2.65,2.65,0,0,1,.74-.93,3.42,3.42,0,0,1,1.17-.61,5.32,5.32,0,0,1,1.55-.22,5.71,5.71,0,0,1,.84.07,6.24,6.24,0,0,1,.73.15,3.56,3.56,0,0,1,.56.2,1.41,1.41,0,0,1,.32.19.64.64,0,0,1,.14.15.48.48,0,0,1,.06.18c0,.08,0,.16,0,.27s0,.24,0,.39,0,.34,0,.46a.9.9,0,0,1-.06.27.21.21,0,0,1-.09.14.33.33,0,0,1-.15,0,.73.73,0,0,1-.28-.11l-.49-.23a6,6,0,0,0-.68-.23,3.28,3.28,0,0,0-.87-.11,2.18,2.18,0,0,0-.61.07,1.18,1.18,0,0,0-.42.21.93.93,0,0,0-.25.31,1,1,0,0,0-.08.38.78.78,0,0,0,.2.54,1.88,1.88,0,0,0,.51.38,4.88,4.88,0,0,0,.72.3c.27.1.55.2.82.32a6.81,6.81,0,0,1,.82.39,3.3,3.3,0,0,1,.73.56,2.51,2.51,0,0,1,.51.78A2.74,2.74,0,0,1,98.46,39.8Z"/><path class="cls-1" d="M103.18,30.14a1.47,1.47,0,0,1-.32,1.08,2.49,2.49,0,0,1-2.35,0,1.42,1.42,0,0,1-.3-1,1.48,1.48,0,0,1,.31-1.08,2.49,2.49,0,0,1,2.35,0A1.39,1.39,0,0,1,103.18,30.14ZM103,42.39a.34.34,0,0,1-.07.18.42.42,0,0,1-.21.12,1.66,1.66,0,0,1-.39.08,5.41,5.41,0,0,1-.63,0,5.22,5.22,0,0,1-.62,0,1.65,1.65,0,0,1-.4-.08.42.42,0,0,1-.21-.12.32.32,0,0,1-.06-.18V33.26a.28.28,0,0,1,.06-.18.42.42,0,0,1,.21-.13,1.59,1.59,0,0,1,.4-.09,5.22,5.22,0,0,1,.62,0,5.41,5.41,0,0,1,.63,0,1.61,1.61,0,0,1,.39.09.42.42,0,0,1,.21.13.29.29,0,0,1,.07.18Z"/><path class="cls-1" d="M114.81,37.72a6.81,6.81,0,0,1-.31,2.13,4.42,4.42,0,0,1-.93,1.66A4.09,4.09,0,0,1,112,42.59a6.7,6.7,0,0,1-4.33,0,3.8,3.8,0,0,1-1.5-1,4.1,4.1,0,0,1-.88-1.59A7.49,7.49,0,0,1,105,37.9a6.85,6.85,0,0,1,.31-2.13,4.44,4.44,0,0,1,.94-1.66A4.16,4.16,0,0,1,107.82,33a5.92,5.92,0,0,1,2.2-.38,6.18,6.18,0,0,1,2.13.34,3.7,3.7,0,0,1,1.49,1,4,4,0,0,1,.88,1.59A7.48,7.48,0,0,1,114.81,37.72Zm-2.66.1a6,6,0,0,0-.11-1.24,2.91,2.91,0,0,0-.36-1,1.87,1.87,0,0,0-.68-.66,2.15,2.15,0,0,0-1.07-.23,2.28,2.28,0,0,0-1,.21,1.89,1.89,0,0,0-.71.61,3,3,0,0,0-.41,1,5.54,5.54,0,0,0-.14,1.29,6.92,6.92,0,0,0,.11,1.25,3.14,3.14,0,0,0,.37,1,1.77,1.77,0,0,0,.68.65,2.29,2.29,0,0,0,1.07.23,2.25,2.25,0,0,0,1-.21,1.81,1.81,0,0,0,.71-.61,3,3,0,0,0,.41-1A5.66,5.66,0,0,0,112.15,37.82Z"/><path class="cls-2" d="M17.35,55.56,0,52.47V6.19l17.23-3C26.7,1.49,34.65.08,34.9,0s.44.16.44,3V6.07H47.79c8.58,0,12.64.08,13.07.28a2.11,2.11,0,0,1,.9.9c.4.88.4,42.78,0,43.65a2.11,2.11,0,0,1-.9.9c-.43.2-4.49.29-13.07.29H35.34v3.3c0,2.49-.08,3.3-.32,3.28s-8.12-1.41-17.67-3.11M60,29.08V8.1H35.34v9.41h6.19L45,14.08c2.07-2.05,3.67-3.44,4-3.44.59,0,8.26,7.56,8.26,8.14a28.31,28.31,0,0,1-3.56,3.94l-3.56,3.55v6.38c0,4.61-.08,6.45-.3,6.67s-1.35.31-3.44.31H43.22v2.79c0,2.49,0,2.81-.49,3a19.11,19.11,0,0,1-3.94.26H35.34v4.32H60ZM40.94,38.61V33.78h-5.6v9.66h5.6Zm-20.52-9c1.5-5.35,2.81-10,2.89-10.3.14-.55.08-.57-1.6-.57a7.31,7.31,0,0,0-2.05.2c-.23.14-3.78,14-3.91,15.28,0,.09-.81-3.16-1.78-7.2s-1.85-7.43-2-7.51a6.74,6.74,0,0,0-1.93-.06c-1.36.08-1.71.17-1.6.45s1.25,4.59,2.6,9.76l2.47,9.4,1.42.09,2.06.14c.62,0,.68-.12,3.38-9.68M47.8,31.81V26.29L44.56,23,41.32,19.8h-6V31.49H39c4.39,0,4.2-.15,4.2,3.42v2.43H47.8ZM52,16a24.45,24.45,0,0,0-3.06-2.79,25.6,25.6,0,0,0-3,2.79l-2.78,2.8L46,21.7l2.92,2.93,2.92-2.92,2.93-2.93Z"/></g></g></svg>