<svg xmlns="http://www.w3.org/2000/svg" viewBox="0 0 15 20"><defs><style>.cls-1{fill:#593eaf;}</style></defs><title>Asset 25ico</title><g id="Layer_2" data-name="Layer 2"><g id="Layer_1-2" data-name="Layer 1"><path class="cls-1" d="M8.75,5.31a.92.92,0,0,0,.94.94H15V19.06a.92.92,0,0,1-.94.94H.94A.92.92,0,0,1,0,19.06V.94A.92.92,0,0,1,.94,0H8.75ZM2.5,2.81v.63a.26.26,0,0,0,.1.21.26.26,0,0,0,.21.1H5.94a.26.26,0,0,0,.21-.1.26.26,0,0,0,.1-.21V2.81a.26.26,0,0,0-.1-.21.26.26,0,0,0-.21-.1H2.81a.26.26,0,0,0-.21.1A.26.26,0,0,0,2.5,2.81Zm0,2.5v.63a.26.26,0,0,0,.1.21.26.26,0,0,0,.21.1H5.94a.35.35,0,0,0,.31-.31V5.31A.35.35,0,0,0,5.94,5H2.81a.26.26,0,0,0-.21.1A.26.26,0,0,0,2.5,5.31Zm10,4.07a.58.58,0,0,0-.18-.45.57.57,0,0,0-.44-.18H3.13a.62.62,0,0,0-.63.63v3.75a.57.57,0,0,0,.18.44.58.58,0,0,0,.45.18h8.75a.61.61,0,0,0,.62-.62ZM11.25,10v2.5H3.75V10Zm1.25,7.19v-.63a.35.35,0,0,0-.31-.31H9.06a.35.35,0,0,0-.31.31v.63a.35.35,0,0,0,.31.31h3.13a.35.35,0,0,0,.31-.31ZM14.73,4.1a.92.92,0,0,1,.27.67V5H10V0h.23a.92.92,0,0,1,.67.27Z"/></g></g></svg>