<svg xmlns="http://www.w3.org/2000/svg" viewBox="0 0 138.86 57.33"><defs><style>.cls-1{fill:#4d4d4f;}.cls-2{fill:#3a55a2;}</style></defs><title>Asset 19ico</title><g id="Layer_2" data-name="Layer 2"><g id="Layer_1-2" data-name="Layer 1"><path class="cls-1" d="M82.29,18.52a.14.14,0,0,1,0,.09.1.1,0,0,1-.08.06l-.15,0-.23,0-.22,0-.15,0a.11.11,0,0,1-.07-.06.14.14,0,0,1,0-.09V9.41h0l-4,9.17,0,.06-.08,0-.13,0h-.36a.33.33,0,0,1-.13,0,.15.15,0,0,1-.08,0,.07.07,0,0,1,0-.06L72.68,9.41h0v9.11a.14.14,0,0,1,0,.09.1.1,0,0,1-.08.06l-.15,0-.24,0-.22,0a.39.39,0,0,1-.14,0,.12.12,0,0,1-.08-.06.24.24,0,0,1,0-.09V9.06a.44.44,0,0,1,.15-.38.53.53,0,0,1,.29-.11h.52a1.67,1.67,0,0,1,.34,0,.71.71,0,0,1,.26.13.61.61,0,0,1,.19.2,1.08,1.08,0,0,1,.14.26l3.34,8h0l3.48-8a1.49,1.49,0,0,1,.16-.31,1,1,0,0,1,.19-.21A.71.71,0,0,1,81,8.6a1,1,0,0,1,.25,0h.57l.15,0a.42.42,0,0,1,.14.09.56.56,0,0,1,.1.15.52.52,0,0,1,.05.23Z"/><path class="cls-1" d="M86.14,9.07a.78.78,0,0,1-.13.51.69.69,0,0,1-.49.13.63.63,0,0,1-.47-.13.68.68,0,0,1-.13-.5.73.73,0,0,1,.13-.51.69.69,0,0,1,.49-.13.64.64,0,0,1,.47.13A.73.73,0,0,1,86.14,9.07ZM86,18.52a.14.14,0,0,1,0,.09.11.11,0,0,1-.07.06.39.39,0,0,1-.14,0l-.23,0-.22,0-.15,0a.11.11,0,0,1-.07-.06.13.13,0,0,1,0-.09V11.45a.11.11,0,0,1,0-.08.16.16,0,0,1,.07-.07l.15,0h.45a.39.39,0,0,1,.14,0,.16.16,0,0,1,.07.07.11.11,0,0,1,0,.08Z"/><path class="cls-1" d="M93.54,17.48c0,.06,0,.12,0,.16s0,.1,0,.13a.93.93,0,0,1-.05.1,1.07,1.07,0,0,1-.13.15,2.13,2.13,0,0,1-.34.25,2.66,2.66,0,0,1-.53.28,4,4,0,0,1-.64.19,3.35,3.35,0,0,1-.71.07,3.28,3.28,0,0,1-1.3-.24,2.45,2.45,0,0,1-1-.73,3.35,3.35,0,0,1-.59-1.18,6,6,0,0,1-.19-1.61,5.74,5.74,0,0,1,.24-1.77,3.31,3.31,0,0,1,.68-1.2,2.65,2.65,0,0,1,1-.69,3.32,3.32,0,0,1,1.23-.23,3.53,3.53,0,0,1,.67.07,3.15,3.15,0,0,1,.59.18,2.17,2.17,0,0,1,.48.25,2.06,2.06,0,0,1,.31.23l.14.15a.61.61,0,0,1,0,.12l0,.13c0,.05,0,.11,0,.18a.6.6,0,0,1-.07.32.19.19,0,0,1-.15.09.46.46,0,0,1-.27-.15,3.38,3.38,0,0,0-.41-.3,2.4,2.4,0,0,0-.6-.31,2.2,2.2,0,0,0-.85-.14,1.81,1.81,0,0,0-1.57.78A4,4,0,0,0,89,15a5.1,5.1,0,0,0,.15,1.3,2.67,2.67,0,0,0,.43.93,1.77,1.77,0,0,0,.67.55,2.19,2.19,0,0,0,.9.18,2.12,2.12,0,0,0,.83-.14,3.7,3.7,0,0,0,.63-.33l.44-.33a.47.47,0,0,1,.26-.15.11.11,0,0,1,.08,0l.06.08a.33.33,0,0,1,0,.15A.92.92,0,0,1,93.54,17.48Z"/><path class="cls-1" d="M99.33,11.81c0,.08,0,.15,0,.2a.86.86,0,0,1,0,.13.16.16,0,0,1-.05.08.09.09,0,0,1-.07,0l-.16,0-.22-.08-.28-.07a1.15,1.15,0,0,0-.33,0,1,1,0,0,0-.41.09,1.91,1.91,0,0,0-.43.29,3.72,3.72,0,0,0-.46.53c-.17.22-.35.49-.55.8v4.78a.15.15,0,0,1-.09.15l-.15,0-.23,0-.22,0a.39.39,0,0,1-.14,0,.12.12,0,0,1-.08-.06.24.24,0,0,1,0-.09V11.45a.19.19,0,0,1,0-.08.19.19,0,0,1,.08-.07.4.4,0,0,1,.13,0h.44a.33.33,0,0,1,.13,0,.23.23,0,0,1,.07.07.19.19,0,0,1,0,.08v1.12a5.51,5.51,0,0,1,.56-.72,2.56,2.56,0,0,1,.49-.42,1.44,1.44,0,0,1,.46-.21,1.76,1.76,0,0,1,.46-.06l.23,0a1.45,1.45,0,0,1,.28,0l.28.07.17.08.06.06,0,.07s0,.07,0,.12S99.33,11.73,99.33,11.81Z"/><path class="cls-1" d="M106.87,14.91a5.11,5.11,0,0,1-.22,1.56A3.45,3.45,0,0,1,106,17.7a3,3,0,0,1-1.08.82,3.57,3.57,0,0,1-1.51.29,3.64,3.64,0,0,1-1.45-.26,2.7,2.7,0,0,1-1-.75,3.16,3.16,0,0,1-.62-1.18,5.47,5.47,0,0,1-.21-1.57,5.16,5.16,0,0,1,.22-1.56,3.6,3.6,0,0,1,.64-1.23,3.08,3.08,0,0,1,1.09-.81,3.7,3.7,0,0,1,1.51-.29,3.79,3.79,0,0,1,1.45.26,2.63,2.63,0,0,1,1,.75,3.32,3.32,0,0,1,.62,1.18A5.45,5.45,0,0,1,106.87,14.91Zm-1,.09a5.4,5.4,0,0,0-.12-1.15,2.94,2.94,0,0,0-.39-1,2,2,0,0,0-.73-.67A2.48,2.48,0,0,0,103.5,12a2.51,2.51,0,0,0-1.1.22,2,2,0,0,0-.75.63,2.66,2.66,0,0,0-.43.95,4.49,4.49,0,0,0-.14,1.18,5.44,5.44,0,0,0,.11,1.16,2.9,2.9,0,0,0,.39,1,2,2,0,0,0,.74.65,2.84,2.84,0,0,0,2.24,0,1.92,1.92,0,0,0,.75-.63,2.72,2.72,0,0,0,.44-.94A5,5,0,0,0,105.89,15Z"/><path class="cls-1" d="M113.11,16.64a2.21,2.21,0,0,1-.18.91,1.9,1.9,0,0,1-.54.68,2.26,2.26,0,0,1-.83.43,3.59,3.59,0,0,1-1.07.15,3.88,3.88,0,0,1-.7-.06,3.4,3.4,0,0,1-.59-.14,2.4,2.4,0,0,1-.45-.2,1,1,0,0,1-.27-.18.35.35,0,0,1-.12-.19.9.9,0,0,1,0-.31,1,1,0,0,1,0-.18c0-.05,0-.1,0-.14l.06-.08a.15.15,0,0,1,.09,0,.51.51,0,0,1,.25.1,3,3,0,0,0,.41.24,3,3,0,0,0,.59.24,2.62,2.62,0,0,0,.78.11,2.71,2.71,0,0,0,.66-.08,1.5,1.5,0,0,0,.51-.23,1.09,1.09,0,0,0,.34-.4,1.34,1.34,0,0,0,.12-.58,1,1,0,0,0-.15-.55,1.56,1.56,0,0,0-.41-.4,2.85,2.85,0,0,0-.58-.29l-.66-.27c-.23-.09-.45-.19-.67-.3a2.6,2.6,0,0,1-.58-.4,2.13,2.13,0,0,1-.41-.56,1.89,1.89,0,0,1-.15-.79,1.78,1.78,0,0,1,.14-.72,1.81,1.81,0,0,1,.43-.64,2.14,2.14,0,0,1,.75-.45,3,3,0,0,1,1.08-.18,3.91,3.91,0,0,1,1,.16l.37.15.24.15a.57.57,0,0,1,.11.1.36.36,0,0,1,0,.09.74.74,0,0,0,0,.12v.16a.81.81,0,0,1,0,.16,1.3,1.3,0,0,1,0,.13.35.35,0,0,1-.06.09l-.08,0a.41.41,0,0,1-.19-.08,2.94,2.94,0,0,0-.33-.19,3.69,3.69,0,0,0-.48-.19,2.18,2.18,0,0,0-.65-.08,2.14,2.14,0,0,0-.65.08,1.37,1.37,0,0,0-.45.24,1.07,1.07,0,0,0-.27.37,1.18,1.18,0,0,0-.09.46,1.06,1.06,0,0,0,.15.58,1.49,1.49,0,0,0,.42.41,3.49,3.49,0,0,0,.58.3l.67.27c.23.09.45.18.67.29a2.68,2.68,0,0,1,.58.39,1.71,1.71,0,0,1,.42.54A1.75,1.75,0,0,1,113.11,16.64Z"/><path class="cls-1" d="M121.4,14.91a5.11,5.11,0,0,1-.22,1.56,3.45,3.45,0,0,1-.65,1.23,3,3,0,0,1-1.08.82,3.54,3.54,0,0,1-1.51.29,3.64,3.64,0,0,1-1.45-.26,2.7,2.7,0,0,1-1-.75,3.32,3.32,0,0,1-.62-1.18,5.47,5.47,0,0,1-.21-1.57,5.16,5.16,0,0,1,.22-1.56,3.45,3.45,0,0,1,.65-1.23,3,3,0,0,1,1.08-.81,4.12,4.12,0,0,1,3,0,2.63,2.63,0,0,1,1,.75,3.32,3.32,0,0,1,.62,1.18A5.45,5.45,0,0,1,121.4,14.91Zm-1,.09a5.4,5.4,0,0,0-.12-1.15,2.94,2.94,0,0,0-.39-1,2,2,0,0,0-.73-.67A2.48,2.48,0,0,0,118,12a2.51,2.51,0,0,0-1.1.22,2.08,2.08,0,0,0-.75.63,2.85,2.85,0,0,0-.43.95,4.49,4.49,0,0,0-.14,1.18,6.17,6.17,0,0,0,.11,1.16,2.9,2.9,0,0,0,.39,1,2,2,0,0,0,.74.65,2.84,2.84,0,0,0,2.24,0,1.92,1.92,0,0,0,.75-.63,2.72,2.72,0,0,0,.44-.94A5,5,0,0,0,120.42,15Z"/><path class="cls-1" d="M124.74,12.08v6.44a.24.24,0,0,1,0,.09.12.12,0,0,1-.08.06.39.39,0,0,1-.14,0l-.23,0-.22,0-.15,0a.11.11,0,0,1-.07-.06.24.24,0,0,1,0-.09V12.08h-1.06a.18.18,0,0,1-.17-.1.55.55,0,0,1-.06-.29.9.9,0,0,1,0-.18.34.34,0,0,1,0-.12.19.19,0,0,1,.07-.08l.1,0h1.06v-.81a5.14,5.14,0,0,1,.13-1.26,2.32,2.32,0,0,1,.4-.85,1.57,1.57,0,0,1,.68-.48,2.75,2.75,0,0,1,1-.15,2.48,2.48,0,0,1,.54.06,2.53,2.53,0,0,1,.37.11A.83.83,0,0,1,127,8a.41.41,0,0,1,.07.11.57.57,0,0,1,0,.14,1.15,1.15,0,0,1,0,.19.69.69,0,0,1,0,.28.08.08,0,0,1,0,0l-.06,0a.34.34,0,0,1-.15,0l-.22-.09a1.6,1.6,0,0,0-.3-.08,1.68,1.68,0,0,0-.41,0,1.37,1.37,0,0,0-.56.1A.9.9,0,0,0,125,9a1.7,1.7,0,0,0-.2.59,5.61,5.61,0,0,0-.06.88v.84h3.45V9.56a.14.14,0,0,1,0-.09.16.16,0,0,1,.07-.07.39.39,0,0,1,.14,0h.45a.39.39,0,0,1,.14,0,.19.19,0,0,1,.08.07.24.24,0,0,1,0,.09v1.73h2l.09,0a.2.2,0,0,1,.08.08.34.34,0,0,1,0,.12.9.9,0,0,1,0,.18.55.55,0,0,1-.06.29.19.19,0,0,1-.17.1h-2v4.27a2.66,2.66,0,0,0,.23,1.23.89.89,0,0,0,.84.42,1.18,1.18,0,0,0,.34,0l.27-.08.21-.09a.27.27,0,0,1,.14,0l.07,0s0,0,.05.05l0,.11a.86.86,0,0,1,0,.17,1,1,0,0,1,0,.27.34.34,0,0,1-.08.16.83.83,0,0,1-.17.11,1.34,1.34,0,0,1-.26.08,2.84,2.84,0,0,1-.31.06l-.32,0a2.58,2.58,0,0,1-.9-.14,1.41,1.41,0,0,1-.6-.43,1.72,1.72,0,0,1-.34-.72,4.45,4.45,0,0,1-.11-1v-4.4Z"/><path class="cls-1" d="M138.86,10.7a2.83,2.83,0,0,1-.23,1.16,3,3,0,0,1-.62,1,3,3,0,0,1-2.11.86,3,3,0,0,1-1.19-.22,2.71,2.71,0,0,1-.93-.62,2.61,2.61,0,0,1-.6-.94,3.18,3.18,0,0,1,0-2.35,2.88,2.88,0,0,1,.63-.94,3.1,3.1,0,0,1,.94-.63,3.12,3.12,0,0,1,2.35,0,2.69,2.69,0,0,1,.93.61,2.82,2.82,0,0,1,.61.94A3.22,3.22,0,0,1,138.86,10.7Zm-.57,0a2.8,2.8,0,0,0-.18-1,2.37,2.37,0,0,0-.5-.79,2,2,0,0,0-.75-.5,2.41,2.41,0,0,0-.93-.18,2.38,2.38,0,0,0-1,.2,2.23,2.23,0,0,0-1.24,1.29,2.4,2.4,0,0,0-.17.93,2.82,2.82,0,0,0,.18,1,2.3,2.3,0,0,0,.49.78A2.17,2.17,0,0,0,135,13a2.65,2.65,0,0,0,1.92,0,2.31,2.31,0,0,0,.76-.53,2.27,2.27,0,0,0,.48-.77A2.6,2.6,0,0,0,138.29,10.74Zm-1,1.46s0,0,0,.06a.06.06,0,0,1-.05,0l-.11,0h-.39l-.12,0a.24.24,0,0,1-.08-.06.15.15,0,0,1,0-.08l-.17-.56a1,1,0,0,0-.25-.43.65.65,0,0,0-.45-.13h-.22v1.16a.1.1,0,0,1-.05.1.75.75,0,0,1-.27,0,.81.81,0,0,1-.28,0,.11.11,0,0,1-.06-.1V9.31a.36.36,0,0,1,.07-.24A.29.29,0,0,1,135,9h.84a2.37,2.37,0,0,1,.57.06,1,1,0,0,1,.39.18.68.68,0,0,1,.23.3,1,1,0,0,1,.08.39.77.77,0,0,1-.21.59,1.17,1.17,0,0,1-.55.3,1,1,0,0,1,.35.21,1.26,1.26,0,0,1,.29.46l.2.53A1,1,0,0,1,137.29,12.2ZM136.42,10a.47.47,0,0,0,0-.17.31.31,0,0,0-.1-.15.56.56,0,0,0-.19-.1,1.3,1.3,0,0,0-.31,0h-.39v1h.38a.71.71,0,0,0,.5-.13A.51.51,0,0,0,136.42,10Z"/><path class="cls-1" d="M85.66,41.62a1.15,1.15,0,0,1-.17.4.72.72,0,0,1-.32.23,2.46,2.46,0,0,1-.56.1l-.86,0-.94,0a2.17,2.17,0,0,1-.55-.1A.6.6,0,0,1,82,42a1.4,1.4,0,0,1-.15-.4l-2.12-8.4h0l-2,8.4a1.18,1.18,0,0,1-.14.39.55.55,0,0,1-.3.23,2,2,0,0,1-.54.11l-.91,0-.94,0a2.18,2.18,0,0,1-.56-.1A.6.6,0,0,1,74,42a1.4,1.4,0,0,1-.15-.4l-3-11.57a3.7,3.7,0,0,1-.1-.58.35.35,0,0,1,.12-.32.63.63,0,0,1,.42-.14q.29,0,.81,0l.77,0a1.34,1.34,0,0,1,.42.07.37.37,0,0,1,.2.16,1.53,1.53,0,0,1,.08.31L75.85,39.7h0l2.42-10.09a1.1,1.1,0,0,1,.1-.32.44.44,0,0,1,.23-.19,1.47,1.47,0,0,1,.44-.09,7,7,0,0,1,.73,0l.79,0a2,2,0,0,1,.45.09.44.44,0,0,1,.23.19.85.85,0,0,1,.11.33l2.5,10.09h0l2.32-10.13a1.71,1.71,0,0,1,.08-.29.4.4,0,0,1,.2-.18A1.25,1.25,0,0,1,86.9,29a7.2,7.2,0,0,1,.75,0,6.29,6.29,0,0,1,.7,0,.5.5,0,0,1,.36.14.38.38,0,0,1,.1.33,3,3,0,0,1-.11.6Z"/><path class="cls-1" d="M99,37.3a6.81,6.81,0,0,1-.31,2.13,4.36,4.36,0,0,1-.93,1.66,4.09,4.09,0,0,1-1.57,1.08,5.92,5.92,0,0,1-2.2.38,6.22,6.22,0,0,1-2.13-.34,3.72,3.72,0,0,1-1.49-1,4.14,4.14,0,0,1-.89-1.58,7.49,7.49,0,0,1-.28-2.16,6.92,6.92,0,0,1,.31-2.14,4.52,4.52,0,0,1,.94-1.66A4.22,4.22,0,0,1,92,32.61a6.69,6.69,0,0,1,4.33,0,3.71,3.71,0,0,1,1.5,1,4.23,4.23,0,0,1,.87,1.59A7.5,7.5,0,0,1,99,37.3Zm-2.66.1a7,7,0,0,0-.1-1.25,3,3,0,0,0-.37-1,1.84,1.84,0,0,0-.68-.65,2.14,2.14,0,0,0-1.07-.24,2.31,2.31,0,0,0-1,.21,1.81,1.81,0,0,0-.7.62,2.77,2.77,0,0,0-.42,1,5.63,5.63,0,0,0-.14,1.3A6.1,6.1,0,0,0,92,38.62a2.93,2.93,0,0,0,.36,1,1.73,1.73,0,0,0,.68.66,2.29,2.29,0,0,0,1.07.23,2.25,2.25,0,0,0,1-.21,1.83,1.83,0,0,0,.71-.61,2.76,2.76,0,0,0,.41-1A5.66,5.66,0,0,0,96.34,37.4Z"/><path class="cls-1" d="M106.92,33.67c0,.24,0,.45,0,.6s0,.28-.06.37a.48.48,0,0,1-.11.19.31.31,0,0,1-.17.05.46.46,0,0,1-.19,0l-.23-.07-.28-.08a1.18,1.18,0,0,0-.34,0,1.14,1.14,0,0,0-.43.09,1.94,1.94,0,0,0-.44.27,3.23,3.23,0,0,0-.49.49c-.16.21-.34.46-.53.76V42a.29.29,0,0,1-.07.18.42.42,0,0,1-.21.13,1.66,1.66,0,0,1-.39.08l-.63,0-.62,0a1.65,1.65,0,0,1-.4-.08.42.42,0,0,1-.21-.13A.28.28,0,0,1,101,42V32.82a.35.35,0,0,1,0-.18.4.4,0,0,1,.19-.13,1.31,1.31,0,0,1,.34-.08l.53,0,.54,0a1.13,1.13,0,0,1,.34.08.35.35,0,0,1,.16.13.28.28,0,0,1,.06.18V34a6.48,6.48,0,0,1,.67-.84,4,4,0,0,1,.61-.53,1.84,1.84,0,0,1,.57-.27,2.25,2.25,0,0,1,.58-.08l.28,0,.32,0a1.71,1.71,0,0,1,.29.08.5.5,0,0,1,.18.1.28.28,0,0,1,.08.11,1.22,1.22,0,0,1,0,.17c0,.07,0,.18,0,.32S106.92,33.42,106.92,33.67Z"/><path class="cls-1" d="M116.93,42a.36.36,0,0,1-.05.19.37.37,0,0,1-.18.13.9.9,0,0,1-.33.07,4,4,0,0,1-.52,0,4,4,0,0,1-.53,0,.9.9,0,0,1-.33-.07.4.4,0,0,1-.19-.13.29.29,0,0,1,0-.19V41a6.13,6.13,0,0,1-1.49,1.18,3.52,3.52,0,0,1-1.71.42,3.56,3.56,0,0,1-1.77-.41,3.34,3.34,0,0,1-1.18-1.09,4.5,4.5,0,0,1-.66-1.6,9.22,9.22,0,0,1,0-4.13,5,5,0,0,1,.77-1.66A3.37,3.37,0,0,1,110,32.6a3.92,3.92,0,0,1,1.72-.37,3,3,0,0,1,1.39.32,4.77,4.77,0,0,1,1.25.91V28.51a.27.27,0,0,1,0-.18.37.37,0,0,1,.21-.14,1.61,1.61,0,0,1,.39-.09,5.41,5.41,0,0,1,.63,0,5.22,5.22,0,0,1,.62,0,1.41,1.41,0,0,1,.39.09.37.37,0,0,1,.21.14.28.28,0,0,1,.06.18Zm-2.56-6.11a5.58,5.58,0,0,0-1.07-1.06,1.73,1.73,0,0,0-1.06-.37,1.45,1.45,0,0,0-.86.25,1.83,1.83,0,0,0-.59.67,3.72,3.72,0,0,0-.33.94,5.29,5.29,0,0,0-.1,1.06,7,7,0,0,0,.09,1.12,3.55,3.55,0,0,0,.3,1,1.88,1.88,0,0,0,.56.68,1.45,1.45,0,0,0,.88.25,1.81,1.81,0,0,0,.52-.07,2,2,0,0,0,.51-.25,3.15,3.15,0,0,0,.54-.46c.18-.19.39-.42.61-.69Z"/><path class="cls-2" d="M60.32,7.85a2.28,2.28,0,0,0-2.16-2.09,13.11,13.11,0,0,0-1.66,0c-6.77,0-13.55,0-20.32,0-.59,0-1.27.25-1.9-.47V0C28.44,1,22.74,1.89,17.09,3S5.6,4.91,0,6.16V51.32c11.48,1.86,22.78,4.13,34.42,6V51.55H59A3.94,3.94,0,0,0,60.36,48q0-19.38,0-38.76a8.42,8.42,0,0,0,0-1.42M22.13,37.72H18.28c-.84-4-1.66-8-2.55-12.31-1.35,4-1.63,8-2.76,11.9a9.14,9.14,0,0,1-3.57-.38Q7.77,28.71,6,20.07H9.2c1.14,3.57,1,7.47,2.25,11.49,1.08-4.15,1.52-8,2.74-11.67a15.63,15.63,0,0,1,3.38-.33c.77,3.6,1.54,7.17,2.31,10.74l.33,1.33a8.5,8.5,0,0,1,.44-1.33c.67-3.69,1.33-7.37,2-11.11A14.21,14.21,0,0,1,26.37,19c-1.44,6.35-2.85,12.55-4.24,18.71M58,49.56H34.48V45.48h19c.68-.84.27-1.59.42-2.47H34.57c-.41-1.26-.12-2.4-.24-3.69H53.57a3.48,3.48,0,0,0,.28-2.47H34.55a12,12,0,0,1-.13-3.69H53.63a4.06,4.06,0,0,0,.13-2.73H34.6c-.44-1.19-.17-2.25-.24-3.46H53.7a4.54,4.54,0,0,0,0-2.73H34.53a9.63,9.63,0,0,1-.08-3.47H53.58c.55-.88.33-1.65.25-2.65H34.48V14.36h19.1c.57-.79.23-1.5.39-2.41H34.47V7.77H58Z"/></g></g></svg>