<svg xmlns="http://www.w3.org/2000/svg" viewBox="0 0 15 20"><defs><style>.cls-1{fill:#c43625;}</style></defs><title>Asset 23ico</title><g id="Layer_2" data-name="Layer 2"><g id="Layer_1-2" data-name="Layer 1"><path class="cls-1" d="M8.75,5.31a.92.92,0,0,0,.94.94H15V19.06a.92.92,0,0,1-.94.94H.94A.92.92,0,0,1,0,19.06V.94A.92.92,0,0,1,.94,0H8.75Zm2.07,6.45A3.07,3.07,0,0,0,10,9.61,2.67,2.67,0,0,0,8,8.75H4.8a.45.45,0,0,0-.33.14.44.44,0,0,0-.13.33V17a.44.44,0,0,0,.13.33.45.45,0,0,0,.33.14H6a.45.45,0,0,0,.33-.14A.44.44,0,0,0,6.48,17V14.8H6.8a5.49,5.49,0,0,0,2.46-.31A2.65,2.65,0,0,0,10.82,11.76ZM7.58,10.59H6.48V13H7.54a1,1,0,0,0,.8-.33,1.23,1.23,0,0,0,.29-.86,1.32,1.32,0,0,0-.27-.86A1,1,0,0,0,7.58,10.59ZM14.73,4.1a.92.92,0,0,1,.27.67V5H10V0h.23a.92.92,0,0,1,.67.27Z"/></g></g></svg>